<?xml version="1.0" encoding="UTF-8"?><svg xmlns="http://www.w3.org/2000/svg" viewBox="0 0 1920 1080"><g id="a"><rect width="1920" height="1080" fill="#fff" stroke-width="0"/></g><g id="b"><path d="M224.75,63.79v25.97h-4.9l-.28-2.03c-.56.79-1.27,1.43-2.14,1.91s-1.87.72-3.01.72c-2.24,0-3.94-.89-5.09-2.66-1.15-1.77-1.73-4.2-1.73-7.28,0-1.91.3-3.62.91-5.11.61-1.49,1.47-2.66,2.59-3.5s2.43-1.26,3.92-1.26c1.68,0,3.08.58,4.2,1.75v-9.1l5.53.59ZM214.15,76.02c-.56.94-.84,2.42-.84,4.43,0,2.15.25,3.66.75,4.53.5.88,1.21,1.31,2.12,1.31,1.17,0,2.18-.71,3.04-2.14v-8.02c-.4-.51-.81-.9-1.24-1.15-.43-.26-.93-.38-1.49-.38-1,0-1.79.47-2.35,1.42Z" fill="#000" stroke-width="0"/><path d="M247.85,64.38l-1.54,3.6c-1.19-.47-2.51-.7-3.96-.7-1.1,0-1.88.2-2.36.6-.48.4-.72,1.05-.72,1.96v2.48h6.05l-.63,3.85h-5.42v13.58h-5.5v-13.58h-3.92v-3.85h3.92v-2.66c0-1.91.67-3.47,2.01-4.67,1.34-1.2,3.24-1.8,5.69-1.8s4.5.4,6.37,1.19Z" fill="#000" stroke-width="0"/></g><g id="c"><path d="M351.13,93.33h-2.62v-31.81h2.62v31.81Z" fill="#000" stroke-width="0"/><path d="M378.29,77.3v3.01l-13.3,8.3-1.58-2.17,12.36-7.63-12.36-7.59,1.44-2.24,13.44,8.33Z" fill="#000" stroke-width="0"/></g><g id="d"><path d="M492.6,71.85c.62.88.93,2.26.93,4.15v13.75h-4.73v-13.12c0-.68-.06-1.14-.19-1.4-.13-.26-.37-.39-.72-.39-.65,0-1.29.41-1.92,1.23v13.69h-3.92v-13.12c0-.68-.06-1.14-.19-1.4-.13-.26-.37-.39-.72-.39-.65,0-1.29.41-1.92,1.23v13.69h-4.79v-18.58h4.03l.38,1.79c.61-.84,1.21-1.45,1.8-1.84.59-.38,1.29-.58,2.08-.58.72,0,1.33.18,1.82.54.49.36.84.92,1.05,1.66,1.26-1.47,2.62-2.21,4.09-2.21,1.33,0,2.3.44,2.92,1.31Z" fill="#000" stroke-width="0"/><path d="M502.45,83.88c0,.86.16,1.48.47,1.84.32.36.79.54,1.42.54.56,0,1.13-.18,1.71-.54.58-.36,1.06-.86,1.43-1.49v-13.06h5.53v18.58h-4.83l-.25-2.17c-.61.89-1.42,1.57-2.45,2.05s-2.11.72-3.25.72c-1.75,0-3.07-.51-3.97-1.52-.9-1.01-1.35-2.43-1.35-4.25v-13.4h5.53v12.71Z" fill="#000" stroke-width="0"/><path d="M528.56,90.35c-2.38,0-4.17-.61-5.37-1.82-1.2-1.21-1.8-2.92-1.8-5.11v-8.44h-3.89v-3.81h3.89v-4.02l5.53-.67v4.69h5.99l-.56,3.81h-5.43v8.44c0,.91.21,1.56.63,1.96.42.4,1.1.6,2.03.6,1.17,0,2.25-.28,3.25-.84l1.82,3.54c-1.75,1.12-3.78,1.68-6.09,1.68Z" fill="#000" stroke-width="0"/><path d="M554.84,85.91c.19.33.5.57.95.73l-1.16,3.64c-1.12-.12-2.05-.37-2.8-.75-.75-.38-1.33-.95-1.75-1.7-.7.82-1.59,1.44-2.66,1.87-1.07.43-2.22.65-3.43.65-1.91,0-3.44-.54-4.58-1.63-1.14-1.08-1.71-2.49-1.71-4.22,0-2.01.79-3.56,2.38-4.67,1.59-1.11,3.81-1.66,6.68-1.66h2.49v-.67c0-1.91-1.23-2.87-3.67-2.87-.63,0-1.42.09-2.36.26-.94.17-1.86.41-2.75.72l-1.26-3.67c1.19-.44,2.43-.79,3.73-1.03,1.29-.24,2.47-.37,3.52-.37,5.41,0,8.12,2.19,8.12,6.58v7.28c0,.68.09,1.18.28,1.5ZM547.79,85.85c.64-.36,1.13-.86,1.45-1.49v-3.04h-1.37c-2.99,0-4.48.93-4.48,2.8,0,.72.21,1.28.65,1.68.43.4,1.04.6,1.84.6.63,0,1.27-.18,1.91-.54Z" fill="#000" stroke-width="0"/><path d="M570.56,90.35c-2.38,0-4.17-.61-5.37-1.82-1.2-1.21-1.8-2.92-1.8-5.11v-8.44h-3.89v-3.81h3.89v-4.02l5.53-.67v4.69h5.99l-.56,3.81h-5.43v8.44c0,.91.21,1.56.63,1.96.42.4,1.1.6,2.03.6,1.17,0,2.25-.28,3.25-.84l1.82,3.54c-1.75,1.12-3.78,1.68-6.09,1.68Z" fill="#000" stroke-width="0"/><path d="M590.19,86.33c1.59,0,3.17-.51,4.76-1.54l2.21,3.01c-.91.79-2,1.42-3.25,1.87s-2.65.68-4.17.68c-2.08,0-3.84-.41-5.29-1.24-1.45-.83-2.54-1.98-3.27-3.46-.73-1.48-1.1-3.2-1.1-5.16s.36-3.55,1.07-5.06c.71-1.5,1.75-2.69,3.11-3.57,1.37-.88,2.99-1.31,4.88-1.31,1.77,0,3.31.38,4.62,1.14,1.31.76,2.32,1.85,3.03,3.29s1.07,3.14,1.07,5.13c0,.77-.04,1.44-.1,2h-12.04c.35,2.82,1.84,4.23,4.48,4.23ZM586.73,75.35c-.61.73-.97,1.86-1.08,3.38h6.83c-.05-2.99-1.16-4.48-3.33-4.48-1,0-1.81.37-2.42,1.1Z" fill="#000" stroke-width="0"/><path d="M609.21,82.76c.41,1.54,1.08,3.06,2.03,4.57.95,1.5,2.27,3.19,3.97,5.06l-3.18,2.9c-2.96-2.54-5.21-5.23-6.74-8.07-1.53-2.83-2.29-6.07-2.29-9.71s.76-6.88,2.29-9.71c1.53-2.83,3.77-5.52,6.74-8.07l3.18,2.9c-2.38,2.61-4.08,5.03-5.09,7.26-1.02,2.23-1.52,4.77-1.52,7.61,0,1.96.2,3.71.61,5.25Z" fill="#000" stroke-width="0"/><path d="M634.29,89.76c-.84,2.5-2.09,4.38-3.75,5.65-1.66,1.27-3.87,1.99-6.65,2.15l-.63-3.92c1.77-.23,3.08-.63,3.94-1.19.85-.56,1.53-1.46,2.05-2.69h-1.93l-5.88-18.58h5.85l3.6,15.05,3.92-15.05h5.67l-6.19,18.58Z" fill="#000" stroke-width="0"/><path d="M680.91,77.37h-15.89v-4.34h15.89v4.34ZM680.91,84.68h-15.89v-4.3h15.89v4.3Z" fill="#000" stroke-width="0"/><path d="M705.24,89.76l6.37-9.77-5.77-8.82h6.19l2.98,5.95,2.87-5.95h5.88l-5.46,8.61,6.4,9.98h-6.26l-3.67-6.96-3.54,6.96h-5.99Z" fill="#000" stroke-width="0"/><path d="M750.24,76.67h13.44v4.27h-13.44v-4.27Z" fill="#000" stroke-width="0"/><path d="M807.59,71.85c.62.88.93,2.26.93,4.15v13.75h-4.73v-13.12c0-.68-.06-1.14-.19-1.4-.13-.26-.37-.39-.72-.39-.65,0-1.29.41-1.92,1.23v13.69h-3.92v-13.12c0-.68-.06-1.14-.19-1.4-.13-.26-.37-.39-.72-.39-.65,0-1.29.41-1.92,1.23v13.69h-4.79v-18.58h4.03l.38,1.79c.61-.84,1.21-1.45,1.8-1.84.59-.38,1.29-.58,2.08-.58.72,0,1.33.18,1.82.54.49.36.84.92,1.05,1.66,1.26-1.47,2.62-2.21,4.09-2.21,1.33,0,2.3.44,2.92,1.31Z" fill="#000" stroke-width="0"/><path d="M823.25,85.98h4.76v3.78h-15.54v-3.78h5.25v-11.03h-5.07v-3.78h10.6v14.81ZM822.27,62.33c.61.59.91,1.34.91,2.22s-.3,1.66-.91,2.24c-.61.58-1.39.88-2.35.88s-1.74-.3-2.36-.89c-.62-.59-.93-1.34-.93-2.22s.31-1.63.93-2.22c.62-.6,1.41-.89,2.36-.89s1.74.3,2.35.89Z" fill="#000" stroke-width="0"/><path d="M832.91,71.17h4.83l.39,2.13c.84-.93,1.72-1.63,2.64-2.08.92-.45,1.96-.68,3.13-.68,1.61,0,2.86.49,3.76,1.47s1.35,2.35,1.35,4.1v13.65h-5.53v-12.04c0-1.17-.13-1.97-.38-2.42-.26-.44-.72-.67-1.4-.67-.56,0-1.1.18-1.63.54-.53.36-1.07.89-1.63,1.59v12.98h-5.53v-18.58Z" fill="#000" stroke-width="0"/><path d="M861.21,82.76c.41,1.54,1.08,3.06,2.03,4.57.95,1.5,2.27,3.19,3.97,5.06l-3.18,2.9c-2.96-2.54-5.21-5.23-6.74-8.07-1.53-2.83-2.29-6.07-2.29-9.71s.76-6.88,2.29-9.71c1.53-2.83,3.77-5.52,6.74-8.07l3.18,2.9c-2.38,2.61-4.08,5.03-5.09,7.26-1.02,2.23-1.52,4.77-1.52,7.61,0,1.96.2,3.71.61,5.25Z" fill="#000" stroke-width="0"/><path d="M873.23,89.76l6.37-9.77-5.78-8.82h6.2l2.97,5.95,2.87-5.95h5.88l-5.46,8.61,6.41,9.98h-6.27l-3.67-6.96-3.54,6.96h-5.98Z" fill="#000" stroke-width="0"/><path d="M903.8,69.89c-1.01-2.23-2.71-4.65-5.09-7.26l3.18-2.9c2.96,2.54,5.21,5.23,6.74,8.07s2.29,6.07,2.29,9.71-.76,6.88-2.29,9.71-3.77,5.52-6.74,8.07l-3.18-2.9c1.7-1.87,3.03-3.55,3.97-5.06.94-1.5,1.62-3.03,2.03-4.57s.61-3.29.61-5.25c0-2.85-.51-5.38-1.52-7.61Z" fill="#000" stroke-width="0"/><path d="M924.8,69.89c-1.01-2.23-2.71-4.65-5.09-7.26l3.18-2.9c2.96,2.54,5.21,5.23,6.74,8.07s2.29,6.07,2.29,9.71-.76,6.88-2.29,9.71-3.77,5.52-6.74,8.07l-3.18-2.9c1.7-1.87,3.03-3.55,3.97-5.06.94-1.5,1.62-3.03,2.03-4.57s.61-3.29.61-5.25c0-2.85-.51-5.38-1.52-7.61Z" fill="#000" stroke-width="0"/></g><g id="e"><rect x="1383.28" y="51.65" width="421.58" height="185.47" fill="#f1f2f2" stroke-width="0"/></g><g id="f"><path d="M1419.92,67.92v24.39h-2.44l-.26-2.28c-.64.88-1.38,1.54-2.21,1.98s-1.74.66-2.71.66c-2.2,0-3.86-.8-4.97-2.41-1.11-1.61-1.67-3.82-1.67-6.63,0-1.74.27-3.29.82-4.67.55-1.37,1.34-2.45,2.36-3.23,1.02-.78,2.23-1.17,3.61-1.17,1.91,0,3.48.69,4.69,2.08v-9.04l2.77.33ZM1409.84,78.51c-.78,1.14-1.17,2.85-1.17,5.11s.36,3.94,1.07,5.1c.71,1.16,1.75,1.73,3.12,1.73,1.65,0,3.08-.92,4.29-2.77v-8.65c-.48-.73-1.07-1.28-1.75-1.67-.68-.38-1.42-.58-2.21-.58-1.45,0-2.57.57-3.35,1.72Z" fill="#231f20" stroke-width="0"/><path d="M1441.5,68.51l-.89,2.08c-1.1-.48-2.34-.73-3.73-.73-2.42,0-3.63.96-3.63,2.87v3.53h5.87l-.3,2.21h-5.58v13.83h-2.81v-13.83h-4.12v-2.21h4.12v-3.46c0-1.56.6-2.82,1.8-3.78,1.2-.96,2.71-1.44,4.54-1.44,1.65,0,3.22.31,4.72.92Z" fill="#231f20" stroke-width="0"/><path d="M1473.94,95.67h-2.47v-30h2.47v30Z" fill="#231f20" stroke-width="0"/><path d="M1499.54,80.55v2.84l-12.54,7.82-1.49-2.05,11.65-7.19-11.65-7.16,1.35-2.11,12.67,7.85Z" fill="#231f20" stroke-width="0"/><path d="M1460.19,115.19c.63.69.94,1.95.94,3.78v12.94h-2.54v-12.47c0-1.21-.08-2.03-.23-2.46-.15-.43-.53-.64-1.12-.64-1.12,0-2.13.69-3.04,2.08v13.5h-2.57v-12.47c0-1.21-.08-2.03-.23-2.46-.15-.43-.53-.64-1.12-.64-1.12,0-2.13.69-3.04,2.08v13.5h-2.54v-17.39h2.15l.2,2.05c.53-.77,1.08-1.36,1.67-1.78.58-.42,1.28-.63,2.1-.63,1.63,0,2.67.77,3.13,2.31.53-.75,1.09-1.32,1.68-1.72s1.31-.59,2.14-.59c.99,0,1.8.35,2.43,1.04Z" fill="#231f20" stroke-width="0"/><path d="M1468.89,126.85c0,1.12.24,1.94.71,2.46.47.52,1.22.78,2.23.78.92,0,1.82-.26,2.67-.79.86-.53,1.54-1.19,2.05-1.98v-12.8h2.77v17.39h-2.38l-.23-2.34c-.68.86-1.52,1.52-2.52,2-1,.47-2.02.71-3.05.71-1.65,0-2.9-.44-3.75-1.32-.85-.88-1.27-2.15-1.27-3.79v-12.64h2.77v12.34Z" fill="#231f20" stroke-width="0"/><path d="M1497.58,131.94c-.85.22-1.69.33-2.53.33-1.83,0-3.26-.48-4.29-1.44-1.04-.96-1.55-2.22-1.55-3.78v-10.36h-3.99v-2.18h3.99v-3.93l2.77-.33v4.26h6.04l-.36,2.18h-5.68v10.33c0,.99.26,1.73.79,2.21s1.37.73,2.54.73,2.3-.27,3.33-.83l1.09,1.88c-.59.4-1.32.7-2.16.92Z" fill="#231f20" stroke-width="0"/><path d="M1518.52,129.61c.22.32.58.56,1.09.71l-.69,1.98c-1.69-.22-2.75-1.04-3.17-2.48-.62.79-1.39,1.4-2.33,1.81-.94.42-1.97.63-3.12.63-1.74,0-3.11-.48-4.11-1.45-1-.97-1.5-2.27-1.5-3.89,0-1.78.7-3.16,2.1-4.12,1.4-.97,3.4-1.45,6.02-1.45h2.57v-1.42c0-1.23-.35-2.12-1.06-2.66-.7-.54-1.73-.81-3.07-.81s-2.83.3-4.52.89l-.76-2.11c2.04-.73,3.95-1.09,5.71-1.09,2.11,0,3.72.5,4.83,1.48,1.11.99,1.67,2.37,1.67,4.12v8.35c0,.68.11,1.18.33,1.5ZM1513.46,129.53c.78-.44,1.42-1.04,1.93-1.81v-4.46h-2.51c-1.85,0-3.18.31-3.99.92-.81.62-1.22,1.52-1.22,2.71,0,2.2,1.11,3.3,3.33,3.3.86,0,1.68-.22,2.46-.66Z" fill="#231f20" stroke-width="0"/><path d="M1537.18,131.94c-.85.22-1.69.33-2.53.33-1.83,0-3.26-.48-4.29-1.44-1.04-.96-1.55-2.22-1.55-3.78v-10.36h-3.99v-2.18h3.99v-3.93l2.77-.33v4.26h6.04l-.36,2.18h-5.68v10.33c0,.99.26,1.73.79,2.21s1.37.73,2.54.73,2.3-.27,3.33-.83l1.09,1.88c-.59.4-1.32.7-2.16.92Z" fill="#231f20" stroke-width="0"/><path d="M1549.03,128.5c.94.97,2.12,1.45,3.55,1.45.86,0,1.64-.13,2.36-.38.71-.25,1.48-.64,2.29-1.17l1.29,1.85c-.81.64-1.74,1.13-2.79,1.48s-2.1.53-3.15.53c-2.51,0-4.46-.82-5.86-2.46-1.4-1.64-2.1-3.83-2.1-6.58,0-1.74.31-3.29.92-4.67.62-1.37,1.5-2.45,2.64-3.23,1.14-.78,2.48-1.17,3.99-1.17,2.2,0,3.93.76,5.2,2.29,1.26,1.53,1.9,3.61,1.9,6.25,0,.51-.02,1-.07,1.48h-11.68c.07,1.91.57,3.36,1.5,4.32ZM1548.95,117.86c-.84.96-1.31,2.36-1.42,4.21h9.04c-.02-1.83-.42-3.22-1.19-4.19-.77-.97-1.83-1.45-3.17-1.45s-2.43.48-3.27,1.44Z" fill="#231f20" stroke-width="0"/><path d="M1569.6,126.21c.51,1.66,1.26,3.17,2.26,4.52s2.34,2.78,4.01,4.27l-1.42,1.52c-1.94-1.56-3.51-3.1-4.74-4.62s-2.16-3.21-2.8-5.08c-.65-1.87-.97-4.03-.97-6.47s.32-4.6.97-6.47c.65-1.87,1.58-3.56,2.8-5.08s2.8-3.06,4.74-4.62l1.42,1.52c-1.69,1.5-3.04,2.92-4.04,4.26s-1.75,2.84-2.24,4.5c-.49,1.66-.74,3.62-.74,5.89s.25,4.2.76,5.86Z" fill="#231f20" stroke-width="0"/><path d="M1494.3,171.6c-.68,2-1.62,3.6-2.81,4.78s-2.85,1.89-4.98,2.11l-.4-2.21c1.17-.2,2.09-.5,2.79-.91.69-.41,1.24-.91,1.63-1.52s.76-1.39,1.09-2.36h-.92l-6.04-17.39h2.94l4.98,15.28,4.92-15.28h2.87l-6.07,17.49Z" fill="#231f20" stroke-width="0"/><path d="M1538.52,159.29h-12.8v-2.38h12.8v2.38ZM1538.52,165.56h-12.8v-2.38h12.8v2.38Z" fill="#231f20" stroke-width="0"/><path d="M1563.66,171.5l6.4-9.17-5.64-8.22h3.3l4.03,6.47,4.06-6.47h3.2l-5.64,8.08,6.4,9.31h-3.37l-4.79-7.46-4.78,7.46h-3.17Z" fill="#231f20" stroke-width="0"/><path d="M1605.54,159.99h11.55v2.38h-11.55v-2.38Z" fill="#231f20" stroke-width="0"/><path d="M1658.19,154.79c.63.69.94,1.95.94,3.78v12.94h-2.54v-12.47c0-1.21-.08-2.03-.23-2.46-.15-.43-.53-.64-1.12-.64-1.12,0-2.13.69-3.04,2.08v13.5h-2.57v-12.47c0-1.21-.08-2.03-.23-2.46-.15-.43-.53-.64-1.12-.64-1.12,0-2.13.69-3.04,2.08v13.5h-2.54v-17.39h2.14l.2,2.05c.53-.77,1.08-1.36,1.67-1.78.58-.42,1.28-.63,2.1-.63,1.63,0,2.67.77,3.13,2.31.53-.75,1.09-1.32,1.68-1.72.59-.4,1.31-.59,2.15-.59.99,0,1.8.35,2.42,1.04Z" fill="#231f20" stroke-width="0"/><path d="M1672.92,169.29h4.88v2.21h-13v-2.21h5.35v-12.97h-5.18v-2.21h7.95v15.18ZM1672.2,146.54c.37.36.56.83.56,1.4s-.19,1.04-.56,1.4c-.37.36-.87.54-1.49.54s-1.07-.18-1.44-.54c-.36-.36-.54-.83-.54-1.4s.18-1.04.54-1.4c.36-.36.84-.54,1.44-.54s1.11.18,1.49.54Z" fill="#231f20" stroke-width="0"/><path d="M1683.91,154.11h2.38l.23,2.44c.68-.88,1.54-1.57,2.59-2.06,1.04-.49,2.09-.74,3.15-.74,3.26,0,4.88,1.72,4.88,5.15v12.61h-2.77v-10.56c0-1.3-.07-2.29-.21-2.97-.14-.68-.42-1.19-.84-1.52s-1.06-.5-1.91-.5c-.95,0-1.84.29-2.67.86-.84.57-1.52,1.25-2.05,2.05v12.64h-2.77v-17.39Z" fill="#231f20" stroke-width="0"/><path d="M1708.2,165.81c.51,1.66,1.26,3.17,2.26,4.52,1,1.35,2.34,2.78,4.01,4.27l-1.42,1.52c-1.94-1.56-3.52-3.1-4.74-4.62s-2.16-3.21-2.8-5.08c-.65-1.87-.97-4.03-.97-6.47s.32-4.6.97-6.47c.65-1.87,1.58-3.56,2.8-5.08s2.8-3.06,4.74-4.62l1.42,1.52c-1.69,1.5-3.04,2.92-4.04,4.26s-1.75,2.84-2.24,4.5-.74,3.62-.74,5.89.25,4.2.76,5.86Z" fill="#231f20" stroke-width="0"/><path d="M1722.06,171.5l6.4-9.17-5.64-8.22h3.3l4.03,6.47,4.06-6.47h3.2l-5.64,8.08,6.4,9.31h-3.37l-4.79-7.46-4.79,7.46h-3.17Z" fill="#231f20" stroke-width="0"/><path d="M1752.04,154.06c-.5-1.66-1.24-3.16-2.24-4.5-1-1.34-2.35-2.76-4.04-4.26l1.42-1.52c1.94,1.56,3.51,3.1,4.73,4.62,1.22,1.52,2.16,3.21,2.81,5.08.65,1.87.97,4.03.97,6.47s-.33,4.6-.97,6.47c-.65,1.87-1.58,3.56-2.81,5.08-1.22,1.52-2.8,3.06-4.73,4.62l-1.42-1.52c1.67-1.5,3.01-2.92,4.01-4.27,1-1.35,1.75-2.86,2.26-4.52.51-1.66.76-3.61.76-5.86s-.25-4.23-.74-5.89Z" fill="#231f20" stroke-width="0"/><path d="M1455.04,193.66c-.49-1.66-1.24-3.16-2.24-4.5s-2.35-2.76-4.04-4.26l1.42-1.52c1.94,1.56,3.51,3.1,4.74,4.62,1.22,1.52,2.16,3.21,2.8,5.08.65,1.87.97,4.03.97,6.47s-.32,4.6-.97,6.47c-.65,1.87-1.58,3.56-2.8,5.08-1.22,1.52-2.8,3.06-4.74,4.62l-1.42-1.52c1.67-1.5,3.01-2.92,4.01-4.27s1.75-2.86,2.26-4.52.76-3.61.76-5.86-.25-4.23-.74-5.89Z" fill="#231f20" stroke-width="0"/></g><g id="g"><rect x="186.75" y="156.22" width="80.9" height="80.9" fill="#4daf4a" stroke-width="0"/><path d="M229.45,212.36c0,2.43-.3,4.38-.9,5.85-.6,1.47-1.47,2.66-2.62,3.58-1.15.92-2.76,1.84-4.82,2.77l-1.35-3.35c1.3-.6,2.3-1.19,3-1.77.7-.58,1.23-1.4,1.58-2.45.35-1.05.53-2.49.53-4.32v-25.05h4.6v24.75ZM229.5,175.86c.6.6.9,1.35.9,2.25s-.3,1.64-.9,2.23c-.6.58-1.38.88-2.35.88s-1.7-.29-2.3-.88c-.6-.58-.9-1.33-.9-2.23s.3-1.65.9-2.25c.6-.6,1.37-.9,2.3-.9s1.75.3,2.35.9Z" fill="#fff" stroke-width="0"/><rect x="96.42" y="156.22" width="80.9" height="80.9" fill="#e41a1c" stroke-width="0"/><path d="M146.32,206.18c.37.52.92.91,1.65,1.17l-1.05,3.2c-1.37-.17-2.47-.55-3.3-1.15-.83-.6-1.45-1.53-1.85-2.8-1.77,2.63-4.38,3.95-7.85,3.95-2.6,0-4.65-.73-6.15-2.2-1.5-1.47-2.25-3.38-2.25-5.75,0-2.8,1.01-4.95,3.03-6.45,2.02-1.5,4.88-2.25,8.57-2.25h4.05v-1.95c0-1.87-.45-3.2-1.35-4-.9-.8-2.28-1.2-4.15-1.2s-4.3.47-7.1,1.4l-1.15-3.35c3.27-1.2,6.3-1.8,9.1-1.8,3.1,0,5.42.76,6.95,2.28,1.53,1.52,2.3,3.67,2.3,6.47v12.05c0,1.07.18,1.86.55,2.38ZM141.17,203.01v-6.05h-3.45c-4.87,0-7.3,1.8-7.3,5.4,0,1.57.38,2.75,1.15,3.55.77.8,1.9,1.2,3.4,1.2,2.63,0,4.7-1.37,6.2-4.1Z" fill="#fff" stroke-width="0"/><rect x="277.14" y="156.22" width="80.9" height="80.9" fill="#4d4d4d" stroke-width="0"/><path d="M322.91,180.51v33.45h-4.6v-28.55l-7.8,4.75-2-3.25,10.35-6.4h4.05Z" fill="#fff" stroke-width="0"/></g><g id="h"><rect x="186.75" y="246.58" width="80.9" height="80.9" fill="#4daf4a" stroke-width="0"/><path d="M229.45,302.71c0,2.43-.3,4.38-.9,5.85-.6,1.47-1.47,2.66-2.62,3.58-1.15.92-2.76,1.84-4.82,2.77l-1.35-3.35c1.3-.6,2.3-1.19,3-1.77.7-.58,1.23-1.4,1.58-2.45.35-1.05.53-2.49.53-4.32v-25.05h4.6v24.75ZM229.5,266.21c.6.6.9,1.35.9,2.25s-.3,1.64-.9,2.23c-.6.58-1.38.88-2.35.88s-1.7-.29-2.3-.88c-.6-.58-.9-1.33-.9-2.23s.3-1.65.9-2.25c.6-.6,1.37-.9,2.3-.9s1.75.3,2.35.9Z" fill="#fff" stroke-width="0"/><rect x="96.42" y="246.58" width="80.9" height="80.9" fill="#e41a1c" stroke-width="0"/><path d="M146.32,296.54c.37.52.92.91,1.65,1.17l-1.05,3.2c-1.37-.17-2.47-.55-3.3-1.15-.83-.6-1.45-1.53-1.85-2.8-1.77,2.63-4.38,3.95-7.85,3.95-2.6,0-4.65-.73-6.15-2.2-1.5-1.47-2.25-3.38-2.25-5.75,0-2.8,1.01-4.95,3.03-6.45,2.02-1.5,4.88-2.25,8.57-2.25h4.05v-1.95c0-1.87-.45-3.2-1.35-4-.9-.8-2.28-1.2-4.15-1.2s-4.3.47-7.1,1.4l-1.15-3.35c3.27-1.2,6.3-1.8,9.1-1.8,3.1,0,5.42.76,6.95,2.28,1.53,1.52,2.3,3.67,2.3,6.47v12.05c0,1.07.18,1.86.55,2.38ZM141.17,293.36v-6.05h-3.45c-4.87,0-7.3,1.8-7.3,5.4,0,1.57.38,2.75,1.15,3.55.77.8,1.9,1.2,3.4,1.2,2.63,0,4.7-1.37,6.2-4.1Z" fill="#fff" stroke-width="0"/><rect x="277.14" y="246.58" width="80.9" height="80.9" fill="#4d4d4d" stroke-width="0"/><path d="M321.88,271.56c1.52.8,2.69,1.89,3.53,3.27.83,1.38,1.25,2.94,1.25,4.68,0,2.03-.46,3.98-1.38,5.85-.92,1.87-2.33,3.88-4.23,6.05-1.9,2.17-4.78,5.18-8.65,9.05h15.05l-.55,3.85h-19.75v-3.65c4.47-4.63,7.63-8.02,9.5-10.18,1.87-2.15,3.2-4.02,4-5.62.8-1.6,1.2-3.32,1.2-5.15,0-1.73-.5-3.09-1.5-4.07-1-.98-2.33-1.48-4-1.48-1.37,0-2.57.28-3.6.85-1.03.57-2.13,1.5-3.3,2.8l-3-2.4c1.37-1.7,2.88-2.97,4.55-3.8,1.67-.83,3.53-1.25,5.6-1.25s3.76.4,5.27,1.2Z" fill="#fff" stroke-width="0"/></g><g id="i"><rect x="186.75" y="336.93" width="80.9" height="80.9" fill="#984ea3" stroke-width="0"/><path d="M223.75,357.17v37.5h-4.6v-36.95l4.6-.55ZM238.9,368.32l-9.7,11.65,10.8,14.7h-5.5l-10.45-14.4,9.7-11.95h5.15Z" fill="#fff" stroke-width="0"/><rect x="96.42" y="336.93" width="80.9" height="80.9" fill="#e41a1c" stroke-width="0"/><path d="M146.32,386.89c.37.52.92.91,1.65,1.17l-1.05,3.2c-1.37-.17-2.47-.55-3.3-1.15-.83-.6-1.45-1.53-1.85-2.8-1.77,2.63-4.38,3.95-7.85,3.95-2.6,0-4.65-.73-6.15-2.2-1.5-1.47-2.25-3.38-2.25-5.75,0-2.8,1.01-4.95,3.03-6.45,2.02-1.5,4.88-2.25,8.57-2.25h4.05v-1.95c0-1.87-.45-3.2-1.35-4-.9-.8-2.28-1.2-4.15-1.2s-4.3.47-7.1,1.4l-1.15-3.35c3.27-1.2,6.3-1.8,9.1-1.8,3.1,0,5.42.76,6.95,2.28,1.53,1.52,2.3,3.67,2.3,6.47v12.05c0,1.07.18,1.86.55,2.38ZM141.17,383.72v-6.05h-3.45c-4.87,0-7.3,1.8-7.3,5.4,0,1.57.38,2.75,1.15,3.55.77.8,1.9,1.2,3.4,1.2,2.63,0,4.7-1.37,6.2-4.1Z" fill="#fff" stroke-width="0"/><rect x="277.14" y="336.93" width="80.9" height="80.9" fill="#4d4d4d" stroke-width="0"/><path d="M321.69,361.87c1.48.77,2.62,1.8,3.4,3.1s1.18,2.72,1.18,4.25c0,2.03-.59,3.71-1.78,5.03-1.18,1.32-2.76,2.21-4.72,2.67,2.23.2,4.05,1,5.45,2.4s2.1,3.3,2.1,5.7c0,1.93-.47,3.68-1.4,5.25-.93,1.57-2.27,2.79-4,3.67s-3.73,1.33-6,1.33c-2.03,0-3.9-.38-5.6-1.12s-3.18-1.88-4.45-3.38l2.75-2.55c1.1,1.13,2.22,1.97,3.38,2.5s2.41.8,3.78.8c2.1,0,3.75-.59,4.95-1.77,1.2-1.18,1.8-2.78,1.8-4.78,0-2.2-.57-3.75-1.7-4.65-1.13-.9-2.78-1.35-4.95-1.35h-2.5l.55-3.55h1.7c1.73,0,3.17-.52,4.33-1.55,1.15-1.03,1.72-2.48,1.72-4.35,0-1.57-.5-2.81-1.5-3.72s-2.35-1.38-4.05-1.38c-1.3,0-2.49.23-3.58.7s-2.19,1.23-3.33,2.3l-2.4-2.75c2.83-2.63,6.02-3.95,9.55-3.95,2.07,0,3.84.38,5.33,1.15Z" fill="#fff" stroke-width="0"/></g><g id="j"><rect x="186.75" y="427.29" width="80.9" height="80.9" fill="#4daf4a" stroke-width="0"/><path d="M229.45,483.42c0,2.43-.3,4.38-.9,5.85-.6,1.47-1.47,2.66-2.62,3.58-1.15.92-2.76,1.84-4.82,2.77l-1.35-3.35c1.3-.6,2.3-1.19,3-1.78s1.23-1.4,1.58-2.45c.35-1.05.53-2.49.53-4.32v-25.05h4.6v24.75ZM229.5,446.92c.6.6.9,1.35.9,2.25s-.3,1.64-.9,2.23c-.6.58-1.38.88-2.35.88s-1.7-.29-2.3-.88c-.6-.58-.9-1.33-.9-2.23s.3-1.65.9-2.25,1.37-.9,2.3-.9,1.75.3,2.35.9Z" fill="#fff" stroke-width="0"/><rect x="96.42" y="427.29" width="80.9" height="80.9" fill="#377eb8" stroke-width="0"/><path d="M145.97,461.7c1.77,2.42,2.65,5.79,2.65,10.12,0,2.73-.42,5.14-1.25,7.22-.83,2.08-2.03,3.7-3.6,4.85-1.57,1.15-3.4,1.72-5.5,1.72-2.77,0-5.1-1.17-7-3.5l-.45,2.9h-4.05v-36.95l4.6-.55v14.45c1.9-2.6,4.38-3.9,7.45-3.9s5.38,1.21,7.15,3.62ZM141.95,479.5c1.15-1.65,1.73-4.21,1.73-7.67s-.53-6.14-1.6-7.72c-1.07-1.58-2.58-2.38-4.55-2.38-2.33,0-4.38,1.37-6.15,4.1v12.6c.7,1.1,1.56,1.97,2.58,2.6,1.02.63,2.09.95,3.23.95,2.03,0,3.62-.83,4.77-2.48Z" fill="#fff" stroke-width="0"/><rect x="277.14" y="427.29" width="80.9" height="80.9" fill="#4d4d4d" stroke-width="0"/><path d="M329.38,473.12v3.65h-4.35v8.25h-4.45v-8.25h-14.3v-3.3l10.05-22.4,3.85,1.6-9.05,20.45h9.5l.4-9h4v9h4.35Z" fill="#fff" stroke-width="0"/></g><g id="k"><rect x="186.75" y="517.64" width="80.9" height="80.9" fill="#984ea3" stroke-width="0"/><path d="M223.75,537.88v37.5h-4.6v-36.95l4.6-.55ZM238.9,549.03l-9.7,11.65,10.8,14.7h-5.5l-10.45-14.4,9.7-11.95h5.15Z" fill="#fff" stroke-width="0"/><rect x="96.42" y="517.64" width="80.9" height="80.9" fill="#377eb8" stroke-width="0"/><path d="M145.97,552.05c1.77,2.42,2.65,5.79,2.65,10.12,0,2.73-.42,5.14-1.25,7.22-.83,2.08-2.03,3.7-3.6,4.85-1.57,1.15-3.4,1.72-5.5,1.72-2.77,0-5.1-1.17-7-3.5l-.45,2.9h-4.05v-36.95l4.6-.55v14.45c1.9-2.6,4.38-3.9,7.45-3.9s5.38,1.21,7.15,3.62ZM141.95,569.85c1.15-1.65,1.73-4.21,1.73-7.67s-.53-6.14-1.6-7.72c-1.07-1.58-2.58-2.38-4.55-2.38-2.33,0-4.38,1.37-6.15,4.1v12.6c.7,1.1,1.56,1.97,2.58,2.6,1.02.63,2.09.95,3.23.95,2.03,0,3.62-.83,4.77-2.48Z" fill="#fff" stroke-width="0"/><rect x="277.14" y="517.64" width="80.9" height="80.9" fill="#4d4d4d" stroke-width="0"/><path d="M326.06,545.53h-13.05v9.85c1.7-.87,3.48-1.3,5.35-1.3,2.87,0,5.17.94,6.9,2.82,1.73,1.88,2.6,4.48,2.6,7.78,0,2.2-.48,4.16-1.45,5.88s-2.32,3.05-4.07,4-3.78,1.42-6.08,1.42c-2.03,0-3.85-.36-5.45-1.08-1.6-.72-3.08-1.77-4.45-3.17l2.7-2.65c1.07,1.07,2.17,1.86,3.3,2.38,1.13.52,2.42.77,3.85.77,2.13,0,3.81-.67,5.02-2,1.22-1.33,1.83-3.22,1.83-5.65s-.55-4.2-1.65-5.3-2.58-1.65-4.45-1.65c-.87,0-1.67.09-2.4.27-.73.18-1.52.48-2.35.88h-3.6v-16.85h18.1l-.65,3.6Z" fill="#fff" stroke-width="0"/></g><g id="l"><rect x="186.75" y="608" width="80.9" height="80.9" fill="#984ea3" stroke-width="0"/><path d="M223.75,628.24v37.5h-4.6v-36.95l4.6-.55ZM238.9,639.38l-9.7,11.65,10.8,14.7h-5.5l-10.45-14.4,9.7-11.95h5.15Z" fill="#fff" stroke-width="0"/><rect x="96.42" y="608" width="80.9" height="80.9" fill="#377eb8" stroke-width="0"/><path d="M145.97,642.41c1.77,2.42,2.65,5.79,2.65,10.12,0,2.73-.42,5.14-1.25,7.22-.83,2.08-2.03,3.7-3.6,4.85-1.57,1.15-3.4,1.72-5.5,1.72-2.77,0-5.1-1.17-7-3.5l-.45,2.9h-4.05v-36.95l4.6-.55v14.45c1.9-2.6,4.38-3.9,7.45-3.9s5.38,1.21,7.15,3.62ZM141.95,660.21c1.15-1.65,1.73-4.21,1.73-7.67s-.53-6.14-1.6-7.72c-1.07-1.58-2.58-2.38-4.55-2.38-2.33,0-4.38,1.37-6.15,4.1v12.6c.7,1.1,1.56,1.97,2.58,2.6,1.02.63,2.09.95,3.23.95,2.03,0,3.62-.83,4.77-2.48Z" fill="#fff" stroke-width="0"/><rect x="277.14" y="608" width="80.9" height="80.9" fill="#4d4d4d" stroke-width="0"/><path d="M324.31,644.94c1.4.8,2.52,2,3.35,3.6.83,1.6,1.25,3.55,1.25,5.85s-.48,4.46-1.43,6.28c-.95,1.82-2.23,3.22-3.85,4.2-1.62.98-3.41,1.47-5.38,1.47-3.9,0-6.75-1.44-8.55-4.33-1.8-2.88-2.7-6.88-2.7-11.97,0-3.63.51-6.83,1.53-9.58,1.02-2.75,2.47-4.88,4.38-6.4,1.9-1.52,4.15-2.28,6.75-2.28s4.83.68,6.9,2.05l-1.8,3.05c-1.57-.97-3.28-1.45-5.15-1.45-2.4,0-4.3,1.15-5.7,3.45-1.4,2.3-2.17,5.38-2.3,9.25,2.07-2.93,4.75-4.4,8.05-4.4,1.7,0,3.25.4,4.65,1.2ZM322.71,660.49c1.03-1.47,1.55-3.45,1.55-5.95,0-4.77-1.8-7.15-5.4-7.15-1.47,0-2.82.41-4.05,1.23-1.23.82-2.28,1.94-3.15,3.38.1,3.67.67,6.37,1.72,8.1,1.05,1.73,2.67,2.6,4.88,2.6,1.93,0,3.42-.73,4.45-2.2Z" fill="#fff" stroke-width="0"/></g><g id="m"><rect x="186.75" y="698.35" width="80.9" height="80.9" fill="#4daf4a" stroke-width="0"/><path d="M229.45,754.49c0,2.43-.3,4.38-.9,5.85-.6,1.47-1.47,2.66-2.62,3.58-1.15.92-2.76,1.84-4.82,2.78l-1.35-3.35c1.3-.6,2.3-1.19,3-1.77.7-.58,1.23-1.4,1.58-2.45s.53-2.49.53-4.33v-25.05h4.6v24.75ZM229.5,717.99c.6.6.9,1.35.9,2.25s-.3,1.64-.9,2.22c-.6.58-1.38.88-2.35.88s-1.7-.29-2.3-.88c-.6-.58-.9-1.33-.9-2.22s.3-1.65.9-2.25c.6-.6,1.37-.9,2.3-.9s1.75.3,2.35.9Z" fill="#fff" stroke-width="0"/><rect x="96.42" y="698.35" width="80.9" height="80.9" fill="#ff7f00" stroke-width="0"/><path d="M143.57,725.82c1.3.45,2.55,1.17,3.75,2.17l-2.2,2.9c-.93-.67-1.84-1.16-2.73-1.47-.88-.32-1.86-.47-2.92-.47-2.13,0-3.79.85-4.97,2.55-1.18,1.7-1.78,4.22-1.78,7.55s.58,5.79,1.75,7.38c1.17,1.58,2.83,2.38,5,2.38,1.03,0,1.98-.16,2.85-.47.87-.32,1.83-.83,2.9-1.53l2.1,3c-2.4,1.93-5.08,2.9-8.05,2.9-3.57,0-6.38-1.2-8.42-3.6-2.05-2.4-3.08-5.72-3.08-9.95,0-2.8.47-5.25,1.4-7.35.93-2.1,2.26-3.73,3.97-4.9,1.72-1.17,3.76-1.75,6.12-1.75,1.57,0,3,.23,4.3.68Z" fill="#fff" stroke-width="0"/><rect x="277.14" y="698.35" width="80.9" height="80.9" fill="#4d4d4d" stroke-width="0"/><path d="M327.19,722.64v3.45l-12.5,30.5-4.2-1.4,12.05-28.8h-14.8v-3.75h19.45Z" fill="#fff" stroke-width="0"/></g><g id="n"><rect x="186.75" y="788.71" width="80.9" height="80.9" fill="#4daf4a" stroke-width="0"/><path d="M229.45,844.85c0,2.43-.3,4.38-.9,5.85-.6,1.47-1.47,2.66-2.62,3.58-1.15.92-2.76,1.84-4.82,2.78l-1.35-3.35c1.3-.6,2.3-1.19,3-1.77.7-.58,1.23-1.4,1.58-2.45s.53-2.49.53-4.33v-25.05h4.6v24.75ZM229.5,808.35c.6.6.9,1.35.9,2.25s-.3,1.64-.9,2.22c-.6.58-1.38.88-2.35.88s-1.7-.29-2.3-.88c-.6-.58-.9-1.33-.9-2.22s.3-1.65.9-2.25c.6-.6,1.37-.9,2.3-.9s1.75.3,2.35.9Z" fill="#fff" stroke-width="0"/><rect x="96.42" y="788.71" width="80.9" height="80.9" fill="#ff7f00" stroke-width="0"/><path d="M143.57,816.17c1.3.45,2.55,1.17,3.75,2.17l-2.2,2.9c-.93-.67-1.84-1.16-2.73-1.47-.88-.32-1.86-.47-2.92-.47-2.13,0-3.79.85-4.97,2.55-1.18,1.7-1.78,4.22-1.78,7.55s.58,5.79,1.75,7.38c1.17,1.58,2.83,2.38,5,2.38,1.03,0,1.98-.16,2.85-.47.87-.32,1.83-.83,2.9-1.53l2.1,3c-2.4,1.93-5.08,2.9-8.05,2.9-3.57,0-6.38-1.2-8.42-3.6-2.05-2.4-3.08-5.72-3.08-9.95,0-2.8.47-5.25,1.4-7.35.93-2.1,2.26-3.73,3.97-4.9,1.72-1.17,3.76-1.75,6.12-1.75,1.57,0,3,.23,4.3.68Z" fill="#fff" stroke-width="0"/><rect x="277.14" y="788.71" width="80.9" height="80.9" fill="#4d4d4d" stroke-width="0"/><path d="M329.11,837.5c0,1.83-.49,3.48-1.47,4.93-.98,1.45-2.36,2.58-4.12,3.4-1.77.82-3.77,1.23-6,1.23s-4.27-.4-6-1.2c-1.73-.8-3.08-1.92-4.03-3.35-.95-1.43-1.42-3.07-1.42-4.9,0-2.07.56-3.8,1.67-5.2,1.12-1.4,2.76-2.57,4.92-3.5-1.77-.9-3.07-1.99-3.92-3.28-.85-1.28-1.27-2.79-1.27-4.52s.47-3.35,1.42-4.65,2.2-2.28,3.75-2.95c1.55-.67,3.21-1,4.97-1s3.38.32,4.92.95c1.55.63,2.81,1.59,3.78,2.88.97,1.28,1.45,2.83,1.45,4.62,0,1.67-.47,3.1-1.4,4.3-.93,1.2-2.37,2.28-4.3,3.25,4.7,1.9,7.05,4.9,7.05,9ZM322.49,841.8c1.22-1.07,1.83-2.48,1.83-4.25,0-1.2-.23-2.21-.7-3.03-.47-.82-1.22-1.53-2.25-2.15-1.03-.62-2.48-1.24-4.35-1.88l-1.25-.45c-1.67.8-2.9,1.81-3.7,3.02-.8,1.22-1.2,2.73-1.2,4.53s.6,3.26,1.8,4.27c1.2,1.02,2.83,1.53,4.9,1.53s3.71-.53,4.92-1.6ZM313.49,817.3c-1.02.9-1.52,2.18-1.52,3.85s.49,2.82,1.47,3.65c.98.83,2.56,1.6,4.72,2.3l.85.3c1.5-.87,2.58-1.78,3.25-2.75.67-.97,1-2.15,1-3.55,0-1.57-.49-2.82-1.48-3.75-.98-.93-2.38-1.4-4.17-1.4s-3.11.45-4.12,1.35Z" fill="#fff" stroke-width="0"/></g><g id="o"><rect x="186.75" y="879.06" width="80.9" height="80.9" fill="#984ea3" stroke-width="0"/><path d="M223.75,899.3v37.5h-4.6v-36.95l4.6-.55ZM238.9,910.45l-9.7,11.65,10.8,14.7h-5.5l-10.45-14.4,9.7-11.95h5.15Z" fill="#fff" stroke-width="0"/><rect x="96.42" y="879.06" width="80.9" height="80.9" fill="#ff7f00" stroke-width="0"/><path d="M143.57,906.53c1.3.45,2.55,1.17,3.75,2.17l-2.2,2.9c-.93-.67-1.84-1.16-2.73-1.47s-1.86-.48-2.92-.48c-2.13,0-3.79.85-4.97,2.55-1.18,1.7-1.78,4.22-1.78,7.55s.58,5.79,1.75,7.38,2.83,2.38,5,2.38c1.03,0,1.98-.16,2.85-.48.87-.32,1.83-.83,2.9-1.52l2.1,3c-2.4,1.93-5.08,2.9-8.05,2.9-3.57,0-6.38-1.2-8.42-3.6-2.05-2.4-3.08-5.72-3.08-9.95,0-2.8.47-5.25,1.4-7.35.93-2.1,2.26-3.73,3.97-4.9,1.72-1.17,3.76-1.75,6.12-1.75,1.57,0,3,.22,4.3.67Z" fill="#fff" stroke-width="0"/><rect x="277.14" y="879.06" width="80.9" height="80.9" fill="#4d4d4d" stroke-width="0"/><path d="M325.46,906.33c1.83,2.32,2.75,5.49,2.75,9.53,0,4.57-.62,8.24-1.85,11.03-1.23,2.78-3.12,5-5.65,6.65-2.53,1.65-5.97,3.11-10.3,4.38l-1.05-3.45c4.47-1.27,7.89-2.98,10.27-5.15,2.38-2.17,3.66-5.05,3.83-8.65-.77,1.2-1.8,2.17-3.1,2.9-1.3.73-2.77,1.1-4.4,1.1-1.73,0-3.3-.44-4.7-1.33-1.4-.88-2.51-2.13-3.33-3.75-.82-1.62-1.22-3.51-1.22-5.67s.48-4.23,1.45-5.9c.97-1.67,2.26-2.94,3.88-3.83,1.62-.88,3.41-1.33,5.38-1.33,3.53,0,6.22,1.16,8.05,3.47ZM323.56,916.9c.07-3.7-.39-6.36-1.38-7.97-.98-1.62-2.54-2.42-4.67-2.42-1.97,0-3.48.65-4.55,1.95-1.07,1.3-1.6,3.15-1.6,5.55s.5,4.09,1.5,5.27c1,1.18,2.35,1.78,4.05,1.78,2.63,0,4.85-1.38,6.65-4.15Z" fill="#fff" stroke-width="0"/></g><g id="p"><path d="M115.15,143.68l1.2,1.65c-.66.58-1.48,1.04-2.46,1.38-.98.34-1.93.51-2.85.51-2.34,0-4.17-.73-5.47-2.21-1.31-1.47-1.96-3.45-1.96-5.96,0-1.58.29-3,.88-4.26.59-1.26,1.44-2.25,2.56-2.97,1.12-.72,2.45-1.08,3.99-1.08,2.04,0,3.8.62,5.28,1.86l-1.23,1.65c-1.38-.92-2.74-1.38-4.08-1.38-1.42,0-2.56.52-3.41,1.57-.85,1.05-1.27,2.59-1.27,4.6s.42,3.52,1.27,4.52c.85.99,2,1.48,3.44,1.48s2.75-.46,4.11-1.38Z" fill="#000" stroke-width="0"/><path d="M133.51,144.81c.2.29.53.51.99.65l-.63,1.8c-1.54-.2-2.5-.95-2.88-2.25-.56.72-1.26,1.27-2.12,1.65-.85.38-1.79.57-2.83.57-1.58,0-2.83-.44-3.74-1.32-.91-.88-1.37-2.06-1.37-3.54,0-1.62.63-2.87,1.91-3.75,1.27-.88,3.09-1.32,5.47-1.32h2.34v-1.29c0-1.12-.32-1.92-.96-2.42-.64-.49-1.57-.73-2.79-.73s-2.57.27-4.11.81l-.69-1.92c1.86-.66,3.59-.99,5.19-.99,1.92,0,3.38.45,4.39,1.35s1.52,2.15,1.52,3.75v7.59c0,.62.1,1.08.3,1.37ZM128.91,144.73c.71-.4,1.29-.95,1.75-1.65v-4.05h-2.28c-1.68,0-2.89.28-3.63.84-.74.56-1.11,1.38-1.11,2.46,0,2,1.01,3,3.03,3,.78,0,1.53-.2,2.24-.6Z" fill="#000" stroke-width="0"/><path d="M150.48,146.92c-.77.2-1.54.3-2.29.3-1.66,0-2.96-.44-3.9-1.31-.94-.87-1.41-2.01-1.41-3.44v-9.42h-3.63v-1.98h3.63v-3.57l2.52-.3v3.87h5.49l-.33,1.98h-5.16v9.39c0,.9.24,1.57.72,2.01.48.44,1.25.66,2.31.66s2.09-.25,3.03-.75l.99,1.71c-.54.36-1.2.64-1.96.84Z" fill="#000" stroke-width="0"/><path d="M170.38,144.85v2.04h-11.91v-2.04h5.07v-15.87l-4.71,2.85-1.11-1.77,6.15-3.84h2.22v18.63h4.29Z" fill="#000" stroke-width="0"/><path d="M205.48,143.68l1.2,1.65c-.66.58-1.48,1.04-2.46,1.38s-1.93.51-2.85.51c-2.34,0-4.17-.73-5.48-2.21-1.31-1.47-1.96-3.45-1.96-5.96,0-1.58.29-3,.89-4.26.59-1.26,1.44-2.25,2.56-2.97,1.12-.72,2.45-1.08,3.99-1.08,2.04,0,3.8.62,5.28,1.86l-1.23,1.65c-1.38-.92-2.74-1.38-4.08-1.38-1.42,0-2.55.52-3.41,1.57-.85,1.05-1.27,2.59-1.27,4.6s.42,3.52,1.27,4.52c.85.99,2,1.48,3.44,1.48s2.75-.46,4.11-1.38Z" fill="#000" stroke-width="0"/><path d="M223.84,144.81c.2.29.53.51.99.65l-.63,1.8c-1.54-.2-2.5-.95-2.88-2.25-.56.72-1.26,1.27-2.12,1.65-.85.38-1.79.57-2.83.57-1.58,0-2.83-.44-3.73-1.32-.91-.88-1.37-2.06-1.37-3.54,0-1.62.63-2.87,1.91-3.75,1.27-.88,3.09-1.32,5.47-1.32h2.34v-1.29c0-1.12-.32-1.92-.96-2.42-.64-.49-1.57-.73-2.79-.73s-2.57.27-4.11.81l-.69-1.92c1.86-.66,3.59-.99,5.19-.99,1.92,0,3.38.45,4.39,1.35s1.51,2.15,1.51,3.75v7.59c0,.62.1,1.08.3,1.37ZM219.24,144.73c.71-.4,1.29-.95,1.75-1.65v-4.05h-2.28c-1.68,0-2.89.28-3.63.84-.74.56-1.11,1.38-1.11,2.46,0,2,1.01,3,3.03,3,.78,0,1.53-.2,2.24-.6Z" fill="#000" stroke-width="0"/><path d="M240.81,146.92c-.77.2-1.54.3-2.29.3-1.66,0-2.96-.44-3.9-1.31-.94-.87-1.41-2.01-1.41-3.44v-9.42h-3.63v-1.98h3.63v-3.57l2.52-.3v3.87h5.49l-.33,1.98h-5.16v9.39c0,.9.24,1.57.72,2.01.48.44,1.25.66,2.31.66s2.09-.25,3.03-.75l.99,1.71c-.54.36-1.2.64-1.96.84Z" fill="#000" stroke-width="0"/><path d="M256.59,126.64c.95.5,1.67,1.19,2.17,2.06.5.87.75,1.85.75,2.95,0,1.28-.29,2.52-.88,3.72s-1.54,2.52-2.83,3.94c-1.3,1.43-3.14,3.24-5.52,5.42h9.72l-.3,2.16h-12.3v-2.04c2.7-2.58,4.71-4.6,6.02-6.06,1.31-1.46,2.21-2.71,2.71-3.75.5-1.04.75-2.14.75-3.3s-.33-2.07-.99-2.73c-.66-.66-1.57-.99-2.73-.99-.98,0-1.8.17-2.45.5-.65.33-1.32.9-2,1.69l-1.74-1.35c.82-1.02,1.74-1.77,2.75-2.25s2.19-.72,3.55-.72c1.26,0,2.37.25,3.32.75Z" fill="#000" stroke-width="0"/><path d="M310.27,146.89l5.82-8.34-5.13-7.47h3l3.66,5.88,3.69-5.88h2.91l-5.13,7.35,5.82,8.46h-3.06l-4.35-6.78-4.35,6.78h-2.88Z" fill="#000" stroke-width="0"/></g><g id="q"><rect x="617.8" y="156.22" width="80.9" height="80.9" fill="#4daf4a" stroke-width="0"/><path d="M660.5,212.36c0,2.43-.3,4.38-.9,5.85-.6,1.47-1.47,2.66-2.62,3.58-1.15.92-2.76,1.84-4.82,2.77l-1.35-3.35c1.3-.6,2.3-1.19,3-1.77.7-.58,1.23-1.4,1.58-2.45.35-1.05.53-2.49.53-4.32v-25.05h4.6v24.75ZM660.55,175.86c.6.6.9,1.35.9,2.25s-.3,1.64-.9,2.23c-.6.58-1.38.88-2.35.88s-1.7-.29-2.3-.88c-.6-.58-.9-1.33-.9-2.23s.3-1.65.9-2.25c.6-.6,1.37-.9,2.3-.9s1.75.3,2.35.9Z" fill="#fff" stroke-width="0"/><rect x="527.47" y="156.22" width="80.9" height="80.9" fill="#e41a1c" stroke-width="0"/><path d="M577.37,206.18c.37.52.92.91,1.65,1.17l-1.05,3.2c-1.37-.17-2.47-.55-3.3-1.15-.83-.6-1.45-1.53-1.85-2.8-1.77,2.63-4.38,3.95-7.85,3.95-2.6,0-4.65-.73-6.15-2.2-1.5-1.47-2.25-3.38-2.25-5.75,0-2.8,1.01-4.95,3.03-6.45,2.02-1.5,4.88-2.25,8.57-2.25h4.05v-1.95c0-1.87-.45-3.2-1.35-4-.9-.8-2.28-1.2-4.15-1.2s-4.3.47-7.1,1.4l-1.15-3.35c3.27-1.2,6.3-1.8,9.1-1.8,3.1,0,5.42.76,6.95,2.28,1.53,1.52,2.3,3.67,2.3,6.47v12.05c0,1.07.18,1.86.55,2.38ZM572.22,203.01v-6.05h-3.45c-4.87,0-7.3,1.8-7.3,5.4,0,1.57.38,2.75,1.15,3.55.77.8,1.9,1.2,3.4,1.2,2.63,0,4.7-1.37,6.2-4.1Z" fill="#fff" stroke-width="0"/><rect x="708.18" y="156.22" width="80.9" height="80.9" fill="#4d4d4d" stroke-width="0"/><path d="M753.95,180.51v33.45h-4.6v-28.55l-7.8,4.75-2-3.25,10.35-6.4h4.05Z" fill="#fff" stroke-width="0"/></g><g id="r"><rect x="617.8" y="246.58" width="80.9" height="80.9" fill="#4daf4a" stroke-width="0"/><path d="M660.5,302.71c0,2.43-.3,4.38-.9,5.85-.6,1.47-1.47,2.66-2.62,3.58-1.15.92-2.76,1.84-4.82,2.77l-1.35-3.35c1.3-.6,2.3-1.19,3-1.77.7-.58,1.23-1.4,1.58-2.45.35-1.05.53-2.49.53-4.32v-25.05h4.6v24.75ZM660.55,266.21c.6.6.9,1.35.9,2.25s-.3,1.64-.9,2.23c-.6.58-1.38.88-2.35.88s-1.7-.29-2.3-.88c-.6-.58-.9-1.33-.9-2.23s.3-1.65.9-2.25c.6-.6,1.37-.9,2.3-.9s1.75.3,2.35.9Z" fill="#fff" stroke-width="0"/><rect x="527.47" y="246.58" width="80.9" height="80.9" fill="#e41a1c" stroke-width="0"/><path d="M577.37,296.54c.37.52.92.91,1.65,1.17l-1.05,3.2c-1.37-.17-2.47-.55-3.3-1.15-.83-.6-1.45-1.53-1.85-2.8-1.77,2.63-4.38,3.95-7.85,3.95-2.6,0-4.65-.73-6.15-2.2-1.5-1.47-2.25-3.38-2.25-5.75,0-2.8,1.01-4.95,3.03-6.45,2.02-1.5,4.88-2.25,8.57-2.25h4.05v-1.95c0-1.87-.45-3.2-1.35-4-.9-.8-2.28-1.2-4.15-1.2s-4.3.47-7.1,1.4l-1.15-3.35c3.27-1.2,6.3-1.8,9.1-1.8,3.1,0,5.42.76,6.95,2.28,1.53,1.52,2.3,3.67,2.3,6.47v12.05c0,1.07.18,1.86.55,2.38ZM572.22,293.36v-6.05h-3.45c-4.87,0-7.3,1.8-7.3,5.4,0,1.57.38,2.75,1.15,3.55.77.8,1.9,1.2,3.4,1.2,2.63,0,4.7-1.37,6.2-4.1Z" fill="#fff" stroke-width="0"/><rect x="708.18" y="246.58" width="80.9" height="80.9" fill="#4d4d4d" stroke-width="0"/><path d="M752.93,271.56c1.52.8,2.69,1.89,3.53,3.27.83,1.38,1.25,2.94,1.25,4.68,0,2.03-.46,3.98-1.38,5.85-.92,1.87-2.33,3.88-4.23,6.05-1.9,2.17-4.78,5.18-8.65,9.05h15.05l-.55,3.85h-19.75v-3.65c4.47-4.63,7.63-8.02,9.5-10.18,1.87-2.15,3.2-4.02,4-5.62.8-1.6,1.2-3.32,1.2-5.15,0-1.73-.5-3.09-1.5-4.07-1-.98-2.33-1.48-4-1.48-1.37,0-2.57.28-3.6.85-1.03.57-2.13,1.5-3.3,2.8l-3-2.4c1.37-1.7,2.88-2.97,4.55-3.8,1.67-.83,3.53-1.25,5.6-1.25s3.76.4,5.27,1.2Z" fill="#fff" stroke-width="0"/></g><g id="s"><rect x="617.8" y="336.93" width="80.9" height="80.9" fill="#984ea3" stroke-width="0"/><path d="M654.8,357.17v37.5h-4.6v-36.95l4.6-.55ZM669.95,368.32l-9.7,11.65,10.8,14.7h-5.5l-10.45-14.4,9.7-11.95h5.15Z" fill="#fff" stroke-width="0"/><rect x="527.47" y="336.93" width="80.9" height="80.9" fill="#e41a1c" stroke-width="0"/><path d="M577.37,386.89c.37.52.92.91,1.65,1.17l-1.05,3.2c-1.37-.17-2.47-.55-3.3-1.15-.83-.6-1.45-1.53-1.85-2.8-1.77,2.63-4.38,3.95-7.85,3.95-2.6,0-4.65-.73-6.15-2.2-1.5-1.47-2.25-3.38-2.25-5.75,0-2.8,1.01-4.95,3.03-6.45,2.02-1.5,4.88-2.25,8.57-2.25h4.05v-1.95c0-1.87-.45-3.2-1.35-4-.9-.8-2.28-1.2-4.15-1.2s-4.3.47-7.1,1.4l-1.15-3.35c3.27-1.2,6.3-1.8,9.1-1.8,3.1,0,5.42.76,6.95,2.28,1.53,1.52,2.3,3.67,2.3,6.47v12.05c0,1.07.18,1.86.55,2.38ZM572.22,383.72v-6.05h-3.45c-4.87,0-7.3,1.8-7.3,5.4,0,1.57.38,2.75,1.15,3.55.77.8,1.9,1.2,3.4,1.2,2.63,0,4.7-1.37,6.2-4.1Z" fill="#fff" stroke-width="0"/><rect x="708.18" y="336.93" width="80.9" height="80.9" fill="#4d4d4d" stroke-width="0"/><path d="M752.73,361.87c1.48.77,2.62,1.8,3.4,3.1s1.18,2.72,1.18,4.25c0,2.03-.59,3.71-1.78,5.03-1.18,1.32-2.76,2.21-4.72,2.67,2.23.2,4.05,1,5.45,2.4s2.1,3.3,2.1,5.7c0,1.93-.47,3.68-1.4,5.25-.93,1.57-2.27,2.79-4,3.67s-3.73,1.33-6,1.33c-2.03,0-3.9-.38-5.6-1.12s-3.18-1.88-4.45-3.38l2.75-2.55c1.1,1.13,2.22,1.97,3.38,2.5s2.41.8,3.78.8c2.1,0,3.75-.59,4.95-1.77,1.2-1.18,1.8-2.78,1.8-4.78,0-2.2-.57-3.75-1.7-4.65-1.13-.9-2.78-1.35-4.95-1.35h-2.5l.55-3.55h1.7c1.73,0,3.17-.52,4.33-1.55,1.15-1.03,1.72-2.48,1.72-4.35,0-1.57-.5-2.81-1.5-3.72s-2.35-1.38-4.05-1.38c-1.3,0-2.49.23-3.58.7s-2.19,1.23-3.33,2.3l-2.4-2.75c2.83-2.63,6.02-3.95,9.55-3.95,2.07,0,3.84.38,5.33,1.15Z" fill="#fff" stroke-width="0"/></g><g id="t"><rect x="617.8" y="427.29" width="80.9" height="80.9" fill="#4daf4a" stroke-width="0"/><path d="M660.5,483.42c0,2.43-.3,4.38-.9,5.85-.6,1.47-1.47,2.66-2.62,3.58-1.15.92-2.76,1.84-4.82,2.77l-1.35-3.35c1.3-.6,2.3-1.19,3-1.78s1.23-1.4,1.58-2.45c.35-1.05.53-2.49.53-4.32v-25.05h4.6v24.75ZM660.55,446.92c.6.6.9,1.35.9,2.25s-.3,1.64-.9,2.23c-.6.58-1.38.88-2.35.88s-1.7-.29-2.3-.88c-.6-.58-.9-1.33-.9-2.23s.3-1.65.9-2.25,1.37-.9,2.3-.9,1.75.3,2.35.9Z" fill="#fff" stroke-width="0"/><rect x="527.47" y="427.29" width="80.9" height="80.9" fill="#377eb8" stroke-width="0"/><path d="M577.02,461.7c1.77,2.42,2.65,5.79,2.65,10.12,0,2.73-.42,5.14-1.25,7.22-.83,2.08-2.03,3.7-3.6,4.85-1.57,1.15-3.4,1.72-5.5,1.72-2.77,0-5.1-1.17-7-3.5l-.45,2.9h-4.05v-36.95l4.6-.55v14.45c1.9-2.6,4.38-3.9,7.45-3.9s5.38,1.21,7.15,3.62ZM572.99,479.5c1.15-1.65,1.73-4.21,1.73-7.67s-.53-6.14-1.6-7.72c-1.07-1.58-2.58-2.38-4.55-2.38-2.33,0-4.38,1.37-6.15,4.1v12.6c.7,1.1,1.56,1.97,2.58,2.6,1.02.63,2.09.95,3.23.95,2.03,0,3.62-.83,4.77-2.48Z" fill="#fff" stroke-width="0"/><rect x="708.18" y="427.29" width="80.9" height="80.9" fill="#4d4d4d" stroke-width="0"/><path d="M760.43,473.12v3.65h-4.35v8.25h-4.45v-8.25h-14.3v-3.3l10.05-22.4,3.85,1.6-9.05,20.45h9.5l.4-9h4v9h4.35Z" fill="#fff" stroke-width="0"/></g><g id="u"><rect x="617.8" y="517.64" width="80.9" height="80.9" fill="#984ea3" stroke-width="0"/><path d="M654.8,537.88v37.5h-4.6v-36.95l4.6-.55ZM669.95,549.03l-9.7,11.65,10.8,14.7h-5.5l-10.45-14.4,9.7-11.95h5.15Z" fill="#fff" stroke-width="0"/><rect x="527.47" y="517.64" width="80.9" height="80.9" fill="#377eb8" stroke-width="0"/><path d="M577.02,552.05c1.77,2.42,2.65,5.79,2.65,10.12,0,2.73-.42,5.14-1.25,7.22-.83,2.08-2.03,3.7-3.6,4.85-1.57,1.15-3.4,1.72-5.5,1.72-2.77,0-5.1-1.17-7-3.5l-.45,2.9h-4.05v-36.95l4.6-.55v14.45c1.9-2.6,4.38-3.9,7.45-3.9s5.38,1.21,7.15,3.62ZM572.99,569.85c1.15-1.65,1.73-4.21,1.73-7.67s-.53-6.14-1.6-7.72c-1.07-1.58-2.58-2.38-4.55-2.38-2.33,0-4.38,1.37-6.15,4.1v12.6c.7,1.1,1.56,1.97,2.58,2.6,1.02.63,2.09.95,3.23.95,2.03,0,3.62-.83,4.77-2.48Z" fill="#fff" stroke-width="0"/><rect x="708.18" y="517.64" width="80.9" height="80.9" fill="#4d4d4d" stroke-width="0"/><path d="M757.1,545.53h-13.05v9.85c1.7-.87,3.48-1.3,5.35-1.3,2.87,0,5.17.94,6.9,2.82,1.73,1.88,2.6,4.48,2.6,7.78,0,2.2-.48,4.16-1.45,5.88s-2.32,3.05-4.07,4-3.78,1.42-6.08,1.42c-2.03,0-3.85-.36-5.45-1.08-1.6-.72-3.08-1.77-4.45-3.17l2.7-2.65c1.07,1.07,2.17,1.86,3.3,2.38,1.13.52,2.42.77,3.85.77,2.13,0,3.81-.67,5.02-2,1.22-1.33,1.83-3.22,1.83-5.65s-.55-4.2-1.65-5.3-2.58-1.65-4.45-1.65c-.87,0-1.67.09-2.4.27-.73.18-1.52.48-2.35.88h-3.6v-16.85h18.1l-.65,3.6Z" fill="#fff" stroke-width="0"/></g><g id="v"><rect x="617.8" y="608" width="80.9" height="80.9" fill="#984ea3" stroke-width="0"/><path d="M654.8,628.24v37.5h-4.6v-36.95l4.6-.55ZM669.95,639.38l-9.7,11.65,10.8,14.7h-5.5l-10.45-14.4,9.7-11.95h5.15Z" fill="#fff" stroke-width="0"/><rect x="527.47" y="608" width="80.9" height="80.9" fill="#377eb8" stroke-width="0"/><path d="M577.02,642.41c1.77,2.42,2.65,5.79,2.65,10.12,0,2.73-.42,5.14-1.25,7.22-.83,2.08-2.03,3.7-3.6,4.85-1.57,1.15-3.4,1.72-5.5,1.72-2.77,0-5.1-1.17-7-3.5l-.45,2.9h-4.05v-36.95l4.6-.55v14.45c1.9-2.6,4.38-3.9,7.45-3.9s5.38,1.21,7.15,3.62ZM572.99,660.21c1.15-1.65,1.73-4.21,1.73-7.67s-.53-6.14-1.6-7.72c-1.07-1.58-2.58-2.38-4.55-2.38-2.33,0-4.38,1.37-6.15,4.1v12.6c.7,1.1,1.56,1.97,2.58,2.6,1.02.63,2.09.95,3.23.95,2.03,0,3.62-.83,4.77-2.48Z" fill="#fff" stroke-width="0"/><rect x="708.18" y="608" width="80.9" height="80.9" fill="#4d4d4d" stroke-width="0"/><path d="M755.35,644.94c1.4.8,2.52,2,3.35,3.6.83,1.6,1.25,3.55,1.25,5.85s-.48,4.46-1.43,6.28c-.95,1.82-2.23,3.22-3.85,4.2-1.62.98-3.41,1.47-5.38,1.47-3.9,0-6.75-1.44-8.55-4.33-1.8-2.88-2.7-6.88-2.7-11.97,0-3.63.51-6.83,1.53-9.58,1.02-2.75,2.47-4.88,4.38-6.4,1.9-1.52,4.15-2.28,6.75-2.28s4.83.68,6.9,2.05l-1.8,3.05c-1.57-.97-3.28-1.45-5.15-1.45-2.4,0-4.3,1.15-5.7,3.45-1.4,2.3-2.17,5.38-2.3,9.25,2.07-2.93,4.75-4.4,8.05-4.4,1.7,0,3.25.4,4.65,1.2ZM753.75,660.49c1.03-1.47,1.55-3.45,1.55-5.95,0-4.77-1.8-7.15-5.4-7.15-1.47,0-2.82.41-4.05,1.23-1.23.82-2.28,1.94-3.15,3.38.1,3.67.67,6.37,1.72,8.1,1.05,1.73,2.67,2.6,4.88,2.6,1.93,0,3.42-.73,4.45-2.2Z" fill="#fff" stroke-width="0"/></g><g id="w"><rect x="617.8" y="698.35" width="80.9" height="80.9" fill="#4daf4a" stroke-width="0"/><path d="M660.5,754.49c0,2.43-.3,4.38-.9,5.85-.6,1.47-1.47,2.66-2.62,3.58-1.15.92-2.76,1.84-4.82,2.78l-1.35-3.35c1.3-.6,2.3-1.19,3-1.77.7-.58,1.23-1.4,1.58-2.45s.53-2.49.53-4.33v-25.05h4.6v24.75ZM660.55,717.99c.6.6.9,1.35.9,2.25s-.3,1.64-.9,2.22c-.6.58-1.38.88-2.35.88s-1.7-.29-2.3-.88c-.6-.58-.9-1.33-.9-2.22s.3-1.65.9-2.25c.6-.6,1.37-.9,2.3-.9s1.75.3,2.35.9Z" fill="#fff" stroke-width="0"/><rect x="527.47" y="698.35" width="80.9" height="80.9" fill="#ff7f00" stroke-width="0"/><path d="M574.62,725.82c1.3.45,2.55,1.17,3.75,2.17l-2.2,2.9c-.93-.67-1.84-1.16-2.73-1.47-.88-.32-1.86-.47-2.92-.47-2.13,0-3.79.85-4.97,2.55-1.18,1.7-1.78,4.22-1.78,7.55s.58,5.79,1.75,7.38c1.17,1.58,2.83,2.38,5,2.38,1.03,0,1.98-.16,2.85-.47.87-.32,1.83-.83,2.9-1.53l2.1,3c-2.4,1.93-5.08,2.9-8.05,2.9-3.57,0-6.38-1.2-8.42-3.6-2.05-2.4-3.08-5.72-3.08-9.95,0-2.8.47-5.25,1.4-7.35.93-2.1,2.26-3.73,3.97-4.9,1.72-1.17,3.76-1.75,6.12-1.75,1.57,0,3,.23,4.3.68Z" fill="#fff" stroke-width="0"/><rect x="708.18" y="698.35" width="80.9" height="80.9" fill="#4d4d4d" stroke-width="0"/><path d="M758.23,722.64v3.45l-12.5,30.5-4.2-1.4,12.05-28.8h-14.8v-3.75h19.45Z" fill="#fff" stroke-width="0"/></g><g id="x"><rect x="617.8" y="788.71" width="80.9" height="80.9" fill="#4daf4a" stroke-width="0"/><path d="M660.5,844.85c0,2.43-.3,4.38-.9,5.85-.6,1.47-1.47,2.66-2.62,3.58-1.15.92-2.76,1.84-4.82,2.77l-1.35-3.35c1.3-.6,2.3-1.19,3-1.78s1.23-1.4,1.58-2.45c.35-1.05.53-2.49.53-4.32v-25.05h4.6v24.75ZM660.55,808.35c.6.6.9,1.35.9,2.25s-.3,1.64-.9,2.23c-.6.58-1.38.88-2.35.88s-1.7-.29-2.3-.88c-.6-.58-.9-1.33-.9-2.23s.3-1.65.9-2.25,1.37-.9,2.3-.9,1.75.3,2.35.9Z" fill="#fff" stroke-width="0"/><rect x="527.47" y="788.71" width="80.9" height="80.9" fill="#ff7f00" stroke-width="0"/><path d="M574.62,816.17c1.3.45,2.55,1.17,3.75,2.17l-2.2,2.9c-.93-.67-1.84-1.16-2.73-1.47s-1.86-.48-2.92-.48c-2.13,0-3.79.85-4.97,2.55-1.18,1.7-1.78,4.22-1.78,7.55s.58,5.79,1.75,7.38,2.83,2.38,5,2.38c1.03,0,1.98-.16,2.85-.48.87-.32,1.83-.83,2.9-1.52l2.1,3c-2.4,1.93-5.08,2.9-8.05,2.9-3.57,0-6.38-1.2-8.42-3.6-2.05-2.4-3.08-5.72-3.08-9.95,0-2.8.47-5.25,1.4-7.35.93-2.1,2.26-3.73,3.97-4.9,1.72-1.17,3.76-1.75,6.12-1.75,1.57,0,3,.22,4.3.67Z" fill="#fff" stroke-width="0"/><rect x="708.18" y="788.71" width="80.9" height="80.9" fill="#4d4d4d" stroke-width="0"/><path d="M760.15,837.5c0,1.83-.49,3.47-1.47,4.92-.98,1.45-2.36,2.58-4.12,3.4-1.77.82-3.77,1.22-6,1.22s-4.27-.4-6-1.2c-1.73-.8-3.08-1.92-4.03-3.35-.95-1.43-1.42-3.07-1.42-4.9,0-2.07.56-3.8,1.67-5.2,1.12-1.4,2.76-2.57,4.92-3.5-1.77-.9-3.07-1.99-3.92-3.28-.85-1.28-1.27-2.79-1.27-4.53s.47-3.35,1.42-4.65,2.2-2.28,3.75-2.95c1.55-.67,3.21-1,4.97-1s3.38.32,4.92.95c1.55.63,2.81,1.59,3.78,2.88s1.45,2.83,1.45,4.62c0,1.67-.47,3.1-1.4,4.3-.93,1.2-2.37,2.28-4.3,3.25,4.7,1.9,7.05,4.9,7.05,9ZM753.53,841.8c1.22-1.07,1.83-2.48,1.83-4.25,0-1.2-.23-2.21-.7-3.02s-1.22-1.53-2.25-2.15c-1.03-.62-2.48-1.24-4.35-1.88l-1.25-.45c-1.67.8-2.9,1.81-3.7,3.03s-1.2,2.72-1.2,4.52.6,3.26,1.8,4.28c1.2,1.02,2.83,1.53,4.9,1.53s3.71-.53,4.92-1.6ZM744.53,817.3c-1.02.9-1.52,2.18-1.52,3.85s.49,2.82,1.47,3.65c.98.83,2.56,1.6,4.72,2.3l.85.3c1.5-.87,2.58-1.78,3.25-2.75.67-.97,1-2.15,1-3.55,0-1.57-.49-2.82-1.48-3.75-.98-.93-2.38-1.4-4.17-1.4s-3.11.45-4.12,1.35Z" fill="#fff" stroke-width="0"/></g><g id="y"><rect x="617.8" y="879.06" width="80.9" height="80.9" fill="#984ea3" stroke-width="0"/><path d="M654.8,899.3v37.5h-4.6v-36.95l4.6-.55ZM669.95,910.45l-9.7,11.65,10.8,14.7h-5.5l-10.45-14.4,9.7-11.95h5.15Z" fill="#fff" stroke-width="0"/><rect x="527.47" y="879.06" width="80.9" height="80.9" fill="#ff7f00" stroke-width="0"/><path d="M574.62,906.53c1.3.45,2.55,1.17,3.75,2.17l-2.2,2.9c-.93-.67-1.84-1.16-2.73-1.47s-1.86-.48-2.92-.48c-2.13,0-3.79.85-4.97,2.55-1.18,1.7-1.78,4.22-1.78,7.55s.58,5.79,1.75,7.38,2.83,2.38,5,2.38c1.03,0,1.98-.16,2.85-.48.87-.32,1.83-.83,2.9-1.52l2.1,3c-2.4,1.93-5.08,2.9-8.05,2.9-3.57,0-6.38-1.2-8.42-3.6-2.05-2.4-3.08-5.72-3.08-9.95,0-2.8.47-5.25,1.4-7.35.93-2.1,2.26-3.73,3.97-4.9,1.72-1.17,3.76-1.75,6.12-1.75,1.57,0,3,.22,4.3.67Z" fill="#fff" stroke-width="0"/><rect x="708.18" y="879.06" width="80.9" height="80.9" fill="#4d4d4d" stroke-width="0"/><path d="M756.5,906.33c1.83,2.32,2.75,5.49,2.75,9.53,0,4.57-.62,8.24-1.85,11.03-1.23,2.78-3.12,5-5.65,6.65-2.53,1.65-5.97,3.11-10.3,4.38l-1.05-3.45c4.47-1.27,7.89-2.98,10.27-5.15,2.38-2.17,3.66-5.05,3.83-8.65-.77,1.2-1.8,2.17-3.1,2.9-1.3.73-2.77,1.1-4.4,1.1-1.73,0-3.3-.44-4.7-1.33-1.4-.88-2.51-2.13-3.33-3.75-.82-1.62-1.22-3.51-1.22-5.67s.48-4.23,1.45-5.9c.97-1.67,2.26-2.94,3.88-3.83,1.62-.88,3.41-1.33,5.38-1.33,3.53,0,6.22,1.16,8.05,3.47ZM754.6,916.9c.07-3.7-.39-6.36-1.38-7.97-.98-1.62-2.54-2.42-4.67-2.42-1.97,0-3.48.65-4.55,1.95-1.07,1.3-1.6,3.15-1.6,5.55s.5,4.09,1.5,5.27c1,1.18,2.35,1.78,4.05,1.78,2.63,0,4.85-1.38,6.65-4.15Z" fill="#fff" stroke-width="0"/></g><g id="z"><path d="M543.81,143.68l1.2,1.65c-.66.58-1.48,1.04-2.46,1.38-.98.34-1.93.51-2.85.51-2.34,0-4.17-.73-5.47-2.21-1.31-1.47-1.96-3.45-1.96-5.96,0-1.58.29-3,.88-4.26.59-1.26,1.44-2.25,2.57-2.97,1.12-.72,2.45-1.08,3.99-1.08,2.04,0,3.8.62,5.28,1.86l-1.23,1.65c-1.38-.92-2.74-1.38-4.08-1.38-1.42,0-2.56.52-3.41,1.57-.85,1.05-1.28,2.59-1.28,4.6s.42,3.52,1.28,4.52c.85.99,2,1.48,3.43,1.48s2.75-.46,4.11-1.38Z" fill="#000" stroke-width="0"/><path d="M562.17,144.81c.2.29.53.51.99.65l-.63,1.8c-1.54-.2-2.5-.95-2.88-2.25-.56.72-1.27,1.27-2.12,1.65-.85.38-1.8.57-2.83.57-1.58,0-2.83-.44-3.74-1.32-.91-.88-1.37-2.06-1.37-3.54,0-1.62.63-2.87,1.91-3.75,1.27-.88,3.09-1.32,5.48-1.32h2.34v-1.29c0-1.12-.32-1.92-.96-2.42-.64-.49-1.57-.73-2.79-.73s-2.57.27-4.11.81l-.69-1.92c1.86-.66,3.59-.99,5.19-.99,1.92,0,3.38.45,4.4,1.35,1.01.9,1.51,2.15,1.51,3.75v7.59c0,.62.1,1.08.3,1.37ZM557.56,144.73c.71-.4,1.29-.95,1.75-1.65v-4.05h-2.28c-1.68,0-2.89.28-3.63.84-.74.56-1.11,1.38-1.11,2.46,0,2,1.01,3,3.03,3,.78,0,1.52-.2,2.24-.6Z" fill="#000" stroke-width="0"/><path d="M579.13,146.92c-.77.2-1.54.3-2.29.3-1.66,0-2.96-.44-3.9-1.31-.94-.87-1.41-2.01-1.41-3.44v-9.42h-3.63v-1.98h3.63v-3.57l2.52-.3v3.87h5.49l-.33,1.98h-5.16v9.39c0,.9.24,1.57.72,2.01.48.44,1.25.66,2.31.66s2.09-.25,3.03-.75l.99,1.71c-.54.36-1.2.64-1.96.84Z" fill="#000" stroke-width="0"/><path d="M599.04,144.85v2.04h-11.91v-2.04h5.07v-15.87l-4.71,2.85-1.11-1.77,6.15-3.84h2.22v18.63h4.29Z" fill="#000" stroke-width="0"/><path d="M634.14,143.68l1.2,1.65c-.66.58-1.48,1.04-2.46,1.38-.98.34-1.93.51-2.85.51-2.34,0-4.17-.73-5.48-2.21-1.31-1.47-1.96-3.45-1.96-5.96,0-1.58.29-3,.89-4.26.59-1.26,1.44-2.25,2.57-2.97,1.12-.72,2.45-1.08,3.99-1.08,2.04,0,3.8.62,5.28,1.86l-1.23,1.65c-1.38-.92-2.74-1.38-4.08-1.38-1.42,0-2.55.52-3.4,1.57-.85,1.05-1.28,2.59-1.28,4.6s.42,3.52,1.28,4.52c.85.99,1.99,1.48,3.43,1.48s2.75-.46,4.11-1.38Z" fill="#000" stroke-width="0"/><path d="M652.5,144.81c.2.29.53.51.99.65l-.63,1.8c-1.54-.2-2.5-.95-2.88-2.25-.56.72-1.27,1.27-2.12,1.65-.85.38-1.8.57-2.84.57-1.58,0-2.82-.44-3.73-1.32-.91-.88-1.37-2.06-1.37-3.54,0-1.62.63-2.87,1.91-3.75,1.27-.88,3.09-1.32,5.48-1.32h2.34v-1.29c0-1.12-.32-1.92-.96-2.42-.64-.49-1.57-.73-2.79-.73s-2.57.27-4.11.81l-.69-1.92c1.86-.66,3.59-.99,5.19-.99,1.92,0,3.38.45,4.4,1.35,1.01.9,1.51,2.15,1.51,3.75v7.59c0,.62.1,1.08.3,1.37ZM647.89,144.73c.71-.4,1.29-.95,1.76-1.65v-4.05h-2.28c-1.68,0-2.89.28-3.63.84-.74.56-1.11,1.38-1.11,2.46,0,2,1.01,3,3.03,3,.78,0,1.52-.2,2.23-.6Z" fill="#000" stroke-width="0"/><path d="M669.46,146.92c-.77.2-1.54.3-2.29.3-1.66,0-2.96-.44-3.9-1.31s-1.41-2.01-1.41-3.44v-9.42h-3.63v-1.98h3.63v-3.57l2.52-.3v3.87h5.49l-.33,1.98h-5.16v9.39c0,.9.24,1.57.72,2.01.48.44,1.25.66,2.31.66s2.09-.25,3.03-.75l.99,1.71c-.54.36-1.2.64-1.96.84Z" fill="#000" stroke-width="0"/><path d="M685.24,126.64c.95.5,1.68,1.19,2.18,2.06.5.87.75,1.85.75,2.95,0,1.28-.3,2.52-.89,3.72s-1.54,2.52-2.83,3.94c-1.3,1.43-3.14,3.24-5.52,5.42h9.72l-.3,2.16h-12.3v-2.04c2.7-2.58,4.71-4.6,6.02-6.06,1.31-1.46,2.21-2.71,2.71-3.75.5-1.04.75-2.14.75-3.3s-.33-2.07-.99-2.73c-.66-.66-1.57-.99-2.73-.99-.98,0-1.8.17-2.45.5s-1.32.9-2,1.69l-1.74-1.35c.82-1.02,1.74-1.77,2.75-2.25,1.01-.48,2.19-.72,3.55-.72,1.26,0,2.37.25,3.31.75Z" fill="#000" stroke-width="0"/><path d="M738.92,146.89l5.82-8.34-5.13-7.47h3l3.66,5.88,3.69-5.88h2.91l-5.13,7.35,5.82,8.46h-3.06l-4.35-6.78-4.35,6.78h-2.88Z" fill="#000" stroke-width="0"/><path d="M838.24,147.69c-.62,1.82-1.47,3.27-2.55,4.35-1.08,1.08-2.59,1.72-4.53,1.92l-.36-2.01c1.06-.18,1.91-.46,2.54-.83s1.12-.83,1.49-1.38c.36-.55.69-1.27.99-2.15h-.84l-5.49-15.81h2.67l4.53,13.89,4.47-13.89h2.61l-5.52,15.9Z" fill="#000" stroke-width="0"/><path d="M543.81,143.68l1.2,1.65c-.66.58-1.48,1.04-2.46,1.38-.98.34-1.93.51-2.85.51-2.34,0-4.17-.73-5.47-2.21-1.31-1.47-1.96-3.45-1.96-5.96,0-1.58.29-3,.88-4.26.59-1.26,1.44-2.25,2.57-2.97,1.12-.72,2.45-1.08,3.99-1.08,2.04,0,3.8.62,5.28,1.86l-1.23,1.65c-1.38-.92-2.74-1.38-4.08-1.38-1.42,0-2.56.52-3.41,1.57-.85,1.05-1.28,2.59-1.28,4.6s.42,3.52,1.28,4.52c.85.99,2,1.48,3.43,1.48s2.75-.46,4.11-1.38Z" fill="#000" stroke-width="0"/><path d="M562.17,144.81c.2.29.53.51.99.65l-.63,1.8c-1.54-.2-2.5-.95-2.88-2.25-.56.72-1.27,1.27-2.12,1.65-.85.38-1.8.57-2.83.57-1.58,0-2.83-.44-3.74-1.32-.91-.88-1.37-2.06-1.37-3.54,0-1.62.63-2.87,1.91-3.75,1.27-.88,3.09-1.32,5.48-1.32h2.34v-1.29c0-1.12-.32-1.92-.96-2.42-.64-.49-1.57-.73-2.79-.73s-2.57.27-4.11.81l-.69-1.92c1.86-.66,3.59-.99,5.19-.99,1.92,0,3.38.45,4.4,1.35,1.01.9,1.51,2.15,1.51,3.75v7.59c0,.62.1,1.08.3,1.37ZM557.56,144.73c.71-.4,1.29-.95,1.75-1.65v-4.05h-2.28c-1.68,0-2.89.28-3.63.84-.74.56-1.11,1.38-1.11,2.46,0,2,1.01,3,3.03,3,.78,0,1.52-.2,2.24-.6Z" fill="#000" stroke-width="0"/><path d="M579.13,146.92c-.77.2-1.54.3-2.29.3-1.66,0-2.96-.44-3.9-1.31-.94-.87-1.41-2.01-1.41-3.44v-9.42h-3.63v-1.98h3.63v-3.57l2.52-.3v3.87h5.49l-.33,1.98h-5.16v9.39c0,.9.24,1.57.72,2.01.48.44,1.25.66,2.31.66s2.09-.25,3.03-.75l.99,1.71c-.54.36-1.2.64-1.96.84Z" fill="#000" stroke-width="0"/><path d="M599.04,144.85v2.04h-11.91v-2.04h5.07v-15.87l-4.71,2.85-1.11-1.77,6.15-3.84h2.22v18.63h4.29Z" fill="#000" stroke-width="0"/><path d="M634.14,143.68l1.2,1.65c-.66.58-1.48,1.04-2.46,1.38-.98.34-1.93.51-2.85.51-2.34,0-4.17-.73-5.48-2.21-1.31-1.47-1.96-3.45-1.96-5.96,0-1.58.29-3,.89-4.26.59-1.26,1.44-2.25,2.57-2.97,1.12-.72,2.45-1.08,3.99-1.08,2.04,0,3.8.62,5.28,1.86l-1.23,1.65c-1.38-.92-2.74-1.38-4.08-1.38-1.42,0-2.55.52-3.4,1.57-.85,1.05-1.28,2.59-1.28,4.6s.42,3.52,1.28,4.52c.85.99,1.99,1.48,3.43,1.48s2.75-.46,4.11-1.38Z" fill="#000" stroke-width="0"/><path d="M652.5,144.81c.2.29.53.51.99.65l-.63,1.8c-1.54-.2-2.5-.95-2.88-2.25-.56.72-1.27,1.27-2.12,1.65-.85.38-1.8.57-2.84.57-1.58,0-2.82-.44-3.73-1.32-.91-.88-1.37-2.06-1.37-3.54,0-1.62.63-2.87,1.91-3.75,1.27-.88,3.09-1.32,5.48-1.32h2.34v-1.29c0-1.12-.32-1.92-.96-2.42-.64-.49-1.57-.73-2.79-.73s-2.57.27-4.11.81l-.69-1.92c1.86-.66,3.59-.99,5.19-.99,1.92,0,3.38.45,4.4,1.35,1.01.9,1.51,2.15,1.51,3.75v7.59c0,.62.1,1.08.3,1.37ZM647.89,144.73c.71-.4,1.29-.95,1.76-1.65v-4.05h-2.28c-1.68,0-2.89.28-3.63.84-.74.56-1.11,1.38-1.11,2.46,0,2,1.01,3,3.03,3,.78,0,1.52-.2,2.23-.6Z" fill="#000" stroke-width="0"/><path d="M669.46,146.92c-.77.2-1.54.3-2.29.3-1.66,0-2.96-.44-3.9-1.31s-1.41-2.01-1.41-3.44v-9.42h-3.63v-1.98h3.63v-3.57l2.52-.3v3.87h5.49l-.33,1.98h-5.16v9.39c0,.9.24,1.57.72,2.01.48.44,1.25.66,2.31.66s2.09-.25,3.03-.75l.99,1.71c-.54.36-1.2.64-1.96.84Z" fill="#000" stroke-width="0"/><path d="M685.24,126.64c.95.5,1.68,1.19,2.18,2.06.5.87.75,1.85.75,2.95,0,1.28-.3,2.52-.89,3.72s-1.54,2.52-2.83,3.94c-1.3,1.43-3.14,3.24-5.52,5.42h9.72l-.3,2.16h-12.3v-2.04c2.7-2.58,4.71-4.6,6.02-6.06,1.31-1.46,2.21-2.71,2.71-3.75.5-1.04.75-2.14.75-3.3s-.33-2.07-.99-2.73c-.66-.66-1.57-.99-2.73-.99-.98,0-1.8.17-2.45.5s-1.32.9-2,1.69l-1.74-1.35c.82-1.02,1.74-1.77,2.75-2.25,1.01-.48,2.19-.72,3.55-.72,1.26,0,2.37.25,3.31.75Z" fill="#000" stroke-width="0"/><path d="M738.92,146.89l5.82-8.34-5.13-7.47h3l3.66,5.88,3.69-5.88h2.91l-5.13,7.35,5.82,8.46h-3.06l-4.35-6.78-4.35,6.78h-2.88Z" fill="#000" stroke-width="0"/></g><g id="aa"><path d="M838.24,147.69c-.62,1.82-1.47,3.27-2.55,4.35-1.08,1.08-2.59,1.72-4.53,1.92l-.36-2.01c1.06-.18,1.91-.46,2.54-.83s1.12-.83,1.49-1.38c.36-.55.69-1.27.99-2.15h-.84l-5.49-15.81h2.67l4.53,13.89,4.47-13.89h2.61l-5.52,15.9Z" fill="#000" stroke-width="0"/><rect x="798.56" y="156.22" width="80.9" height="80.9" fill="#f012be" stroke-width="0"/><path d="M847.39,184.43c1.88,2.95,2.83,7.23,2.83,12.82s-.94,9.88-2.83,12.85c-1.88,2.97-4.67,4.45-8.38,4.45s-6.49-1.48-8.38-4.45c-1.88-2.97-2.83-7.25-2.83-12.85s.94-9.88,2.83-12.82c1.88-2.95,4.67-4.43,8.38-4.43s6.49,1.48,8.38,4.43ZM834.19,186.86c-1.05,2.13-1.58,5.6-1.58,10.4s.53,8.28,1.58,10.43,2.66,3.23,4.83,3.23,3.73-1.08,4.8-3.23c1.07-2.15,1.6-5.62,1.6-10.43s-.53-8.22-1.6-10.38c-1.07-2.15-2.67-3.22-4.8-3.22s-3.78,1.07-4.83,3.2Z" fill="#fff" stroke-width="0"/><rect x="798.56" y="246.58" width="80.9" height="80.9" fill="#f012be" stroke-width="0"/><path d="M844.34,270.86v33.45h-4.6v-28.55l-7.8,4.75-2-3.25,10.35-6.4h4.05Z" fill="#fff" stroke-width="0"/><rect x="798.56" y="336.93" width="80.9" height="80.9" fill="#f012be" stroke-width="0"/><path d="M843.31,361.92c1.52.8,2.69,1.89,3.53,3.27.83,1.38,1.25,2.94,1.25,4.68,0,2.03-.46,3.98-1.38,5.85-.92,1.87-2.33,3.88-4.23,6.05-1.9,2.17-4.78,5.18-8.65,9.05h15.05l-.55,3.85h-19.75v-3.65c4.46-4.63,7.63-8.02,9.5-10.17,1.87-2.15,3.2-4.03,4-5.62.8-1.6,1.2-3.32,1.2-5.15,0-1.73-.5-3.09-1.5-4.07s-2.33-1.48-4-1.48c-1.37,0-2.57.28-3.6.85s-2.13,1.5-3.3,2.8l-3-2.4c1.37-1.7,2.88-2.97,4.55-3.8s3.53-1.25,5.6-1.25,3.76.4,5.28,1.2Z" fill="#fff" stroke-width="0"/><rect x="798.56" y="427.29" width="80.9" height="80.9" fill="#f012be" stroke-width="0"/><path d="M843.11,452.22c1.48.77,2.62,1.8,3.4,3.1s1.18,2.72,1.18,4.25c0,2.03-.59,3.71-1.78,5.03s-2.76,2.21-4.72,2.67c2.23.2,4.05,1,5.45,2.4,1.4,1.4,2.1,3.3,2.1,5.7,0,1.93-.47,3.68-1.4,5.25-.93,1.57-2.27,2.79-4,3.67-1.73.88-3.73,1.33-6,1.33-2.03,0-3.9-.38-5.6-1.12-1.7-.75-3.18-1.88-4.45-3.38l2.75-2.55c1.1,1.13,2.22,1.97,3.38,2.5s2.41.8,3.78.8c2.1,0,3.75-.59,4.95-1.77,1.2-1.18,1.8-2.78,1.8-4.78,0-2.2-.57-3.75-1.7-4.65-1.13-.9-2.79-1.35-4.95-1.35h-2.5l.55-3.55h1.7c1.73,0,3.18-.52,4.33-1.55,1.15-1.03,1.72-2.48,1.72-4.35,0-1.57-.5-2.81-1.5-3.72s-2.35-1.38-4.05-1.38c-1.3,0-2.49.23-3.57.7-1.08.47-2.19,1.23-3.33,2.3l-2.4-2.75c2.83-2.63,6.02-3.95,9.55-3.95,2.07,0,3.84.38,5.33,1.15Z" fill="#fff" stroke-width="0"/><rect x="798.56" y="698.35" width="80.9" height="80.9" fill="#f012be" stroke-width="0"/><path d="M845.74,735.29c1.4.8,2.52,2,3.35,3.6.83,1.6,1.25,3.55,1.25,5.85s-.48,4.46-1.43,6.27c-.95,1.82-2.23,3.22-3.85,4.2-1.62.98-3.41,1.48-5.38,1.48-3.9,0-6.75-1.44-8.55-4.33-1.8-2.88-2.7-6.88-2.7-11.98,0-3.63.51-6.82,1.53-9.57,1.02-2.75,2.47-4.88,4.38-6.4,1.9-1.52,4.15-2.28,6.75-2.28s4.83.68,6.9,2.05l-1.8,3.05c-1.57-.97-3.28-1.45-5.15-1.45-2.4,0-4.3,1.15-5.7,3.45-1.4,2.3-2.17,5.38-2.3,9.25,2.07-2.93,4.75-4.4,8.05-4.4,1.7,0,3.25.4,4.65,1.2ZM844.14,750.84c1.03-1.47,1.55-3.45,1.55-5.95,0-4.77-1.8-7.15-5.4-7.15-1.47,0-2.82.41-4.05,1.22-1.23.82-2.28,1.94-3.15,3.38.1,3.67.67,6.37,1.72,8.1,1.05,1.73,2.67,2.6,4.88,2.6,1.93,0,3.42-.73,4.45-2.2Z" fill="#fff" stroke-width="0"/><rect x="798.56" y="788.71" width="80.9" height="80.9" fill="#f012be" stroke-width="0"/><path d="M848.61,813v3.45l-12.5,30.5-4.2-1.4,12.05-28.8h-14.8v-3.75h19.45Z" fill="#fff" stroke-width="0"/><rect x="798.56" y="879.06" width="80.9" height="80.9" fill="#f012be" stroke-width="0"/><path d="M850.54,927.85c0,1.83-.49,3.47-1.47,4.92s-2.36,2.58-4.12,3.4-3.77,1.22-6,1.22-4.27-.4-6-1.2c-1.73-.8-3.07-1.92-4.03-3.35-.95-1.43-1.42-3.07-1.42-4.9,0-2.07.56-3.8,1.67-5.2,1.12-1.4,2.76-2.57,4.93-3.5-1.77-.9-3.07-1.99-3.93-3.28-.85-1.28-1.27-2.79-1.27-4.53s.47-3.35,1.42-4.65c.95-1.3,2.2-2.28,3.75-2.95,1.55-.67,3.21-1,4.97-1s3.38.32,4.93.95c1.55.63,2.81,1.59,3.78,2.88s1.45,2.83,1.45,4.62c0,1.67-.47,3.1-1.4,4.3s-2.37,2.28-4.3,3.25c4.7,1.9,7.05,4.9,7.05,9ZM843.91,932.15c1.22-1.07,1.83-2.48,1.83-4.25,0-1.2-.23-2.21-.7-3.02s-1.22-1.53-2.25-2.15c-1.03-.62-2.48-1.24-4.35-1.88l-1.25-.45c-1.67.8-2.9,1.81-3.7,3.03-.8,1.22-1.2,2.72-1.2,4.52s.6,3.26,1.8,4.28c1.2,1.02,2.83,1.53,4.9,1.53s3.71-.53,4.92-1.6ZM834.91,907.65c-1.02.9-1.52,2.18-1.52,3.85s.49,2.82,1.47,3.65c.98.83,2.56,1.6,4.72,2.3l.85.3c1.5-.87,2.58-1.78,3.25-2.75s1-2.15,1-3.55c0-1.57-.49-2.82-1.47-3.75-.98-.93-2.38-1.4-4.18-1.4s-3.11.45-4.12,1.35Z" fill="#fff" stroke-width="0"/><rect x="798.56" y="517.64" width="80.9" height="80.9" fill="#f012be" stroke-width="0"/><path d="M850.81,563.48v3.65h-4.35v8.25h-4.45v-8.25h-14.3v-3.3l10.05-22.4,3.85,1.6-9.05,20.45h9.5l.4-9h4v9h4.35Z" fill="#fff" stroke-width="0"/><rect x="798.56" y="608" width="80.9" height="80.9" fill="#f012be" stroke-width="0"/><path d="M847.49,635.88h-13.05v9.85c1.7-.87,3.48-1.3,5.35-1.3,2.87,0,5.17.94,6.9,2.82,1.73,1.88,2.6,4.48,2.6,7.78,0,2.2-.48,4.16-1.45,5.88s-2.32,3.05-4.07,4-3.78,1.42-6.08,1.42c-2.03,0-3.85-.36-5.45-1.08-1.6-.72-3.08-1.77-4.45-3.17l2.7-2.65c1.07,1.07,2.17,1.86,3.3,2.38s2.42.77,3.85.77c2.13,0,3.81-.67,5.02-2,1.22-1.33,1.83-3.22,1.83-5.65s-.55-4.2-1.65-5.3c-1.1-1.1-2.58-1.65-4.45-1.65-.87,0-1.67.09-2.4.27-.73.18-1.52.48-2.35.88h-3.6v-16.85h18.1l-.65,3.6Z" fill="#fff" stroke-width="0"/></g></svg>