<?xml version="1.0" encoding="UTF-8"?><svg id="a" xmlns="http://www.w3.org/2000/svg" width="512" height="512" viewBox="0 0 512 512"><g id="b"><path id="c" d="m115.59,222.51c-9.73,0-18.73,7.07-24.99,14.42-5.06,5.95-7.59,15.13-7.59,22.77s2.87,16.14,7.93,22.09c6.15,7.34,12.78,12.38,22.6,12.38,8.83,0,19.34-3.71,25.39-9.76,6.15-6.05,11.27-16.22,11.27-25.05s-2.4-19.19-8.55-25.24c-6.15-6.15-17.34-11.61-26.07-11.61h0Zm174.64,2.4c-10.12,0-18.36,3.98-24.71,11.94-5.16,6.39-7.74,13.66-7.74,21.83s2.58,15.6,7.74,21.99c6.35,7.96,14.59,11.94,24.71,11.94,9.03,0,16.67-3.25,22.92-9.74,6.25-6.6,9.38-14.65,9.38-24.18s-3.18-17.38-9.53-23.87c-6.25-6.59-13.84-9.9-22.77-9.9h0ZM256,8C119.03,8,8,119.03,8,256s111.03,248,248,248,248-111.03,248-248S392.97,8,256,8Zm-58.83,323.79h-45.94v-18.7c-4.66,5.86-15.64,11.82-20.4,14.5-8.33,4.66-19.65,7.7-30.27,7.7-17.17,0-32.45-5.42-45.84-17.23-15.98-14.09-23.48-35.63-23.48-58.85s8.19-42.47,24.56-56.56c13-11.21,28.9-20.19,45.77-20.19,9.82,0,21.94.88,30.57,5.05,4.96,2.38,13.84,7.99,19.1,13.44v-98.5h45.94v229.34h0Zm157.22-21.14c-15.28,17.59-36.67,26.38-64.15,26.38s-49.02-8.8-64.3-26.38c-12.6-14.45-18.9-32.19-18.9-53.24,0-18.95,6.35-35.75,19.05-50.41,15.38-17.69,37.26-26.54,65.64-26.54,26.1,0,46.94,8.85,62.52,26.54,12.7,14.45,19.05,31.67,19.05,51.66,0,20.21-6.3,37.53-18.9,51.98h0Zm38.77-199.22c5.36-5.36,11.86-8.04,19.5-8.04s14.14,2.68,19.5,8.04c5.36,5.26,8.04,11.71,8.04,19.35s-2.68,14.29-8.04,19.65c-5.26,5.26-11.76,7.89-19.5,7.89s-14.14-2.68-19.5-8.04c-5.26-5.36-7.89-11.86-7.89-19.5,0-7.64,2.63-14.09,7.89-19.35h0Zm43.91,220.24h-48.82v-145.83h48.82v145.83Z" fill="#868e96"/></g></svg>
