<?xml version="1.0" encoding="UTF-8" standalone="no"?>
<!-- Created with Inkscape (http://www.inkscape.org/) -->

<svg
   version="1.1"
   id="svg1"
   width="105.20533"
   height="57.277332"
   viewBox="0 0 105.20533 57.277332"
   xmlns="http://www.w3.org/2000/svg"
   xmlns:svg="http://www.w3.org/2000/svg">
  <defs
     id="defs1" />
  <g
     id="g1">
    <path
       id="path1"
       d="M 4.8293906,-4.0893281 3.9973594,-6.0815156 c -0.035156,-0.070312 -0.046875,-0.1171875 -0.046875,-0.1289063 0,-0.058594 0.1640625,-0.2460937 0.5859375,-0.28125 0.09375,-0.011719 0.1992187,-0.023437 0.1992187,-0.1875 0,-0.1289062 -0.1171875,-0.1289062 -0.1523437,-0.1289062 -0.4101563,0 -0.8320313,0.035156 -1.2539063,0.035156 -0.2460937,0 -0.8671875,-0.035156 -1.1132812,-0.035156 -0.058594,0 -0.1875,0 -0.1875,0.1992187 0,0.1171875 0.1054687,0.1171875 0.234375,0.1171875 0.5976562,0 0.65625,0.09375 0.75,0.3164063 l 1.171875,2.7773437 -2.0976563,2.2617188 -0.1289062,0.1054687 c -0.4921875,0.52734377 -0.96093752,0.69140627 -1.46484377,0.72656252 -0.12890625,0 -0.22265625,0 -0.22265625,0.19921875 0,0 0,0.105468755 0.12890625,0.105468755 0.3046875,0 0.63281247,-0.035156255 0.93749997,-0.035156255 0.3632813,0 0.7617188,0.035156255 1.1132813,0.035156255 0.058594,0 0.1757812,0 0.1757812,-0.199218755 0,-0.10546875 -0.09375,-0.10546875 -0.1171875,-0.10546875 -0.082031,-0.0117188 -0.3984375,-0.0351563 -0.3984375,-0.31640625 0,-0.15234375 0.1523438,-0.31640625 0.2695313,-0.44531247 l 1.0195312,-1.078125 0.890625,-0.9726563 1.0078125,2.37890627 c 0.046875,0.10546875 0.046875,0.1171875 0.046875,0.140625 0,0.0820313 -0.1875,0.24609375 -0.5742187,0.29296875 -0.1054688,0 -0.1992188,0.0117188 -0.1992188,0.1875 0,0.117187505 0.1171875,0.117187505 0.1523438,0.117187505 0.28125,0 0.9726562,-0.035156255 1.2539062,-0.035156255 0.2460938,0 0.8554688,0.035156255 1.1015625,0.035156255 0.070312,0 0.1992188,0 0.1992188,-0.187500005 0,-0.1171875 -0.1054688,-0.1171875 -0.1875,-0.1171875 -0.6679688,-0.0117188 -0.6796875,-0.046875 -0.8554688,-0.4453125 C 5.8489219,-1.6752656 5.1809531,-3.2221406 4.9465781,-3.8197969 c 0.6796875,-0.703125 1.734375,-1.8867187 2.0507813,-2.1679687 0.28125,-0.234375 0.6679687,-0.4804688 1.265625,-0.5039063 0.1289062,-0.011719 0.2109375,-0.011719 0.2109375,-0.1992187 0,-0.011719 0,-0.1171875 -0.1289063,-0.1171875 -0.2929687,0 -0.6210937,0.035156 -0.9375,0.035156 -0.3632812,0 -0.7382812,-0.035156 -1.1015625,-0.035156 -0.058594,0 -0.1875,0 -0.1875,0.1992187 0,0.070312 0.046875,0.1054688 0.1171875,0.1171875 0.09375,0.011719 0.3984375,0.023437 0.3984375,0.3046875 0,0.140625 -0.1054687,0.2695313 -0.1875,0.3632813 z m 0,0"
       style="fill:#000000;fill-opacity:1;fill-rule:nonzero;stroke:none"
       aria-label="X"
       transform="matrix(1.3333333,0,0,1.3333333,4.428,50.304)" />
    <path
       id="path2"
       d="m 1.7121328,-2.75325 h 0.7148438 c 0.1289062,0 0.2226562,0 0.2226562,-0.1523438 0,-0.09375 -0.09375,-0.09375 -0.2109375,-0.09375 h -0.65625 l 0.2578125,-1.0429687 c 0,-0.023437 0.023437,-0.058594 0.023437,-0.09375 0,-0.1289063 -0.1054687,-0.2226563 -0.2460937,-0.2226563 -0.1757813,0 -0.28125,0.1171875 -0.328125,0.3046875 -0.046875,0.1757813 0.046875,-0.1640625 -0.2578125,1.0546875 H 0.51682031 c -0.12890625,0 -0.22265625,0 -0.22265625,0.1523438 0,0.09375 0.0820313,0.09375 0.2109375,0.09375 H 1.1613516 l -0.41015629,1.640625 c -0.0351563,0.17578125 -0.10546875,0.43359375 -0.10546875,0.515625 0,0.421875 0.3515625,0.66796875 0.75000004,0.66796875 0.7734375,0 1.21875,-0.97265625 1.21875,-1.06640625 0,-0.09375 -0.09375,-0.09375 -0.1171875,-0.09375 -0.082031,0 -0.09375,0.011719 -0.140625,0.12890625 -0.1992188,0.4453125 -0.5507813,0.83203125 -0.9375,0.83203125 -0.1523438,0 -0.2460938,-0.0820313 -0.2460938,-0.33984375 0,-0.0703125 0.023437,-0.2109375 0.046875,-0.28125 z m 0,0"
       style="fill:#000000;fill-opacity:1;fill-rule:nonzero;stroke:none"
       aria-label="t"
       transform="matrix(1.3333333,0,0,1.3333333,15.432,52.296)" />
    <path
       id="path3"
       d="M 5.9424609,-5.672375 6.0830859,-5.813 c 0.3046875,-0.2929688 0.6328125,-0.6328125 1.3125,-0.6796875 0.1054688,-0.011719 0.1992188,-0.011719 0.1992188,-0.1875 0,-0.082031 -0.058594,-0.1289063 -0.1289063,-0.1289063 -0.2578125,0 -0.5507812,0.035156 -0.8203125,0.035156 -0.328125,0 -0.6796875,-0.035156 -0.9960937,-0.035156 -0.058594,0 -0.1875,0 -0.1875,0.1992188 0,0.1054687 0.09375,0.1171875 0.1523437,0.1171875 0.070312,0 0.3515625,0.011719 0.3515625,0.2226562 0,0.1757813 -0.2226562,0.4335938 -0.2695312,0.4804688 l -2.3085938,2.6601562 -1.0898437,-2.953125 c -0.070312,-0.140625 -0.070312,-0.1640625 -0.070312,-0.1757812 0,-0.234375 0.4921875,-0.234375 0.5976562,-0.234375 0.1289063,0 0.234375,0 0.234375,-0.1992188 0,-0.1171875 -0.1171875,-0.1171875 -0.1523437,-0.1171875 -0.28125,0 -0.9726563,0.035156 -1.2539063,0.035156 -0.2460937,0 -0.86718746,-0.035156 -1.11328121,-0.035156 -0.0585938,0 -0.1875,0 -0.1875,0.1992188 0,0.1171875 0.09375,0.1171875 0.22265625,0.1171875 0.59765626,0 0.64453126,0.082031 0.72656246,0.3398437 l 1.2304688,3.2695313 c 0.011719,0.035156 0.035156,0.140625 0.035156,0.1757812 0,0.023437 -0.3984375,1.6289063 -0.4453125,1.80468755 -0.1289062,0.55078125 -0.140625,0.5859375 -0.9375,0.59765625 -0.18749996,0 -0.26953121,0 -0.26953121,0.19921875 C 0.91511719,-5e-4 1.0323047,-5e-4 1.0557422,-5e-4 c 0.28125,0 0.9726562,-0.03515625 1.2539062,-0.03515625 0.28125,0 0.9960938,0.03515625 1.2773438,0.03515625 0.070312,0 0.1875,0 0.1875,-0.19921875 0,-0.10546875 -0.082031,-0.10546875 -0.28125,-0.10546875 -0.011719,0 -0.1992188,0 -0.375,-0.0234375 -0.2109375,-0.0234375 -0.2695313,-0.0351563 -0.2695313,-0.1640625 0,-0.0703125 0.09375,-0.41015625 0.140625,-0.6210938 l 0.3515625,-1.40625 c 0.046875,-0.1875 0.058594,-0.2226562 0.140625,-0.3046875 z m 0,0"
       style="fill:#000000;fill-opacity:1;fill-rule:nonzero;stroke:none"
       aria-label="Y"
       transform="matrix(1.3333333,0,0,1.3333333,74.94,49.750667)" />
    <path
       id="path4"
       d="m 1.7111953,-2.7542656 h 0.7148438 c 0.1289062,0 0.2226562,0 0.2226562,-0.1523438 0,-0.09375 -0.09375,-0.09375 -0.2109375,-0.09375 h -0.65625 l 0.2578125,-1.0429687 c 0,-0.023437 0.023437,-0.058594 0.023437,-0.09375 0,-0.1289063 -0.1054687,-0.2226563 -0.2460937,-0.2226563 -0.1757813,0 -0.28125,0.1171875 -0.328125,0.3046875 -0.046875,0.1757813 0.046875,-0.1640625 -0.2578125,1.0546875 H 0.51588281 c -0.12890625,0 -0.22265625,0 -0.22265625,0.1523438 0,0.09375 0.0820313,0.09375 0.2109375,0.09375 H 1.1604141 l -0.41015629,1.640625 c -0.0351563,0.17578122 -0.10546875,0.43359372 -0.10546875,0.51562497 0,0.421875 0.3515625,0.66796875 0.75000004,0.66796875 0.7734375,0 1.21875,-0.97265625 1.21875,-1.06640625 0,-0.09375 -0.09375,-0.09375 -0.1171875,-0.09375 -0.082031,0 -0.09375,0.011719 -0.140625,0.12890619 -0.1992188,0.4453125 -0.5507813,0.83203125 -0.9375,0.83203125 -0.1523438,0 -0.2460938,-0.0820313 -0.2460938,-0.33984375 0,-0.0703125 0.023437,-0.2109375 0.046875,-0.28125 z m 0,0"
       style="fill:#000000;fill-opacity:1;fill-rule:nonzero;stroke:none"
       aria-label="t"
       transform="matrix(1.3333333,0,0,1.3333333,82.652,51.742667)" />
    <path
       id="path5"
       d="m 3.2227031,-1.5706719 h 2.1445313 c 0.082031,0 0.2578125,0 0.2578125,-0.1757812 0,-0.1757813 -0.1640625,-0.1757813 -0.2578125,-0.1757813 H 3.2227031 v -2.1328125 c 0,-0.09375 0,-0.2578125 -0.1640625,-0.2578125 -0.1757812,0 -0.1757812,0.1523438 -0.1757812,0.2578125 v 2.1328125 H 0.75004687 c -0.09375,0 -0.2578125,0 -0.2578125,0.1757813 0,0.1757812 0.15234375,0.1757812 0.2578125,0.1757812 H 2.8828594 v 2.13281252 c 0,0.09375 0,0.2578125 0.1757812,0.2578125 0.1640625,0 0.1640625,-0.15234375 0.1640625,-0.2578125 z m 5.2265625,-2.859375 c 0,-0.1875 -0.011719,-0.1992187 -0.2109375,-0.1992187 -0.4453125,0.4335937 -1.078125,0.4453125 -1.359375,0.4453125 v 0.2460937 c 0.1640625,0 0.6210938,0 1.0078125,-0.1875 v 3.55078127 c 0,0.234375 0,0.328125 -0.6914062,0.328125 H 6.9258281 v 0.246093755 c 0.1289063,-0.011718755 0.984375,-0.023437505 1.2421875,-0.023437505 0.2109375,0 1.0898438,0.01171875 1.2421875,0.023437505 V -0.24645313 H 9.1523906 c -0.703125,0 -0.703125,-0.09375 -0.703125,-0.328125 z m 0,0"
       style="fill:#000000;fill-opacity:1;fill-rule:nonzero;stroke:none"
       aria-label="+1"
       transform="matrix(1.3333333,0,0,1.3333333,86.664,51.742667)" />
    <path
       id="path6"
       d="m 7.1718906,-6.5635703 c 0.011719,-0.046875 0.035156,-0.09375 0.035156,-0.1523438 0,-0.09375 -0.058594,-0.09375 -0.2578125,-0.09375 H 2.7539219 c -0.2460938,0 -0.2578125,0.011719 -0.3164063,0.1992188 l -0.5390625,1.7929687 c -0.023437,0.058594 -0.035156,0.1289063 -0.035156,0.140625 0,0.011719 0,0.1171875 0.1171875,0.1171875 0.09375,0 0.1171875,-0.070312 0.1289062,-0.1054687 0.3867188,-1.171875 0.9023438,-1.828125 2.4492188,-1.828125 h 1.6289062 l -5.56640622,6.22265624 c 0,0.0117188 -0.046875,0.15234375 -0.046875,0.17578125 0,0.09375 0.0703125,0.09375 0.2578125,0.09375 H 5.1562656 c 0.2460938,0 0.2578125,-0.01171875 0.3164063,-0.19921875 l 0.703125,-2.20312504 c 0.011719,-0.035156 0.035156,-0.1054687 0.035156,-0.1523437 0,-0.046875 -0.035156,-0.1054688 -0.1289062,-0.1054688 -0.082031,0 -0.09375,0.035156 -0.1640625,0.2460938 -0.4335938,1.359375 -0.9140625,2.07421874 -2.6132813,2.07421874 H 1.6054844 Z m 0,0"
       style="fill:#000000;fill-opacity:1;fill-rule:nonzero;stroke:none"
       aria-label="Z"
       transform="matrix(1.3333333,0,0,1.3333333,45.054667,13.505333)" />
    <path
       id="path7"
       d="M 21.42464,21.42305 9.07881,9.07968"
       style="fill:none;stroke:#000000;stroke-width:0.3985;stroke-linecap:butt;stroke-linejoin:miter;stroke-miterlimit:10;stroke-dasharray:none;stroke-opacity:1"
       transform="matrix(1.3333333,0,0,-1.3333333,12.268,46.761333)" />
    <path
       id="path8"
       d="M 1.99252,0 -1.19551,1.59401 0,0 -1.19551,-1.59401"
       style="fill:#000000;fill-opacity:1;fill-rule:nonzero;stroke:none"
       transform="matrix(-0.94289333,0.94269333,0.94269333,0.94289333,24.37308,34.655093)" />
    <path
       id="path9"
       d="M 35.26971,21.42305 47.19978,9.49483"
       style="fill:none;stroke:#000000;stroke-width:0.3985;stroke-linecap:butt;stroke-linejoin:miter;stroke-miterlimit:10;stroke-dasharray:none;stroke-opacity:1"
       transform="matrix(1.3333333,0,0,-1.3333333,12.268,46.761333)" />
    <path
       id="path10"
       d="M 1.99252,0 -1.19551,1.59401 0,0 -1.19551,-1.59401"
       style="fill:#000000;fill-opacity:1;fill-rule:nonzero;stroke:none"
       transform="matrix(0.94286667,0.94270667,0.94270667,-0.94286667,75.201027,34.10156)" />
    <path
       id="path11"
       d="M 9.40062,0 H 41.49176"
       style="fill:none;stroke:#000000;stroke-width:0.3985;stroke-linecap:butt;stroke-linejoin:miter;stroke-miterlimit:10;stroke-dasharray:none;stroke-opacity:1"
       transform="matrix(1.3333333,0,0,-1.3333333,12.268,46.761333)" />
    <path
       id="path12"
       d="M 1.99252,0 -1.19551,1.59401 0,0 -1.19551,-1.59401"
       style="fill:#000000;fill-opacity:1;fill-rule:nonzero;stroke:none"
       transform="matrix(1.3333333,0,0,-1.3333333,67.590347,46.761333)" />
  </g>
</svg>
