<?xml version="1.0" encoding="UTF-8" standalone="no"?>
<!-- Created with Inkscape (http://www.inkscape.org/) -->

<svg
   version="1.1"
   id="svg1"
   width="261.40134"
   height="210.93867"
   viewBox="0 0 261.40134 210.93867"
   xmlns="http://www.w3.org/2000/svg"
   xmlns:svg="http://www.w3.org/2000/svg">
  <defs
     id="defs1" />
  <g
     id="g1">
    <path
       id="path1"
       d="M -89.73288,-79.10281 V 79.10281 H 89.73288 V -79.10281 Z"
       style="fill:#ffffff;fill-opacity:1;fill-rule:nonzero;stroke:none"
       transform="matrix(1.3333333,0,0,-1.3333333,141.76,105.46933)" />
    <path
       id="path2"
       d="M -85.04042,-74.41037 V 74.41037 H 85.04042 V -74.41037 Z"
       style="fill:none;stroke:#000000;stroke-width:0.79701;stroke-linecap:butt;stroke-linejoin:miter;stroke-miterlimit:10;stroke-dasharray:none;stroke-opacity:1"
       transform="matrix(1.3333333,0,0,-1.3333333,141.76,105.46933)" />
    <path
       id="path3"
       d="M 6.7385938,-1.6174609 H 6.4925 c -0.046875,0.2578125 -0.082031,0.4921875 -0.1757812,0.72656246 -0.046875,0.1640625 -0.082031,0.24609375 -0.65625,0.24609375 H 4.8635938 C 4.9925,-1.2073047 5.2971875,-1.6877734 5.7425,-2.3440234 c 0.46875,-0.703125 0.8789063,-1.3945313 0.8789063,-2.1796875 0,-1.3828125 -1.3359375,-2.4960938 -3.0234375,-2.4960938 -1.7109375,0 -3.0351563,1.1367188 -3.0351563,2.4960938 0,0.7851562 0.3984375,1.4765625 0.8671875,2.1796875 0.4453125,0.65625 0.7617188,1.1367187 0.890625,1.69921871 H 1.52375 c -0.57421875,0 -0.609375,-0.0820313 -0.65625,-0.234375 C 0.78546875,-1.1018359 0.73859375,-1.3596484 0.69171875,-1.6174609 h -0.2578125 l 0.328125,1.6171874625 H 2.3557813 c 0.2226562,0 0.2578125,0 0.2578125,-0.2109375025 0,-0.69140625 -0.3164063,-1.57031246 -0.5390625,-2.21484376 -0.2109375,-0.5742187 -0.4921875,-1.359375 -0.4921875,-2.109375 0,-1.59375 1.1015625,-2.2734375 2.0039062,-2.2734375 0.9609375,0 2.015625,0.7265625 2.015625,2.2734375 0,0.75 -0.2695312,1.5117188 -0.5625,2.3203125 -0.1523437,0.421875 -0.46875,1.31250001 -0.46875,2.00390626 0,0.2109375025 0.035156,0.2109375025 0.2578125,0.2109375025 h 1.5820313 z m 0,0"
       style="fill:#000000;fill-opacity:1;fill-rule:nonzero;stroke:none"
       aria-label="Ω"
       transform="matrix(1.3333333,0,0,1.3333333,240.59333,20.293333)" />
    <path
       id="path4"
       d="m 21.26012,0 c 0,23.48355 -19.03666,42.5202 -42.52021,42.5202 -23.48355,0 -42.5202,-19.03665 -42.5202,-42.5202 0,-23.48355 19.03665,-42.5202 42.5202,-42.5202 23.48355,0 42.52021,19.03665 42.52021,42.5202 z"
       style="fill:#ccccff;fill-opacity:1;fill-rule:nonzero;stroke:#000000;stroke-width:0.79701;stroke-linecap:butt;stroke-linejoin:miter;stroke-miterlimit:10;stroke-dasharray:none;stroke-opacity:0.65"
       transform="matrix(1.3333333,0,0,-1.3333333,141.76,105.46933)" />
    <path
       id="path5"
       d="m 1.7817031,-1.1494609 c -0.3984375,0.66796871 -0.78515622,0.80859371 -1.21874997,0.84374996 -0.12890625,0 -0.2109375,0 -0.2109375,0.19921875 0,0.05859375 0.046875,0.10546875 0.12890625,0.10546875 0.26953125,0 0.57421872,-0.03515625 0.85546872,-0.03515625 0.328125,0 0.6796875,0.03515625 0.9960938,0.03515625 0.058594,0 0.1875,0 0.1875,-0.1875 0,-0.1171875 -0.09375,-0.1171875 -0.1640625,-0.1171875 -0.2226563,-0.0234375 -0.4570313,-0.10546875 -0.4570313,-0.3515625 0,-0.1171875 0.058594,-0.234375 0.1289063,-0.37499996 l 0.7617187,-1.265625 h 2.4960938 c 0.023437,0.1992187 0.1640625,1.55859371 0.1640625,1.66406246 0,0.29296875 -0.515625,0.328125 -0.7148438,0.328125 -0.140625,0 -0.2460937,0 -0.2460937,0.19921875 0,0.10546875 0.1289062,0.10546875 0.140625,0.10546875 0.4101562,0 0.84375,-0.03515625 1.2539062,-0.03515625 0.2460938,0 0.8671875,0.03515625 1.125,0.03515625 0.058594,0 0.1757813,0 0.1757813,-0.19921875 0,-0.10546875 -0.1054688,-0.10546875 -0.234375,-0.10546875 -0.609375,0 -0.609375,-0.0703125 -0.6445313,-0.36328125 L 5.6957656,-6.8916484 c -0.011719,-0.1992188 -0.011719,-0.2460938 -0.1875,-0.2460938 -0.1640625,0 -0.1992187,0.070312 -0.2578125,0.1757813 z m 1.1953125,-1.4648438 1.96875,-3.28125 0.3164063,3.28125 z m 0,0"
       style="fill:#000000;fill-opacity:1;fill-rule:nonzero;stroke:none"
       aria-label="A"
       transform="matrix(1.3333333,0,0,1.3333333,80.085333,98.669333)" />
    <path
       id="path6"
       d="m 63.78029,0 c 0,23.48355 -19.03665,42.5202 -42.5202,42.5202 -23.48355,0 -42.52021,-19.03665 -42.52021,-42.5202 0,-23.48355 19.03666,-42.5202 42.52021,-42.5202 23.48355,0 42.5202,19.03665 42.5202,42.5202 z"
       style="fill:none;stroke:#000000;stroke-width:0.79701;stroke-linecap:butt;stroke-linejoin:miter;stroke-miterlimit:10;stroke-dasharray:none;stroke-opacity:1"
       transform="matrix(1.3333333,0,0,-1.3333333,141.76,105.46933)" />
    <path
       id="path7"
       d="m 63.78029,0 c 0,23.48355 -19.03665,42.5202 -42.5202,42.5202 -23.48355,0 -42.52021,-19.03665 -42.52021,-42.5202 0,-23.48355 19.03666,-42.5202 42.52021,-42.5202 23.48355,0 42.5202,19.03665 42.5202,42.5202 z"
       style="fill:#ffcccc;fill-opacity:0.65;fill-rule:nonzero;stroke:#000000;stroke-width:0.79701;stroke-linecap:butt;stroke-linejoin:miter;stroke-miterlimit:10;stroke-dasharray:none;stroke-opacity:0.65"
       transform="matrix(1.3333333,0,0,-1.3333333,141.76,105.46933)" />
    <path
       id="path8"
       d="m 1.5942734,-0.77446094 c -0.09375,0.38671875 -0.1171875,0.46875 -0.90234371,0.46875 -0.17578125,0 -0.26953125,0 -0.26953125,0.19921875 0,0.10546875 0.0820313,0.10546875 0.26953125,0.10546875 H 4.2427109 c 1.5703125,0 2.7539063,-1.17187496 2.7539063,-2.15624996 0,-0.7148438 -0.5859375,-1.2890625 -1.546875,-1.3945313 1.03125,-0.1992187 2.0859375,-0.9375 2.0859375,-1.875 0,-0.7382812 -0.65625,-1.3828125 -1.8515625,-1.3828125 H 2.3325547 c -0.1875,0 -0.2929688,0 -0.2929688,0.1992188 0,0.1171875 0.09375,0.1171875 0.28125,0.1171875 0.023437,0 0.2109375,0 0.375,0.011719 0.1875,0.023437 0.2695313,0.035156 0.2695313,0.1640625 0,0.035156 -0.011719,0.070312 -0.035156,0.1875 z m 1.5,-2.87109376 0.6210938,-2.4726562 c 0.09375,-0.3515625 0.1054687,-0.375 0.5390625,-0.375 h 1.2890625 c 0.8671875,0 1.078125,0.5859375 1.078125,1.0195312 0,0.8789063 -0.8554688,1.828125 -2.0742188,1.828125 z m -0.4453125,3.33984376 c -0.140625,0 -0.1523437,0 -0.2226562,-0.0117188 -0.09375,-0.0117188 -0.1289063,-0.0234375 -0.1289063,-0.10546875 0,-0.0234375 0,-0.046875 0.058594,-0.22265625 L 3.0356797,-3.4228984 h 1.8867187 c 0.9609375,0 1.1484375,0.7265625 1.1484375,1.1601562 0,0.984375 -0.890625,1.95703126 -2.0625,1.95703126 z m 0,0"
       style="fill:#000000;fill-opacity:1;fill-rule:nonzero;stroke:none"
       aria-label="B"
       transform="matrix(1.3333333,0,0,1.3333333,193.08133,98.669333)" />
    <path
       id="path9"
       d="m 21.26012,0 c 0,23.48355 -19.03666,42.5202 -42.52021,42.5202 -23.48355,0 -42.5202,-19.03665 -42.5202,-42.5202 0,-23.48355 19.03665,-42.5202 42.5202,-42.5202 23.48355,0 42.52021,19.03665 42.52021,42.5202 z"
       style="fill:none;stroke:#000000;stroke-width:0.79701;stroke-linecap:butt;stroke-linejoin:miter;stroke-miterlimit:10;stroke-dasharray:none;stroke-opacity:1"
       transform="matrix(1.3333333,0,0,-1.3333333,141.76,105.46933)" />
    <path
       id="path10"
       d="m 1.7817578,-1.1485781 c -0.3984375,0.66796873 -0.78515624,0.80859373 -1.21874999,0.84374998 -0.12890625,0 -0.2109375,0 -0.2109375,0.19921875 0,0.05859375 0.046875,0.105468745 0.12890625,0.105468745 0.26953125,0 0.57421874,-0.035156245 0.85546874,-0.035156245 0.328125,0 0.6796875,0.035156245 0.9960938,0.035156245 0.058594,0 0.1875,0 0.1875,-0.187499995 0,-0.1171875 -0.09375,-0.1171875 -0.1640625,-0.1171875 -0.2226563,-0.0234375 -0.4570313,-0.10546875 -0.4570313,-0.3515625 0,-0.1171875 0.058594,-0.234375 0.1289063,-0.37499998 l 0.7617187,-1.265625 h 2.4960938 c 0.023437,0.1992187 0.1640625,1.55859373 0.1640625,1.66406248 0,0.29296875 -0.515625,0.328125 -0.7148438,0.328125 -0.140625,0 -0.2460937,0 -0.2460937,0.19921875 0,0.105468745 0.1289062,0.105468745 0.140625,0.105468745 0.4101562,0 0.84375,-0.035156245 1.2539062,-0.035156245 0.2460938,0 0.8671875,0.035156245 1.125,0.035156245 0.058594,0 0.1757813,0 0.1757813,-0.199218745 0,-0.10546875 -0.1054688,-0.10546875 -0.234375,-0.10546875 -0.609375,0 -0.609375,-0.0703125 -0.6445313,-0.36328125 L 5.6958203,-6.8907656 c -0.011719,-0.1992188 -0.011719,-0.2460938 -0.1875,-0.2460938 -0.1640625,0 -0.1992187,0.070312 -0.2578125,0.1757813 z m 1.1953125,-1.4648438 1.96875,-3.28125 0.3164063,3.28125 z m 0,0"
       style="fill:#000000;fill-opacity:1;fill-rule:nonzero;stroke:none"
       aria-label="A"
       transform="matrix(1.3333333,0,0,1.3333333,124.02667,110.008)" />
    <path
       id="path11"
       d="m 6.0820859,-3.7852969 c 0,-1.5117187 -1.5234375,-2.1679687 -2.765625,-2.1679687 -1.2890625,0 -2.76562496,0.6914062 -2.76562496,2.15625 v 3.65624998 c 0,0.17578125 0,0.36328125 0.19921875,0.36328125 0.19921875,0 0.19921875,-0.1875 0.19921875,-0.36328125 V -3.7501406 c 0,-1.4882813 1.61718746,-1.8046875 2.36718746,-1.8046875 0.4453125,0 1.078125,0.082031 1.6054688,0.421875 0.7617187,0.4921875 0.7617187,1.125 0.7617187,1.3945312 v 3.59765628 c 0,0.17578125 0,0.36328125 0.1992188,0.36328125 0.1992187,0 0.1992187,-0.1875 0.1992187,-0.36328125 z m 0,0"
       style="fill:#000000;fill-opacity:1;fill-rule:nonzero;stroke:none"
       aria-label="∩"
       transform="matrix(1.3333333,0,0,1.3333333,136.94133,110.008)" />
    <path
       id="path12"
       d="m 1.59425,-0.77357812 c -0.09375,0.38671875 -0.1171875,0.46875 -0.90234375,0.46875 -0.17578125,0 -0.26953125,0 -0.26953125,0.19921875 0,0.105468745 0.0820312,0.105468745 0.26953125,0.105468745 H 4.2426875 c 1.5703125,0 2.7539063,-1.171874975 2.7539063,-2.156249975 0,-0.7148438 -0.5859375,-1.2890625 -1.546875,-1.3945313 1.03125,-0.1992187 2.0859375,-0.9375 2.0859375,-1.875 0,-0.7382812 -0.65625,-1.3828125 -1.8515625,-1.3828125 H 2.3325313 c -0.1875,0 -0.2929688,0 -0.2929688,0.1992188 0,0.1171875 0.09375,0.1171875 0.28125,0.1171875 0.023437,0 0.2109375,0 0.375,0.011719 0.1875,0.023437 0.2695313,0.035156 0.2695313,0.1640625 0,0.035156 -0.011719,0.070312 -0.035156,0.1875 z m 1.5,-2.87109378 0.6210938,-2.4726562 c 0.09375,-0.3515625 0.1054687,-0.375 0.5390625,-0.375 h 1.2890625 c 0.8671875,0 1.078125,0.5859375 1.078125,1.0195312 0,0.8789063 -0.8554688,1.828125 -2.0742188,1.828125 z m -0.4453125,3.33984378 c -0.140625,0 -0.1523437,0 -0.2226562,-0.0117188 -0.09375,-0.0117188 -0.1289063,-0.0234375 -0.1289063,-0.10546875 0,-0.0234375 0,-0.046875 0.058594,-0.22265625 L 3.0356563,-3.4220156 H 4.922375 c 0.9609375,0 1.1484375,0.7265625 1.1484375,1.1601562 0,0.984375 -0.890625,1.95703128 -2.0625,1.95703128 z m 0,0"
       style="fill:#000000;fill-opacity:1;fill-rule:nonzero;stroke:none"
       aria-label="B"
       transform="matrix(1.3333333,0,0,1.3333333,148.74933,110.008)" />
  </g>
</svg>
