<?xml version="1.0" encoding="UTF-8"?><svg id="a" xmlns="http://www.w3.org/2000/svg" width="300" height="73.5" xmlns:xlink="http://www.w3.org/1999/xlink" viewBox="0 0 300 73.5"><defs><clipPath id="b"><rect x="6.93" y="-140.2" width="283.46" height="277.56" fill="none"/></clipPath><clipPath id="c"><rect x="6.93" y="-140.2" width="283.44" height="277.56" fill="none"/></clipPath></defs><rect y="0" width="300" height="73.51" fill="#fff"/><g clip-path="url(#b)" fill="none"><line x1="171.77" y1="54.7" x2="171.77" y2="18.97" fill="none" stroke="#bcbcbc" stroke-linejoin="round" stroke-width=".96"/><polyline points="171.77 38.45 174.76 43.64 168.77 43.64 171.77 38.45" fill="#010101"/><rect x="169.54" y="45.77" width="4.45" height="4.45" fill="#010101"/><polyline points="154.66 22.21 157.66 27.39 151.67 27.39 154.66 22.21" fill="#010101"/><rect x="252.18" y="29.53" width="4.44" height="4.45" fill="#010101"/><line x1="183.98" y1="25.67" x2="125.35" y2="25.67" fill="none" stroke="#010101" stroke-linejoin="round" stroke-width=".38"/><line x1="287.99" y1="31.75" x2="220.81" y2="31.75" fill="none" stroke="#010101" stroke-linejoin="round" stroke-width=".38"/><path d="m146.11,36.23c.29.22.7.34,1.24.34.33,0,.62-.06.88-.17.26-.11.46-.28.59-.48.14-.21.21-.43.21-.67s-.05-.44-.17-.6c-.11-.16-.27-.29-.46-.37-.2-.09-.55-.2-1.05-.33-.35-.1-.55-.15-.62-.18-.12-.05-.21-.11-.27-.19-.06-.07-.09-.15-.09-.25,0-.14.07-.27.21-.38.14-.11.37-.16.7-.16.27,0,.49.06.64.18.15.12.24.29.27.5l.69-.09c-.04-.27-.13-.48-.24-.65-.12-.16-.3-.29-.55-.38-.25-.1-.53-.14-.86-.14-.22,0-.42.03-.61.08-.19.06-.34.12-.45.21-.15.1-.26.23-.35.39-.08.16-.13.33-.13.52,0,.2.05.39.15.56.1.17.26.3.46.4.2.1.56.21,1.08.34.39.1.62.18.72.24.14.09.21.22.21.38,0,.18-.08.33-.24.46-.16.13-.4.2-.72.2s-.57-.08-.75-.22c-.18-.15-.29-.36-.33-.64l-.7.11c.08.44.26.78.54,1m-4.02.24v-2.28c0-.53.11-.9.33-1.09.22-.19.48-.29.78-.29.19,0,.35.04.49.13.14.08.24.2.29.34.05.14.08.36.08.65v2.54h.71v-2.56c0-.33-.01-.56-.04-.69-.04-.2-.12-.38-.22-.52-.11-.15-.26-.27-.47-.36-.21-.09-.44-.14-.69-.14-.58,0-1.02.23-1.33.69v-.59h-.64v4.17h.71Zm-2.52-1.83c0,.31-.04.55-.11.71-.1.21-.26.37-.47.49-.21.12-.45.18-.73.18s-.48-.06-.63-.19c-.14-.13-.22-.28-.22-.47,0-.12.03-.24.1-.34.07-.1.16-.18.28-.23.12-.05.33-.1.62-.14.51-.07.9-.16,1.15-.27v.26Zm.2,1.83h.74c-.09-.16-.15-.33-.18-.5-.03-.17-.05-.59-.05-1.25v-.94c0-.31-.01-.53-.03-.65-.04-.19-.12-.35-.22-.48-.1-.13-.27-.23-.49-.32-.22-.09-.51-.13-.87-.13s-.67.05-.95.15c-.27.1-.48.24-.62.42-.14.18-.25.42-.31.72l.69.09c.08-.3.19-.5.35-.62.16-.12.4-.17.74-.17.36,0,.62.08.8.24.13.12.2.32.2.61,0,.03,0,.09,0,.18-.27.09-.69.17-1.26.24-.28.03-.49.07-.63.11-.19.05-.36.13-.51.23-.15.1-.27.24-.36.41-.09.17-.14.36-.14.56,0,.35.12.63.37.86.25.22.6.34,1.06.34.28,0,.54-.04.78-.14.24-.09.49-.25.76-.47.02.2.07.37.14.51m-4.52-.74c-.19.17-.42.26-.7.26-.35,0-.62-.13-.84-.38-.21-.25-.32-.66-.32-1.22s.11-.96.33-1.21c.22-.25.51-.38.87-.38.23,0,.43.07.6.21.17.14.28.35.35.63l.69-.11c-.08-.42-.26-.75-.55-.98-.29-.23-.66-.34-1.11-.34-.36,0-.69.08-1,.25-.3.17-.53.42-.68.76-.15.34-.22.73-.22,1.18,0,.7.17,1.23.52,1.6.35.37.81.56,1.38.56.46,0,.84-.14,1.15-.41.31-.27.51-.65.58-1.12l-.7-.09c-.05.35-.17.62-.35.79m-3.44-3.43h-.71v4.17h.71v-4.17Zm0-1.59h-.71v.81h.71v-.81Zm-1.81,0h-.71v5.76h.71v-5.76Zm-4.02,2.48c.23-.27.49-.4.8-.4s.57.13.79.39c.21.26.32.66.32,1.21s-.11.93-.34,1.2c-.22.27-.49.4-.8.4-.38,0-.68-.18-.9-.55-.14-.22-.2-.58-.2-1.08s.11-.9.34-1.16m-.33,2.76c.28.41.67.62,1.16.62s.92-.2,1.27-.58c.35-.39.53-.94.53-1.66,0-.3-.04-.58-.13-.85-.08-.26-.2-.49-.35-.68-.15-.19-.34-.33-.57-.44-.23-.1-.47-.15-.73-.15-.46,0-.85.19-1.14.56v-2.05h-.71v5.76h.66v-.52Zm-1.76.52v-4.17h-.71v2.23c0,.36-.04.63-.12.82-.08.19-.21.34-.39.44-.19.11-.39.16-.6.16s-.39-.05-.54-.16c-.14-.11-.24-.25-.28-.44-.03-.13-.04-.38-.04-.75v-2.31h-.71v2.58c0,.3.01.52.04.66.04.21.11.38.22.52.1.14.26.26.47.35.21.1.44.14.69.14.56,0,1-.23,1.32-.71v.61h.63Zm-6.85-3.29c.23-.28.5-.42.8-.42s.56.13.78.4c.22.27.33.66.33,1.19s-.11.97-.33,1.23c-.22.27-.49.4-.81.4s-.57-.13-.79-.39c-.22-.26-.33-.65-.33-1.19s.12-.94.35-1.23m-.28,4.89v-2.03c.12.15.27.28.46.38.19.1.4.15.63.15.32,0,.63-.09.92-.27.29-.18.51-.45.67-.79.15-.34.23-.73.23-1.15,0-.4-.07-.76-.21-1.1-.14-.33-.34-.59-.62-.78-.27-.18-.59-.28-.94-.28-.27,0-.5.05-.7.16-.19.1-.36.26-.51.48v-.54h-.64v5.77h.71Zm-4.28-4.96c.22-.22.49-.33.82-.33.36,0,.65.13.88.41.15.17.24.44.27.79h-2.33c.02-.37.15-.66.37-.87m1.52,2.67c-.18.14-.41.2-.67.2-.35,0-.64-.12-.87-.37-.23-.24-.36-.59-.39-1.05h3.11c0-.09,0-.15,0-.19,0-.69-.18-1.22-.53-1.6-.35-.38-.81-.57-1.36-.57s-1.05.19-1.4.58c-.36.39-.54.93-.54,1.63s.18,1.21.54,1.58c.36.38.84.56,1.45.56.48,0,.88-.12,1.19-.35.31-.24.53-.57.64-.99l-.73-.09c-.11.3-.25.51-.43.65m-7.36-4.43h1.82c.43,0,.74.09.93.26.2.18.3.4.3.67,0,.18-.05.36-.15.52-.1.16-.25.27-.45.35-.2.07-.47.11-.82.11h-1.64v-1.9Zm0,5.12v-2.56h.88c.2,0,.34,0,.42.03.12.03.24.08.35.15.11.07.24.2.39.39.14.18.33.45.55.79l.76,1.2h.96l-1-1.57c-.2-.31-.41-.56-.63-.77-.1-.09-.26-.19-.46-.29.55-.08.96-.25,1.23-.53.27-.28.4-.62.4-1.03,0-.32-.08-.61-.24-.87-.16-.26-.37-.44-.64-.55-.27-.1-.66-.15-1.17-.15h-2.55v5.76h.76Z" fill="#010101"/><path d="m243.52,41.91c.28.22.7.34,1.24.34.33,0,.62-.06.88-.17.26-.11.46-.27.59-.48.14-.21.21-.43.21-.66s-.06-.44-.17-.6c-.11-.16-.27-.29-.47-.37s-.55-.2-1.05-.33c-.35-.09-.55-.15-.62-.18-.12-.05-.21-.11-.27-.19-.06-.07-.09-.16-.09-.25,0-.14.07-.27.21-.38.14-.11.37-.16.7-.16.27,0,.49.06.64.18.15.12.24.29.27.5l.69-.09c-.04-.27-.13-.48-.24-.65-.12-.16-.3-.29-.55-.38-.25-.09-.54-.14-.86-.14-.22,0-.42.03-.61.08-.19.06-.34.12-.45.21-.15.1-.26.23-.35.39-.08.16-.13.33-.13.52,0,.21.05.39.16.56.1.17.26.3.45.4.2.1.56.21,1.08.34.39.1.63.18.72.24.14.09.21.22.21.38,0,.18-.08.33-.24.47-.16.13-.4.2-.72.2s-.57-.08-.75-.22c-.18-.15-.29-.36-.33-.64l-.7.11c.08.44.26.78.54,1m-1.26-.36c-.1,0-.18-.02-.24-.05l-.12-.14c-.03-.06-.04-.19-.04-.39v-2.44h.71v-.55h-.71v-1.46l-.7.42v1.03h-.52v.55h.52v2.4c0,.42.03.7.09.83.06.13.16.24.3.32.14.08.34.12.6.12.16,0,.34-.02.53-.06l-.1-.62c-.13.02-.23.03-.31.03m-3.04-1.23c0,.31-.04.55-.11.71-.1.21-.26.37-.47.49-.21.12-.45.18-.73.18s-.48-.06-.63-.19c-.14-.13-.21-.28-.21-.47,0-.12.03-.24.1-.34.07-.1.16-.18.28-.23.12-.05.32-.1.61-.14.51-.07.9-.16,1.15-.27v.26Zm.2,1.83h.74c-.09-.16-.15-.33-.18-.5-.03-.17-.05-.59-.05-1.25v-.94c0-.31-.01-.53-.03-.65-.04-.19-.12-.35-.22-.48-.1-.13-.27-.23-.49-.32-.22-.08-.51-.12-.87-.12s-.67.05-.95.15c-.27.1-.48.24-.62.42-.14.18-.25.42-.31.72l.69.09c.07-.3.19-.5.35-.62.16-.12.4-.17.74-.17.36,0,.62.08.81.24.13.12.2.32.2.61,0,.03,0,.09,0,.18-.27.09-.69.17-1.26.24-.28.03-.49.07-.63.11-.19.05-.36.13-.51.23-.15.1-.27.24-.37.41-.09.17-.14.36-.14.56,0,.35.12.63.37.86.25.22.6.33,1.06.33.28,0,.54-.05.78-.14.24-.09.49-.25.76-.47.02.2.07.37.14.51m-4.76,0v-2.18c0-.3.04-.57.12-.82.05-.17.14-.29.26-.39.12-.09.26-.14.42-.14.17,0,.35.05.52.15l.24-.66c-.25-.15-.49-.23-.73-.23-.17,0-.32.05-.45.14-.14.09-.29.29-.45.59v-.63h-.64v4.17h.71Zm-2.35-.74c-.19.17-.42.26-.7.26-.35,0-.62-.13-.84-.38-.22-.25-.32-.66-.32-1.22s.11-.96.33-1.21c.22-.25.51-.38.87-.38.24,0,.44.07.6.21.17.14.28.35.35.63l.69-.11c-.08-.42-.27-.75-.55-.98-.29-.23-.66-.34-1.11-.34-.36,0-.69.08-1,.25-.3.17-.53.42-.68.76-.15.34-.22.73-.22,1.18,0,.7.17,1.23.52,1.6.35.37.8.56,1.38.56.46,0,.84-.14,1.15-.41.31-.27.51-.65.58-1.12l-.7-.09c-.05.35-.17.61-.35.78m-6.02-2.54c.23-.26.52-.4.88-.4s.64.13.88.4c.23.27.35.66.35,1.17,0,.55-.12.95-.35,1.22-.23.27-.52.4-.88.4s-.65-.13-.88-.4c-.24-.27-.35-.67-.35-1.2s.12-.93.35-1.2m-.54,2.82c.36.37.83.56,1.42.56.36,0,.7-.08,1.01-.26.31-.17.54-.41.7-.72.16-.31.24-.73.24-1.27,0-.66-.18-1.18-.55-1.56-.36-.38-.83-.56-1.41-.56-.52,0-.95.15-1.31.46-.43.37-.64.94-.64,1.72,0,.7.18,1.24.54,1.62m-6.27.47v-2.16c0-.38.04-.67.11-.87.08-.2.2-.36.37-.46.17-.11.35-.16.55-.16.26,0,.45.08.57.24.11.16.17.39.17.71v2.71h.71v-2.42c0-.43.1-.74.29-.94.19-.2.44-.29.73-.29.16,0,.3.04.42.11s.2.18.25.3c.04.12.07.33.07.61v2.63h.7v-2.86c0-.48-.11-.83-.34-1.06-.22-.23-.54-.34-.95-.34-.53,0-.96.24-1.29.73-.08-.23-.22-.41-.42-.54-.2-.13-.45-.19-.76-.19-.28,0-.52.06-.74.19-.22.12-.39.29-.52.49v-.59h-.63v4.17h.71Zm-4.28-3.36c.22-.22.49-.33.82-.33.36,0,.65.14.88.41.15.18.24.44.27.79h-2.33c.02-.36.15-.65.37-.87m1.52,2.67c-.18.14-.4.2-.66.2-.35,0-.64-.12-.87-.36s-.36-.59-.39-1.05h3.11c0-.08,0-.15,0-.19,0-.69-.18-1.22-.53-1.6-.35-.38-.81-.57-1.37-.57s-1.04.19-1.4.58c-.36.39-.54.93-.54,1.63s.18,1.21.54,1.58c.36.38.84.56,1.45.56.48,0,.88-.12,1.19-.35.31-.24.52-.57.64-.99l-.73-.09c-.11.3-.25.51-.44.65m-7.37-4.39h1.21c.45,0,.78.04.99.12.28.11.52.33.72.65.2.32.3.79.3,1.39,0,.44-.05.8-.15,1.11-.1.31-.24.55-.42.73-.13.13-.3.23-.52.3-.22.07-.51.11-.89.11h-1.23v-4.4Zm1.32,5.08c.35,0,.66-.03.92-.1.27-.07.5-.16.69-.29.19-.13.36-.3.52-.52.16-.22.29-.5.39-.84.1-.34.15-.72.15-1.16,0-.51-.07-.97-.23-1.37-.15-.4-.38-.73-.68-.98-.23-.2-.51-.34-.84-.41-.24-.05-.58-.08-1.02-.08h-1.98v5.76h2.08Z" fill="#010101"/><path d="m29.8,44.48c.22-.22.49-.33.82-.33.36,0,.65.14.88.41.15.18.24.44.27.79h-2.33c.02-.36.15-.65.37-.87m1.52,2.67c-.18.14-.4.2-.66.2-.35,0-.64-.12-.87-.36-.23-.24-.36-.59-.39-1.05h3.11c0-.08,0-.15,0-.19,0-.69-.18-1.22-.53-1.6-.35-.38-.81-.57-1.37-.57s-1.04.19-1.4.58c-.36.39-.54.93-.54,1.63s.18,1.21.54,1.58c.36.38.84.56,1.45.56.49,0,.88-.12,1.19-.35.31-.24.53-.57.64-.99l-.73-.09c-.11.3-.25.52-.44.65m-3.51-5.07h-.71v5.76h.71v-5.76Zm-2.5,3.92c0,.31-.04.55-.11.71-.1.21-.26.37-.47.49-.21.12-.45.18-.73.18s-.48-.06-.63-.19c-.14-.13-.21-.28-.21-.47,0-.12.03-.23.1-.34.07-.1.16-.18.28-.23.12-.05.33-.1.62-.14.51-.07.9-.16,1.15-.27v.26Zm.2,1.83h.74c-.09-.16-.15-.33-.18-.5-.03-.17-.04-.59-.04-1.25v-.94c0-.32-.01-.53-.04-.65-.04-.19-.12-.35-.22-.48-.1-.13-.27-.23-.49-.32-.22-.08-.51-.12-.87-.12s-.68.05-.95.15c-.27.1-.48.24-.62.42-.14.18-.25.42-.31.72l.69.09c.08-.29.19-.5.35-.62.16-.12.4-.18.74-.18.36,0,.62.08.8.24.14.12.2.32.2.61,0,.03,0,.09,0,.18-.27.09-.69.18-1.26.24-.28.03-.49.07-.63.11-.19.05-.36.13-.51.23-.15.1-.27.24-.37.41-.09.17-.14.36-.14.56,0,.35.12.63.37.86.25.22.6.34,1.06.34.28,0,.54-.05.78-.14.24-.09.49-.25.76-.47.02.2.07.37.14.51m-8.76,0v-4.9l1.66,4.9h.69l1.67-4.82v4.82h.74v-5.76h-1.03l-1.38,4.01c-.14.41-.24.71-.31.92-.06-.19-.15-.47-.27-.85l-1.36-4.08h-1.15v5.76h.73Z" fill="#4e4e4e"/><path d="m29.8,28.23c.22-.22.49-.33.82-.33.36,0,.65.14.88.41.15.17.24.44.27.79h-2.33c.02-.36.15-.65.37-.87m1.52,2.67c-.18.14-.4.2-.66.2-.35,0-.64-.12-.87-.37-.23-.24-.36-.59-.39-1.05h3.11c0-.09,0-.15,0-.19,0-.69-.18-1.22-.53-1.6-.35-.38-.81-.57-1.37-.57s-1.04.19-1.41.58c-.36.39-.54.93-.54,1.63s.18,1.2.54,1.58c.36.38.84.56,1.45.56.48,0,.88-.12,1.19-.35.31-.24.52-.57.64-.99l-.73-.09c-.11.3-.25.52-.44.65m-3.51-5.07h-.71v5.76h.71v-5.76Zm-2.5,3.92c0,.31-.04.55-.12.71-.1.21-.25.37-.47.49-.21.12-.45.18-.73.18s-.48-.06-.63-.19c-.14-.12-.21-.28-.21-.47,0-.12.03-.24.1-.34.07-.1.16-.18.28-.23.12-.05.33-.1.62-.14.51-.07.9-.16,1.15-.27v.26Zm.2,1.83h.74c-.09-.16-.15-.33-.18-.5-.03-.17-.04-.59-.04-1.25v-.94c0-.31-.01-.53-.04-.65-.04-.19-.12-.35-.22-.48-.1-.13-.27-.23-.49-.32-.22-.08-.51-.12-.87-.12s-.67.05-.95.15c-.27.1-.48.24-.62.42-.14.18-.25.42-.31.72l.69.09c.08-.3.19-.5.35-.62.16-.12.4-.17.74-.17.36,0,.62.08.81.24.13.12.2.32.2.61,0,.02,0,.09,0,.18-.27.09-.69.17-1.26.24-.28.03-.49.07-.63.1-.19.05-.36.13-.51.23-.15.1-.27.24-.36.41-.09.17-.14.36-.14.56,0,.35.12.63.37.86.25.22.6.33,1.06.33.28,0,.54-.04.78-.14.24-.09.49-.25.76-.47.02.2.07.37.14.51m-8.86,0v-2.16c0-.38.04-.67.11-.87.08-.2.2-.35.37-.46.17-.11.35-.16.55-.16.26,0,.45.08.57.24.12.16.17.39.17.71v2.71h.71v-2.42c0-.43.1-.74.29-.94.19-.19.44-.29.73-.29.16,0,.3.04.43.11.12.08.2.18.25.3.05.12.07.33.07.61v2.63h.7v-2.86c0-.48-.11-.83-.33-1.06-.22-.23-.54-.34-.95-.34-.53,0-.96.24-1.29.73-.08-.23-.22-.41-.42-.54-.2-.13-.45-.19-.76-.19-.28,0-.52.06-.74.19-.22.13-.39.29-.52.49v-.58h-.63v4.17h.71Zm-4.28-3.36c.22-.22.49-.33.82-.33.36,0,.65.14.88.41.15.17.24.44.27.79h-2.33c.02-.36.15-.65.37-.87m1.52,2.67c-.18.14-.4.2-.66.2-.35,0-.64-.12-.87-.37-.23-.24-.36-.59-.39-1.05h3.11c0-.09,0-.15,0-.19,0-.69-.18-1.22-.53-1.6-.35-.38-.81-.57-1.37-.57s-1.04.19-1.41.58c-.36.39-.54.93-.54,1.63s.18,1.2.54,1.58c.36.38.84.56,1.45.56.48,0,.88-.12,1.19-.35.31-.24.52-.57.64-.99l-.73-.09c-.11.3-.25.52-.44.65m-6.2.69v-2.61h2.7v-.68h-2.7v-1.78h3.12v-.68h-3.88v5.76h.76Z" fill="#4e4e4e"/><line x1="34.79" y1="44.95" x2="37.24" y2="44.95" fill="none" stroke="#333" stroke-linejoin="round" stroke-width=".96"/><line x1="34.79" y1="28.71" x2="37.24" y2="28.71" fill="none" stroke="#333" stroke-linejoin="round" stroke-width=".96"/><line x1="60.59" y1="57.15" x2="60.59" y2="54.7" fill="none" stroke="#333" stroke-linejoin="round" stroke-width=".96"/><line x1="116.18" y1="57.15" x2="116.18" y2="54.7" fill="none" stroke="#333" stroke-linejoin="round" stroke-width=".96"/><line x1="171.77" y1="57.15" x2="171.77" y2="54.7" fill="none" stroke="#333" stroke-linejoin="round" stroke-width=".96"/><line x1="227.36" y1="57.15" x2="227.36" y2="54.7" fill="none" stroke="#333" stroke-linejoin="round" stroke-width=".96"/><line x1="282.94" y1="57.15" x2="282.94" y2="54.7" fill="none" stroke="#333" stroke-linejoin="round" stroke-width=".96"/></g><g clip-path="url(#c)" fill="none"><path d="m287.73,60.09c.19-.27.45-.41.78-.41s.61.16.83.47c.22.31.33.94.33,1.89s-.11,1.57-.33,1.88c-.22.31-.49.47-.82.47s-.6-.16-.82-.47c-.22-.31-.33-.94-.33-1.89s.12-1.59.37-1.94m-.52,4.29c.32.4.75.6,1.31.6.42,0,.77-.11,1.05-.34.28-.23.48-.55.62-.96.14-.41.21-.96.21-1.63,0-.57-.04-1.02-.13-1.36-.09-.34-.21-.62-.36-.86-.15-.23-.35-.41-.58-.54-.23-.12-.5-.19-.81-.19-.42,0-.77.11-1.04.34-.27.22-.48.55-.62.96-.14.41-.21.96-.21,1.64,0,1.08.19,1.86.57,2.34m-2.38-5.28h-.45c-.12.25-.33.51-.63.77-.3.26-.64.49-1.04.67v.68c.22-.08.47-.2.74-.36.28-.16.5-.33.67-.49v4.51h.71v-5.78Zm-3.7,4.98h-.81v.81h.81v-.81Zm-4.58-3.98c.19-.27.45-.41.78-.41s.61.16.83.47c.22.31.33.94.33,1.89s-.11,1.57-.33,1.88c-.22.31-.49.47-.82.47s-.6-.16-.82-.47c-.22-.31-.33-.94-.33-1.89s.12-1.59.36-1.94m-.52,4.29c.32.4.75.6,1.31.6.42,0,.77-.11,1.05-.34.28-.23.48-.55.62-.96.14-.41.21-.96.21-1.63,0-.57-.04-1.02-.13-1.36-.09-.34-.21-.62-.36-.86-.15-.23-.35-.41-.58-.54-.23-.12-.5-.19-.81-.19-.42,0-.77.11-1.04.34-.28.22-.48.55-.62.96-.14.41-.21.96-.21,1.64,0,1.08.19,1.86.57,2.34m-44.41.16c.33.29.76.44,1.28.44.64,0,1.14-.23,1.51-.7.3-.38.46-.83.46-1.35,0-.55-.17-.99-.52-1.34-.35-.35-.77-.52-1.27-.52-.38,0-.74.12-1.09.36l.31-1.55h2.3v-.68h-2.86l-.56,2.96.66.09c.1-.16.25-.3.43-.4.18-.1.39-.16.62-.16.37,0,.66.12.89.35.23.23.34.55.34.95,0,.43-.12.77-.35,1.02-.23.26-.52.39-.86.39-.28,0-.52-.09-.72-.27-.2-.18-.33-.45-.38-.81l-.74.06c.05.48.24.87.57,1.17m-3.95-4.44c.19-.27.45-.41.78-.41s.61.16.83.47c.22.31.33.94.33,1.89s-.11,1.57-.33,1.88c-.22.31-.49.47-.82.47s-.6-.16-.82-.47c-.22-.31-.33-.94-.33-1.89s.12-1.59.37-1.94m-.52,4.29c.32.4.75.6,1.31.6.42,0,.77-.11,1.05-.34.28-.23.48-.55.62-.96.14-.41.21-.96.21-1.63,0-.57-.05-1.02-.13-1.36-.09-.34-.2-.62-.36-.86-.15-.23-.34-.41-.58-.54-.23-.12-.51-.19-.81-.19-.42,0-.77.11-1.04.34-.28.22-.48.55-.62.96-.14.41-.21.96-.21,1.64,0,1.08.19,1.86.57,2.34m-1.6-.31h-.8v.81h.8v-.81Zm-4.58-3.98c.19-.27.45-.41.78-.41s.61.16.83.47c.22.31.33.94.33,1.89s-.11,1.57-.33,1.88c-.22.31-.49.47-.82.47s-.6-.16-.82-.47c-.22-.31-.33-.94-.33-1.89s.12-1.59.37-1.94m-.52,4.29c.32.4.75.6,1.31.6.42,0,.77-.11,1.05-.34.28-.23.49-.55.62-.96.14-.41.21-.96.21-1.63,0-.57-.04-1.02-.13-1.36-.09-.34-.21-.62-.36-.86-.15-.23-.34-.41-.58-.54-.23-.12-.51-.19-.81-.19-.42,0-.77.11-1.04.34-.28.22-.48.55-.62.96-.14.41-.21.96-.21,1.64,0,1.08.19,1.86.57,2.34m-43.89-4.29c.19-.27.45-.41.78-.41s.61.16.83.47c.22.31.33.94.33,1.89s-.11,1.57-.33,1.88c-.22.31-.49.47-.82.47s-.6-.16-.82-.47c-.22-.31-.33-.94-.33-1.89s.12-1.59.37-1.94m-.52,4.29c.32.4.75.6,1.31.6.42,0,.77-.11,1.05-.34.28-.23.48-.55.62-.96.14-.41.21-.96.21-1.63,0-.57-.04-1.02-.13-1.36-.09-.34-.2-.62-.36-.86-.15-.23-.35-.41-.58-.54-.23-.12-.51-.19-.81-.19-.42,0-.77.11-1.04.34-.28.22-.48.55-.62.96-.14.41-.21.96-.21,1.64,0,1.08.19,1.86.57,2.34m-3.95-4.29c.2-.27.45-.41.78-.41s.6.16.83.47c.22.31.33.94.33,1.89s-.11,1.57-.33,1.88c-.22.31-.49.47-.82.47s-.6-.16-.82-.47c-.22-.31-.33-.94-.33-1.89s.12-1.59.36-1.94m-.52,4.29c.32.4.75.6,1.31.6.42,0,.77-.11,1.05-.34.28-.23.48-.55.62-.96.14-.41.21-.96.21-1.63,0-.57-.04-1.02-.13-1.36-.09-.34-.21-.62-.36-.86-.15-.23-.34-.41-.58-.54-.23-.12-.5-.19-.81-.19-.42,0-.76.11-1.04.34-.27.22-.48.55-.62.96-.14.41-.21.96-.21,1.64,0,1.08.19,1.86.57,2.34m-1.6-.31h-.8v.81h.8v-.81Zm-4.58-3.98c.2-.27.45-.41.78-.41s.6.16.83.47c.22.31.33.94.33,1.89s-.11,1.57-.33,1.88c-.22.31-.49.47-.82.47s-.6-.16-.82-.47c-.22-.31-.33-.94-.33-1.89s.12-1.59.36-1.94m-.52,4.29c.32.4.75.6,1.31.6.42,0,.77-.11,1.05-.34.28-.23.48-.55.62-.96.14-.41.21-.96.21-1.63,0-.57-.04-1.02-.13-1.36-.08-.34-.21-.62-.36-.86-.15-.23-.34-.41-.58-.54-.23-.12-.5-.19-.81-.19-.42,0-.76.11-1.04.34-.28.22-.48.55-.62.96-.14.41-.21.96-.21,1.64,0,1.08.19,1.86.57,2.34m-42.07.16c.33.29.76.44,1.28.44.64,0,1.14-.23,1.51-.7.3-.38.46-.83.46-1.35,0-.55-.17-.99-.52-1.34-.35-.35-.77-.52-1.27-.52-.38,0-.74.12-1.09.36l.31-1.55h2.3v-.68h-2.86l-.56,2.96.66.09c.11-.16.25-.3.43-.4.18-.1.39-.16.62-.16.37,0,.66.12.89.35.23.23.34.55.34.95,0,.43-.12.77-.35,1.02-.23.26-.52.39-.86.39-.28,0-.52-.09-.73-.27-.2-.18-.33-.45-.38-.81l-.74.06c.05.48.24.87.57,1.17m-3.95-4.44c.19-.27.45-.41.78-.41s.61.16.83.47c.22.31.33.94.33,1.89s-.11,1.57-.33,1.88c-.22.31-.49.47-.82.47s-.6-.16-.82-.47c-.22-.31-.33-.94-.33-1.89s.12-1.59.37-1.94m-.52,4.29c.32.4.75.6,1.31.6.42,0,.77-.11,1.05-.34.28-.23.48-.55.62-.96.14-.41.21-.96.21-1.63,0-.57-.04-1.02-.13-1.36-.09-.34-.21-.62-.36-.86-.15-.23-.35-.41-.58-.54-.23-.12-.5-.19-.81-.19-.42,0-.77.11-1.04.34-.28.22-.48.55-.62.96-.14.41-.21.96-.21,1.64,0,1.08.19,1.86.57,2.34m-1.6-.31h-.81v.81h.81v-.81Zm-4.58-3.98c.19-.27.45-.41.78-.41s.61.16.83.47c.22.31.33.94.33,1.89s-.11,1.57-.33,1.88c-.22.31-.49.47-.82.47s-.6-.16-.82-.47c-.22-.31-.33-.94-.33-1.89s.12-1.59.37-1.94m-.52,4.29c.32.4.75.6,1.31.6.42,0,.77-.11,1.05-.34.28-.23.48-.55.62-.96.14-.41.21-.96.21-1.63,0-.57-.05-1.02-.13-1.36-.09-.34-.21-.62-.36-.86-.15-.23-.35-.41-.58-.54-.23-.12-.5-.19-.81-.19-.42,0-.77.11-1.04.34-.28.22-.48.55-.62.96-.14.41-.21.96-.21,1.64,0,1.08.19,1.86.57,2.34m-1.35-2.67h-3.8v.66h3.8v-.66Zm-42.54-1.61c.2-.27.45-.41.78-.41s.61.16.83.47c.22.31.33.94.33,1.89s-.11,1.57-.33,1.88c-.22.31-.49.47-.82.47s-.6-.16-.82-.47c-.22-.31-.33-.94-.33-1.89s.12-1.59.36-1.94m-.52,4.29c.32.4.75.6,1.31.6.42,0,.77-.11,1.05-.34.28-.23.48-.55.62-.96.14-.41.21-.96.21-1.63,0-.57-.04-1.02-.13-1.36-.09-.34-.2-.62-.36-.86s-.34-.41-.58-.54c-.23-.12-.5-.19-.81-.19-.42,0-.77.11-1.04.34-.28.22-.48.55-.62.96-.14.41-.21.96-.21,1.64,0,1.08.19,1.86.57,2.34m-2.38-5.28h-.46c-.12.25-.33.51-.63.77s-.64.49-1.04.67v.68c.22-.08.47-.2.74-.36.28-.16.5-.33.67-.49v4.51h.71v-5.78Zm-3.7,4.98h-.81v.81h.81v-.81Zm-4.58-3.98c.19-.27.45-.41.78-.41s.61.16.83.47c.22.31.33.94.33,1.89s-.11,1.57-.33,1.88c-.22.31-.5.47-.82.47s-.6-.16-.82-.47c-.22-.31-.33-.94-.33-1.89s.12-1.59.37-1.94m-.52,4.29c.32.4.75.6,1.31.6.42,0,.77-.11,1.05-.34.28-.23.48-.55.62-.96.14-.41.21-.96.21-1.63,0-.57-.04-1.02-.13-1.36-.09-.34-.21-.62-.36-.86-.15-.23-.35-.41-.58-.54-.23-.12-.51-.19-.81-.19-.42,0-.77.11-1.04.34-.28.22-.49.55-.62.96-.14.41-.21.96-.21,1.64,0,1.08.19,1.86.57,2.34m-1.35-2.67h-3.8v.66h3.8v-.66Z" fill="#4e4e4e"/></g><path d="m111.95,11.41c.35.28.85.41,1.52.41.4,0,.76-.07,1.08-.21.32-.14.56-.34.73-.59.17-.26.25-.52.25-.81s-.07-.54-.21-.74c-.14-.2-.33-.35-.57-.45s-.67-.24-1.28-.4c-.42-.11-.68-.19-.76-.22-.15-.06-.26-.14-.33-.23-.07-.09-.11-.19-.11-.3,0-.18.08-.33.26-.46.17-.13.45-.2.85-.2.34,0,.6.07.78.22.18.15.29.35.33.61l.84-.11c-.05-.33-.15-.59-.3-.79-.14-.2-.37-.35-.67-.47-.3-.12-.65-.17-1.05-.17-.27,0-.52.04-.75.1-.23.07-.42.15-.55.25-.18.13-.32.29-.42.48-.1.19-.16.4-.16.63,0,.25.06.48.19.68.13.21.31.37.56.48s.68.26,1.32.42c.47.12.77.22.88.29.17.11.25.27.25.46,0,.22-.1.41-.29.57-.19.16-.49.24-.88.24s-.7-.09-.92-.27c-.22-.18-.35-.44-.4-.79l-.86.13c.1.54.32.95.66,1.22m-1.49.3v-.83h-4.32v-2.39h3.89v-.83h-3.89v-2.15h4.15v-.83h-5.09v7.04h5.25Zm-8.08-1.13c-.36.3-.8.45-1.33.45-.43,0-.83-.11-1.2-.33-.37-.22-.64-.55-.81-1-.18-.45-.26-.97-.26-1.57,0-.46.07-.91.22-1.35s.4-.78.77-1.04c.36-.26.82-.39,1.36-.39.47,0,.86.12,1.17.35.31.23.55.61.71,1.12l.92-.22c-.19-.65-.52-1.15-1-1.51-.48-.36-1.07-.54-1.78-.54-.62,0-1.19.14-1.71.42-.52.28-.92.7-1.2,1.24-.28.54-.42,1.18-.42,1.92,0,.67.12,1.3.37,1.89.25.59.61,1.03,1.09,1.34.48.31,1.09.46,1.85.46s1.35-.2,1.86-.6c.51-.4.86-.98,1.05-1.75l-.93-.23c-.13.59-.37,1.04-.73,1.34m-11.61,1.13v-5.99l2.04,5.99h.84l2.04-5.89v5.89h.9v-7.04h-1.25l-1.68,4.9c-.17.5-.29.87-.37,1.13-.07-.23-.18-.58-.33-1.04l-1.67-4.98h-1.4v7.04h.9Zm-5.39-4.95c.16-.45.29-.89.38-1.34.11.38.27.87.5,1.46l.73,1.95h-2.38l.77-2.06Zm-1.81,4.95l.77-2.13h2.94l.82,2.13h1.06l-2.88-7.04h-1l-2.7,7.04h.99Zm-7.32-4.02c.28-.34.61-.52.98-.52s.69.16.96.48c.27.32.4.81.4,1.46,0,.68-.14,1.18-.41,1.51-.27.33-.6.49-.99.49s-.7-.16-.96-.47c-.27-.32-.4-.8-.4-1.46s.14-1.16.42-1.5m-.34,5.97v-2.48c.15.18.33.34.56.46.23.12.49.18.77.18.39,0,.77-.11,1.12-.33.36-.22.63-.54.82-.96.19-.42.28-.89.28-1.41,0-.49-.08-.93-.25-1.34-.17-.41-.42-.72-.75-.95-.33-.22-.72-.34-1.15-.34-.33,0-.62.07-.85.2-.23.13-.44.32-.63.58v-.66h-.79v7.05h.86Zm-2.22-1.95v-5.1h-.86v2.73c0,.44-.05.77-.14,1-.09.23-.26.41-.48.54-.23.13-.47.2-.73.2s-.48-.06-.65-.19c-.18-.13-.29-.31-.35-.54-.04-.16-.05-.46-.05-.91v-2.83h-.86v3.16c0,.37.02.64.05.81.05.25.14.47.27.64.13.17.32.32.58.43.26.12.54.17.84.17.68,0,1.22-.29,1.62-.86v.75h.77Zm-8.58-4.01c.29-.32.64-.48,1.07-.48s.78.16,1.07.49c.29.33.43.8.43,1.43,0,.67-.14,1.17-.43,1.49-.29.33-.64.49-1.07.49s-.79-.16-1.07-.49c-.29-.33-.43-.81-.43-1.47s.14-1.14.43-1.46m-.66,3.44c.44.46,1.02.69,1.73.69.45,0,.85-.1,1.23-.31.38-.21.66-.5.86-.88.2-.38.3-.89.3-1.55,0-.81-.22-1.44-.67-1.9-.44-.46-1.02-.69-1.72-.69-.63,0-1.16.19-1.6.57-.52.46-.79,1.15-.79,2.1,0,.86.22,1.52.66,1.98m-2.76.57v-2.67c0-.37.05-.7.14-1.01.06-.2.17-.36.32-.47.15-.11.32-.17.51-.17.21,0,.42.06.63.19l.3-.8c-.3-.19-.6-.28-.89-.28-.2,0-.39.06-.56.17-.17.11-.35.35-.55.71v-.77h-.78v5.1h.86Zm-5.36-4.03c.27-.31.59-.47.98-.47s.72.16,1,.48c.28.32.41.79.41,1.41s-.13,1.13-.4,1.44c-.27.31-.6.46-1,.46s-.73-.15-1-.46c-.26-.31-.4-.79-.4-1.46,0-.61.13-1.08.4-1.39m-.58,5.69c.37.27.87.41,1.47.41.51,0,.94-.1,1.29-.29.35-.19.61-.45.77-.78.16-.33.24-.89.24-1.69v-4.41h-.8v.62c-.39-.49-.89-.73-1.49-.73-.45,0-.85.11-1.18.34-.33.22-.59.54-.76.95-.18.41-.26.86-.26,1.34,0,.71.19,1.31.57,1.82.38.51.93.76,1.63.76.56,0,1.03-.22,1.41-.67,0,.56-.02.93-.06,1.11-.08.29-.22.51-.44.67-.22.16-.53.24-.93.24-.37,0-.66-.08-.88-.24-.16-.12-.26-.31-.29-.57l-.84-.12c-.01.55.17.96.54,1.24m-4.65-5.67c.27-.33.6-.49.98-.49s.69.16.96.48c.26.32.4.81.4,1.47s-.14,1.14-.41,1.47-.6.49-.98.49c-.46,0-.83-.22-1.1-.67-.17-.27-.25-.71-.25-1.32s.14-1.1.41-1.42m-.4,3.37c.34.5.81.75,1.42.75s1.12-.24,1.55-.71c.43-.48.65-1.15.65-2.03,0-.37-.05-.71-.15-1.04-.1-.32-.24-.6-.43-.83s-.41-.41-.69-.53c-.28-.13-.58-.19-.89-.19-.57,0-1.03.23-1.4.69v-2.51h-.86v7.04h.8v-.64Zm-2.15.64v-5.1h-.86v2.73c0,.44-.05.77-.14,1-.09.23-.25.41-.48.54-.23.13-.47.2-.73.2s-.48-.06-.65-.19c-.18-.13-.29-.31-.35-.54-.04-.16-.05-.46-.05-.91v-2.83h-.86v3.16c0,.37.02.64.05.81.05.25.14.47.27.64.13.17.32.32.58.43.26.12.54.17.84.17.68,0,1.22-.29,1.62-.86v.75h.77Zm-10.49-1c.24.37.58.65,1.01.84.43.19.96.28,1.6.28.5,0,.95-.09,1.35-.28.4-.18.71-.44.92-.77.21-.33.32-.68.32-1.06s-.1-.71-.29-1c-.19-.29-.5-.53-.91-.72-.28-.13-.8-.28-1.56-.45-.76-.17-1.23-.34-1.4-.5-.18-.16-.27-.37-.27-.62,0-.29.13-.54.39-.75.26-.21.67-.31,1.23-.31s.95.11,1.23.34c.28.23.44.56.49,1.01l.89-.07c-.02-.41-.13-.78-.35-1.11-.21-.33-.52-.57-.92-.74-.4-.17-.86-.25-1.38-.25-.47,0-.9.08-1.29.24-.39.16-.68.39-.88.7-.2.31-.3.64-.3.99,0,.33.08.62.25.88.17.26.42.48.75.66.26.14.71.28,1.36.44.64.16,1.06.27,1.25.34.29.11.51.25.63.41.13.17.19.36.19.58s-.07.42-.2.6c-.13.18-.34.33-.61.43-.27.1-.59.16-.94.16-.4,0-.76-.07-1.08-.21-.32-.14-.56-.32-.71-.55-.15-.22-.25-.51-.29-.87l-.88.08c.01.47.14.89.39,1.27" fill="#010101"/><line x1="155.02" y1="13.78" x2="253.97" y2="13.78" fill="none" stroke="#db2d27" stroke-miterlimit="10"/><rect x="154.52" y="10.53" width="1" height="6.5" fill="#db2d27"/><rect x="253.47" y="10.53" width="1" height="6.5" fill="#db2d27"/><path d="m164.45,3h6.2v1.95h-2v5.05h-2.2v-5.05h-2v-1.95Z" fill="#db2d27"/><path d="m173.1,10h-1.95V2.2h1.95v7.8Zm.96-3.29c-.06-.12-.19-.17-.39-.17-.11,0-.21.02-.3.07-.09.05-.15.12-.2.22-.05.1-.07.22-.07.38h-.26c0-.37.05-.7.16-1.01.11-.3.28-.55.53-.73.25-.18.58-.27.99-.27s.74.07.97.2.38.33.48.58c.09.25.13.56.13.93v3.1h-1.95v-2.8c0-.21-.03-.37-.09-.49Z" fill="#db2d27"/><path d="m177.27,3.06c.21-.18.46-.27.76-.27s.56.09.77.27c.21.18.31.42.31.71s-.1.53-.31.71c-.21.18-.46.27-.77.27s-.55-.09-.76-.27c-.21-.18-.32-.42-.32-.71s.11-.53.32-.71Zm1.7,2.33v4.6h-1.87v-4.6h1.87Z" fill="#db2d27"/><path d="m181.07,8.66c.23.1.42.17.56.19.14.03.24.04.29.04.11,0,.18-.02.22-.06.04-.04.07-.1.07-.17,0-.06-.02-.11-.05-.16-.04-.05-.12-.1-.25-.15-.13-.06-.34-.13-.63-.21-.23-.07-.44-.17-.63-.27-.2-.11-.35-.26-.47-.46s-.18-.44-.18-.75c0-.29.08-.53.23-.74.15-.2.37-.36.64-.46.28-.11.61-.16.99-.16.28,0,.54.03.78.08s.47.12.7.19c.23.08.45.17.68.28l-.48,1.33c-.23-.19-.48-.35-.76-.47-.28-.12-.52-.17-.71-.17-.12,0-.2.02-.24.06s-.06.08-.06.13c0,.09.04.15.12.21.08.05.2.1.36.15.16.05.38.12.65.22.22.08.43.17.62.28s.35.25.47.42.18.41.18.7c0,.55-.16.94-.47,1.18-.31.24-.77.37-1.36.37-.35,0-.67-.03-.98-.08s-.6-.14-.88-.25c-.28-.11-.56-.23-.84-.38l.63-1.37c.32.23.59.39.83.5Z" fill="#db2d27"/><path d="m188.01,3.06c.21-.18.46-.27.76-.27s.56.09.77.27c.21.18.31.42.31.71s-.1.53-.31.71c-.21.18-.46.27-.77.27s-.55-.09-.76-.27c-.21-.18-.32-.42-.32-.71s.11-.53.32-.71Zm1.7,2.33v4.6h-1.87v-4.6h1.87Z" fill="#db2d27"/><path d="m191.81,8.66c.23.1.42.17.56.19.14.03.24.04.29.04.11,0,.18-.02.22-.06.04-.04.07-.1.07-.17,0-.06-.02-.11-.05-.16-.04-.05-.12-.1-.25-.15-.13-.06-.34-.13-.63-.21-.23-.07-.44-.17-.63-.27-.2-.11-.35-.26-.47-.46s-.18-.44-.18-.75c0-.29.08-.53.23-.74.15-.2.37-.36.64-.46.28-.11.61-.16.99-.16.28,0,.54.03.78.08s.47.12.7.19c.23.08.45.17.68.28l-.48,1.33c-.23-.19-.48-.35-.76-.47-.28-.12-.52-.17-.71-.17-.12,0-.2.02-.24.06s-.06.08-.06.13c0,.09.04.15.12.21.08.05.2.1.36.15.16.05.38.12.65.22.22.08.43.17.62.28s.35.25.47.42.18.41.18.7c0,.55-.16.94-.47,1.18-.31.24-.77.37-1.36.37-.35,0-.67-.03-.98-.08s-.6-.14-.88-.25c-.28-.11-.56-.23-.84-.38l.63-1.37c.32.23.59.39.83.5Z" fill="#db2d27"/><path d="m200.31,8.76c.04.06.1.1.17.13.07.03.15.04.23.04.13,0,.25-.03.37-.08.12-.06.21-.15.29-.27.08-.12.11-.29.11-.48l.16.6c0,.29-.07.54-.22.75s-.35.37-.6.48c-.25.11-.54.17-.86.17-.3,0-.58-.05-.83-.16-.25-.11-.46-.27-.61-.48s-.23-.48-.23-.79c0-.44.16-.79.46-1.04s.76-.38,1.34-.38c.24,0,.47.02.7.06s.42.09.6.17c.18.07.32.16.42.27v.79c-.11-.1-.26-.18-.46-.24-.19-.06-.38-.09-.58-.09-.13,0-.23.01-.3.04-.08.03-.13.06-.17.11s-.05.12-.05.19c0,.09.02.16.06.22Zm-1.67-3.01c.32-.13.68-.24,1.08-.35.4-.11.83-.16,1.27-.16s.83.06,1.18.18c.35.12.63.29.84.52.21.23.31.51.31.84v3.2h-1.85v-2.72c0-.09-.01-.17-.04-.24-.03-.07-.07-.14-.13-.19-.06-.06-.14-.1-.24-.13-.1-.03-.22-.04-.36-.04-.19,0-.38.02-.59.06-.21.04-.39.09-.55.15-.16.06-.27.1-.33.14l-.59-1.26Z" fill="#db2d27"/><path d="m214.77,10h-1.95v-2.8c0-.21-.03-.37-.09-.49-.06-.12-.17-.17-.32-.17-.08,0-.15.02-.22.07-.07.05-.12.12-.16.22s-.06.22-.06.38v2.8h-1.95v-2.8c0-.21-.03-.37-.09-.49-.06-.12-.17-.17-.32-.17-.08,0-.15.02-.22.07-.07.05-.12.12-.16.22s-.06.22-.06.38v2.8h-1.85v-4.6h1.85v.69c.13-.24.3-.43.53-.58.23-.15.51-.22.84-.22.38,0,.67.06.88.17.2.12.35.29.44.53.17-.21.39-.38.64-.51.25-.13.54-.19.85-.19.39,0,.68.07.89.2.2.13.34.33.42.58.08.25.12.56.12.93v3Z" fill="#db2d27"/><path d="m215.94,3.06c.21-.18.46-.27.76-.27s.56.09.77.27c.21.18.31.42.31.71s-.1.53-.31.71c-.21.18-.46.27-.77.27s-.55-.09-.76-.27c-.21-.18-.32-.42-.32-.71s.11-.53.32-.71Zm1.7,2.33v4.6h-1.87v-4.6h1.87Z" fill="#db2d27"/><path d="m220.53,10h-1.9v-4.6h1.9v4.6Zm1.06-2.82c-.09-.05-.21-.08-.34-.08-.11,0-.23.03-.34.1-.11.07-.21.17-.28.31-.07.14-.1.32-.1.54l-.36-.85c0-.37.08-.69.23-.98s.36-.52.61-.69.51-.26.79-.26c.17,0,.33.04.49.12.16.08.26.18.33.3l-.79,1.68c-.06-.08-.14-.15-.23-.2Z" fill="#db2d27"/><path d="m224.89,8.76c.04.06.1.1.17.13.07.03.15.04.23.04.13,0,.25-.03.37-.08.12-.06.21-.15.29-.27.08-.12.11-.29.11-.48l.16.6c0,.29-.07.54-.22.75s-.35.37-.6.48c-.25.11-.54.17-.86.17-.3,0-.58-.05-.83-.16-.25-.11-.46-.27-.61-.48s-.23-.48-.23-.79c0-.44.16-.79.46-1.04s.76-.38,1.34-.38c.24,0,.47.02.7.06s.42.09.6.17c.18.07.32.16.42.27v.79c-.11-.1-.26-.18-.46-.24-.19-.06-.38-.09-.58-.09-.13,0-.23.01-.3.04-.08.03-.13.06-.17.11s-.05.12-.05.19c0,.09.02.16.06.22Zm-1.67-3.01c.32-.13.68-.24,1.08-.35.4-.11.83-.16,1.27-.16s.83.06,1.18.18c.35.12.63.29.84.52.21.23.31.51.31.84v3.2h-1.85v-2.72c0-.09-.01-.17-.04-.24-.03-.07-.07-.14-.13-.19-.06-.06-.14-.1-.24-.13-.1-.03-.22-.04-.36-.04-.19,0-.38.02-.59.06-.21.04-.39.09-.55.15-.16.06-.27.1-.33.14l-.59-1.26Z" fill="#db2d27"/><path d="m229.02,6.29c.21-.34.48-.59.8-.75.33-.16.66-.25,1.01-.25.39,0,.73.09,1.04.27.3.18.54.44.73.77.18.34.27.76.27,1.26s-.09.91-.27,1.25c-.18.34-.42.6-.73.78-.3.18-.65.27-1.04.27-.35,0-.68-.08-1.01-.25-.33-.16-.59-.41-.8-.75-.21-.34-.32-.77-.32-1.3s.11-.97.32-1.31Zm1.65,4.06c.03.17.08.29.15.38.07.09.17.15.28.17.11.03.23.05.36.05.2,0,.37-.04.51-.12.14-.08.25-.2.32-.36s.11-.34.11-.56v-4.5h1.85v4.5c0,.63-.12,1.13-.35,1.5s-.55.64-.96.81c-.4.16-.87.25-1.38.25-.65,0-1.16-.09-1.54-.27-.38-.18-.67-.42-.85-.74-.18-.32-.3-.68-.36-1.09h1.87Zm.2-2.32c.07.12.17.21.3.28.13.06.26.09.41.09.13,0,.26-.03.39-.08.13-.06.23-.14.31-.26s.12-.27.12-.46c0-.14-.02-.26-.07-.36-.05-.1-.11-.18-.19-.25-.08-.07-.17-.12-.27-.15-.1-.03-.19-.05-.29-.05-.15,0-.28.03-.41.1-.13.06-.23.15-.3.27s-.11.26-.11.44.04.31.11.43Z" fill="#db2d27"/><path d="m236.39,9.81c-.43-.19-.76-.47-.99-.83-.23-.36-.34-.78-.34-1.28s.11-.94.33-1.3c.22-.36.54-.63.95-.82s.91-.29,1.5-.29,1.07.09,1.46.27c.4.18.7.44.9.78.2.34.3.76.3,1.26v.26c0,.08,0,.16-.02.23h-4.37v-.94h2.56l-.38.46c.04-.06.07-.12.1-.19.03-.07.04-.12.04-.17,0-.16-.03-.3-.08-.41-.05-.11-.13-.2-.22-.26s-.21-.09-.34-.09c-.18,0-.33.04-.44.12s-.2.21-.25.39-.08.4-.08.69c0,.23.02.43.08.59.06.16.16.29.28.38.12.09.28.13.46.13.24,0,.44-.04.6-.11s.28-.19.36-.33l1.78.28c-.25.49-.59.86-1.03,1.1-.44.24-.97.37-1.62.37-.6,0-1.11-.1-1.54-.29Z" fill="#db2d27"/><path d="m243.89,3l-.4,4.5h-1.6l-.4-4.5h2.4Zm-2.05,5.49c.22-.19.5-.29.85-.29s.64.1.86.29.33.45.33.76-.11.57-.33.76c-.22.19-.5.29-.86.29s-.63-.1-.85-.29c-.22-.19-.33-.45-.33-.76s.11-.57.33-.76Z" fill="#db2d27"/></svg>