<?xml version="1.0" encoding="UTF-8"?><svg id="a" xmlns="http://www.w3.org/2000/svg" width="300" height="294" xmlns:xlink="http://www.w3.org/1999/xlink" viewBox="0 0 300 294"><defs><clipPath id="b"><rect x="6.91" y="6.8" width="283.46" height="277.56" fill="none"/></clipPath><clipPath id="c"><rect x="6.93" y="6.8" width="283.44" height="277.56" fill="none"/></clipPath><clipPath id="d"><rect x="6.93" y="6.8" width="283.46" height="277.56" fill="none"/></clipPath><clipPath id="e"><rect x="6.93" y="6.8" width="283.44" height="277.56" fill="none"/></clipPath><clipPath id="f"><rect x="6.93" y="6.8" width="283.46" height="277.56" fill="none"/></clipPath><clipPath id="g"><rect x="6.93" y="6.8" width="283.44" height="277.56" fill="none"/></clipPath><clipPath id="h"><rect x="6.93" y="6.8" width="283.46" height="277.56" fill="none"/></clipPath><clipPath id="i"><rect x="6.93" y="6.8" width="283.44" height="277.56" fill="none"/></clipPath><clipPath id="j"><rect x="6.93" y="6.8" width="283.46" height="277.56" fill="none"/></clipPath></defs><rect y=".3" width="300" height="293.38" fill="#fff"/><g clip-path="url(#b)" fill="none"><line x1="171.75" y1="56.94" x2="171.75" y2="21.21" fill="none" stroke="#bcbcbc" stroke-linejoin="round" stroke-width=".96"/><path d="m174.02,47.23c0-1.25-1.02-2.27-2.27-2.27s-2.27,1.02-2.27,2.27,1.02,2.27,2.27,2.27,2.27-1.02,2.27-2.27" fill="#010101"/><path d="m174.02,47.23h-.32c0-1.08-.88-1.95-1.95-1.95-1.08,0-1.95.88-1.95,1.95,0,1.08.88,1.95,1.95,1.95,1.08,0,1.95-.88,1.95-1.95h.63c0,1.43-1.16,2.58-2.58,2.58s-2.59-1.16-2.59-2.58,1.16-2.59,2.59-2.59,2.58,1.16,2.58,2.59h-.32" fill="#010101"/><path d="m219.21,31c0-1.25-1.02-2.27-2.27-2.27s-2.27,1.02-2.27,2.27,1.02,2.27,2.27,2.27,2.27-1.02,2.27-2.27" fill="#010101"/><path d="m219.21,31h-.32c0-1.08-.88-1.95-1.95-1.95-1.08,0-1.95.88-1.95,1.95,0,1.08.87,1.95,1.95,1.95,1.08,0,1.95-.88,1.95-1.95h.63c0,1.43-1.16,2.59-2.59,2.59s-2.58-1.16-2.58-2.59,1.16-2.59,2.58-2.59,2.59,1.16,2.59,2.59h-.32" fill="#010101"/><line x1="236.81" y1="30.95" x2="197.08" y2="30.95" fill="none" stroke="#010101" stroke-linejoin="round" stroke-width=".38"/><path d="m29.79,46.72c.22-.22.49-.33.82-.33.36,0,.65.14.88.41.15.17.24.44.27.79h-2.33c.02-.36.15-.65.37-.87m1.52,2.67c-.18.14-.4.2-.66.2-.35,0-.64-.12-.87-.37-.23-.24-.36-.59-.39-1.05h3.11c0-.08,0-.15,0-.19,0-.69-.18-1.22-.53-1.6-.35-.38-.81-.57-1.37-.57s-1.04.19-1.4.58c-.36.39-.54.93-.54,1.63s.18,1.21.54,1.58c.36.38.84.56,1.45.56.49,0,.88-.12,1.19-.35.31-.24.53-.57.64-.99l-.73-.09c-.11.3-.25.52-.44.65m-3.51-5.07h-.71v5.76h.71v-5.76Zm-2.5,3.92c0,.31-.04.55-.11.71-.1.21-.26.37-.47.49-.21.12-.45.18-.73.18s-.48-.06-.63-.19c-.14-.13-.21-.28-.21-.47,0-.12.03-.23.1-.34.07-.1.16-.18.28-.23.12-.05.33-.1.62-.14.51-.07.9-.16,1.15-.27v.26Zm.2,1.83h.74c-.09-.16-.15-.33-.18-.5-.03-.17-.04-.59-.04-1.25v-.94c0-.32-.01-.53-.04-.65-.04-.19-.12-.35-.22-.48-.1-.13-.27-.23-.49-.32-.22-.08-.51-.12-.87-.12s-.68.05-.95.15c-.27.1-.48.24-.62.42-.14.18-.25.42-.31.72l.69.09c.08-.3.19-.5.35-.62.16-.12.4-.18.74-.18.36,0,.62.08.8.24.14.12.2.32.2.61,0,.03,0,.09,0,.18-.27.09-.69.17-1.26.24-.28.03-.49.07-.63.11-.19.05-.36.13-.51.23-.15.1-.27.24-.37.41-.09.17-.14.36-.14.56,0,.35.12.63.37.86s.6.34,1.06.34c.28,0,.54-.05.78-.14.24-.09.49-.25.76-.47.02.2.07.37.14.52m-8.76,0v-4.9l1.66,4.9h.69l1.67-4.82v4.82h.74v-5.76h-1.03l-1.38,4.01c-.14.4-.24.71-.31.92-.06-.19-.15-.47-.27-.85l-1.36-4.08h-1.15v5.76h.73Z" fill="#4e4e4e"/><path d="m29.79,30.48c.22-.22.49-.33.82-.33.36,0,.65.14.88.41.15.18.24.44.27.79h-2.33c.02-.36.15-.65.37-.87m1.52,2.67c-.18.14-.4.2-.66.2-.35,0-.64-.12-.87-.36-.23-.24-.36-.6-.39-1.05h3.11c0-.08,0-.15,0-.19,0-.69-.18-1.22-.53-1.6s-.81-.57-1.37-.57-1.04.19-1.41.58c-.36.39-.54.93-.54,1.63s.18,1.21.54,1.58c.36.38.84.56,1.45.56.48,0,.88-.12,1.19-.35.31-.24.52-.57.64-.99l-.73-.09c-.11.3-.25.52-.44.65m-3.51-5.07h-.71v5.76h.71v-5.76Zm-2.5,3.92c0,.31-.04.55-.12.71-.1.21-.25.37-.47.49-.21.12-.45.18-.73.18s-.48-.06-.63-.19c-.14-.13-.21-.28-.21-.47,0-.12.03-.23.1-.34.07-.1.16-.18.28-.23.12-.05.33-.1.62-.14.51-.07.9-.16,1.15-.27v.26Zm.2,1.83h.74c-.09-.16-.15-.33-.18-.5-.03-.17-.04-.59-.04-1.25v-.94c0-.32-.01-.53-.04-.65-.04-.19-.12-.35-.22-.48-.1-.13-.27-.23-.49-.32-.22-.08-.51-.12-.87-.12s-.67.05-.95.15c-.27.1-.48.24-.62.42-.14.18-.25.42-.31.72l.69.09c.08-.3.19-.5.35-.62.16-.12.4-.18.74-.18.36,0,.62.08.81.24.13.12.2.32.2.61,0,.03,0,.09,0,.18-.27.09-.69.17-1.26.24-.28.03-.49.07-.63.11-.19.05-.36.13-.51.23-.15.1-.27.24-.36.41-.09.17-.14.36-.14.56,0,.35.12.63.37.86.25.22.6.34,1.06.34.28,0,.54-.05.78-.14.24-.09.49-.25.76-.47.02.2.07.37.14.52m-8.86,0v-2.16c0-.38.04-.67.11-.87.08-.2.2-.35.37-.46.17-.1.35-.16.55-.16.26,0,.45.08.57.24.12.16.17.39.17.71v2.71h.71v-2.42c0-.43.1-.74.29-.94.19-.2.44-.29.73-.29.16,0,.3.04.43.11.12.08.2.18.25.3.05.12.07.33.07.61v2.63h.7v-2.86c0-.48-.11-.83-.33-1.06-.22-.23-.54-.34-.95-.34-.53,0-.96.24-1.29.73-.08-.23-.22-.41-.42-.54-.2-.13-.45-.19-.76-.19-.28,0-.52.06-.74.19-.22.12-.39.29-.52.49v-.58h-.63v4.17h.71Zm-4.28-3.36c.22-.22.49-.33.82-.33.36,0,.65.14.88.41.15.18.24.44.27.79h-2.33c.02-.36.15-.65.37-.87m1.52,2.67c-.18.14-.4.2-.66.2-.35,0-.64-.12-.87-.36-.23-.24-.36-.6-.39-1.05h3.11c0-.08,0-.15,0-.19,0-.69-.18-1.22-.53-1.6-.35-.38-.81-.57-1.37-.57s-1.04.19-1.41.58c-.36.39-.54.93-.54,1.63s.18,1.21.54,1.58c.36.38.84.56,1.45.56.48,0,.88-.12,1.19-.35.31-.24.52-.57.64-.99l-.73-.09c-.11.3-.25.52-.44.65m-6.2.69v-2.61h2.7v-.68h-2.7v-1.78h3.12v-.68h-3.88v5.76h.76Z" fill="#4e4e4e"/><line x1="34.78" y1="47.19" x2="37.23" y2="47.19" fill="none" stroke="#333" stroke-linejoin="round" stroke-width=".96"/><line x1="34.78" y1="30.95" x2="37.23" y2="30.95" fill="none" stroke="#333" stroke-linejoin="round" stroke-width=".96"/><line x1="60.58" y1="59.39" x2="60.58" y2="56.94" fill="none" stroke="#333" stroke-linejoin="round" stroke-width=".96"/><line x1="116.17" y1="59.39" x2="116.17" y2="56.94" fill="none" stroke="#333" stroke-linejoin="round" stroke-width=".96"/><line x1="171.75" y1="59.39" x2="171.75" y2="56.94" fill="none" stroke="#333" stroke-linejoin="round" stroke-width=".96"/><line x1="227.34" y1="59.39" x2="227.34" y2="56.94" fill="none" stroke="#333" stroke-linejoin="round" stroke-width=".96"/><line x1="282.93" y1="59.39" x2="282.93" y2="56.94" fill="none" stroke="#333" stroke-linejoin="round" stroke-width=".96"/></g><g clip-path="url(#c)" fill="none"><path d="m287.73,62.34c.19-.27.45-.41.78-.41s.61.16.83.47c.22.31.33.94.33,1.89s-.11,1.57-.33,1.88c-.22.32-.49.47-.82.47s-.6-.16-.82-.47c-.22-.31-.33-.94-.33-1.89s.12-1.59.37-1.95m-.52,4.28c.32.4.75.6,1.31.6.42,0,.77-.11,1.05-.34.28-.23.48-.55.62-.96.14-.41.21-.96.21-1.64,0-.57-.04-1.02-.13-1.36-.09-.34-.21-.62-.36-.86-.15-.23-.35-.41-.58-.54-.23-.12-.5-.19-.81-.19-.42,0-.77.11-1.04.34-.27.23-.48.55-.62.96-.14.41-.21.96-.21,1.64,0,1.08.19,1.86.57,2.34m-2.38-5.28h-.45c-.12.25-.33.51-.63.77-.3.26-.64.49-1.04.67v.68c.22-.08.47-.2.74-.37.28-.16.5-.32.67-.49v4.5h.71v-5.78Zm-3.7,4.97h-.81v.81h.81v-.81Zm-4.58-3.98c.19-.27.45-.41.78-.41s.61.16.83.47c.22.31.33.94.33,1.89s-.11,1.57-.33,1.88c-.22.32-.49.47-.82.47s-.6-.16-.82-.47c-.22-.31-.33-.94-.33-1.89s.12-1.59.36-1.95m-.52,4.28c.32.4.75.6,1.31.6.42,0,.77-.11,1.05-.34.28-.23.48-.55.62-.96.14-.41.21-.96.21-1.64,0-.57-.04-1.02-.13-1.36-.09-.34-.21-.62-.36-.86-.15-.23-.35-.41-.58-.54-.23-.12-.5-.19-.81-.19-.42,0-.77.11-1.04.34-.28.23-.48.55-.62.96-.14.41-.21.96-.21,1.64,0,1.08.19,1.86.57,2.34m-44.41.16c.33.29.76.44,1.28.44.64,0,1.14-.23,1.51-.7.3-.38.46-.83.46-1.35,0-.55-.17-.99-.52-1.34-.35-.35-.77-.52-1.27-.52-.38,0-.74.12-1.09.36l.31-1.55h2.3v-.67h-2.86l-.56,2.96.66.09c.1-.16.25-.3.43-.4.18-.1.39-.16.62-.16.37,0,.66.12.89.35.23.23.34.55.34.95,0,.42-.12.76-.35,1.02-.23.26-.52.38-.86.38-.28,0-.52-.09-.72-.27-.2-.18-.33-.46-.38-.82l-.74.06c.05.48.24.87.57,1.17m-3.95-4.44c.19-.27.45-.41.78-.41s.61.16.83.47c.22.31.33.94.33,1.89s-.11,1.57-.33,1.88c-.22.32-.49.47-.82.47s-.6-.16-.82-.47c-.22-.31-.33-.94-.33-1.89s.12-1.59.37-1.95m-.52,4.28c.32.4.75.6,1.31.6.42,0,.77-.11,1.05-.34.28-.23.48-.55.62-.96.14-.41.21-.96.21-1.64,0-.57-.05-1.02-.13-1.36-.09-.34-.2-.62-.36-.86-.15-.23-.34-.41-.58-.54-.23-.12-.51-.19-.81-.19-.42,0-.77.11-1.04.34-.28.23-.48.55-.62.96-.14.41-.21.96-.21,1.64,0,1.08.19,1.86.57,2.34m-1.6-.31h-.8v.81h.8v-.81Zm-4.58-3.98c.19-.27.45-.41.78-.41s.61.16.83.47c.22.31.33.94.33,1.89s-.11,1.57-.33,1.88c-.22.32-.49.47-.82.47s-.6-.16-.82-.47c-.22-.31-.33-.94-.33-1.89s.12-1.59.37-1.95m-.52,4.28c.32.4.75.6,1.31.6.42,0,.77-.11,1.05-.34.28-.23.49-.55.62-.96.14-.41.21-.96.21-1.64,0-.57-.04-1.02-.13-1.36-.09-.34-.21-.62-.36-.86-.15-.23-.34-.41-.58-.54-.23-.12-.51-.19-.81-.19-.42,0-.77.11-1.04.34-.28.23-.48.55-.62.96-.14.41-.21.96-.21,1.64,0,1.08.19,1.86.57,2.34m-43.89-4.28c.19-.27.45-.41.78-.41s.61.16.83.47c.22.31.33.94.33,1.89s-.11,1.57-.33,1.88c-.22.32-.49.47-.82.47s-.6-.16-.82-.47c-.22-.31-.33-.94-.33-1.89s.12-1.59.37-1.95m-.52,4.28c.32.4.75.6,1.31.6.42,0,.77-.11,1.05-.34.28-.23.48-.55.62-.96.14-.41.21-.96.21-1.64,0-.57-.04-1.02-.13-1.36-.09-.34-.2-.62-.36-.86-.15-.23-.35-.41-.58-.54-.23-.12-.51-.19-.81-.19-.42,0-.77.11-1.04.34-.28.23-.48.55-.62.96-.14.41-.21.96-.21,1.64,0,1.08.19,1.86.57,2.34m-3.95-4.28c.2-.27.45-.41.78-.41s.6.16.83.47c.22.31.33.94.33,1.89s-.11,1.57-.33,1.88c-.22.32-.49.47-.82.47s-.6-.16-.82-.47c-.22-.31-.33-.94-.33-1.89s.12-1.59.36-1.95m-.52,4.28c.32.4.75.6,1.31.6.42,0,.77-.11,1.05-.34.28-.23.48-.55.62-.96.14-.41.21-.96.21-1.64,0-.57-.04-1.02-.13-1.36-.09-.34-.21-.62-.36-.86-.15-.23-.34-.41-.58-.54-.23-.12-.5-.19-.81-.19-.42,0-.76.11-1.04.34-.27.23-.48.55-.62.96-.14.41-.21.96-.21,1.64,0,1.08.19,1.86.57,2.34m-1.6-.31h-.8v.81h.8v-.81Zm-4.58-3.98c.2-.27.45-.41.78-.41s.6.16.83.47c.22.31.33.94.33,1.89s-.11,1.57-.33,1.88c-.22.32-.49.47-.82.47s-.6-.16-.82-.47c-.22-.31-.33-.94-.33-1.89s.12-1.59.36-1.95m-.52,4.28c.32.4.75.6,1.31.6.42,0,.77-.11,1.05-.34.28-.23.48-.55.62-.96.14-.41.21-.96.21-1.64,0-.57-.04-1.02-.13-1.36-.08-.34-.21-.62-.36-.86-.15-.23-.34-.41-.58-.54-.23-.12-.5-.19-.81-.19-.42,0-.76.11-1.04.34-.28.23-.48.55-.62.96-.14.41-.21.96-.21,1.64,0,1.08.19,1.86.57,2.34m-42.07.16c.33.29.76.44,1.28.44.64,0,1.14-.23,1.51-.7.3-.38.46-.83.46-1.35,0-.55-.17-.99-.52-1.34-.35-.35-.77-.52-1.27-.52-.38,0-.74.12-1.09.36l.31-1.55h2.3v-.67h-2.86l-.56,2.96.66.09c.11-.16.25-.3.43-.4.18-.1.39-.16.62-.16.37,0,.66.12.89.35.23.23.34.55.34.95,0,.42-.12.76-.35,1.02-.23.26-.52.38-.86.38-.28,0-.52-.09-.73-.27-.2-.18-.33-.46-.38-.82l-.74.06c.05.48.24.87.57,1.17m-3.95-4.44c.19-.27.45-.41.78-.41s.61.16.83.47c.22.31.33.94.33,1.89s-.11,1.57-.33,1.88c-.22.32-.49.47-.82.47s-.6-.16-.82-.47c-.22-.31-.33-.94-.33-1.89s.12-1.59.37-1.95m-.52,4.28c.32.4.75.6,1.31.6.42,0,.77-.11,1.05-.34.28-.23.48-.55.62-.96.14-.41.21-.96.21-1.64,0-.57-.04-1.02-.13-1.36-.09-.34-.21-.62-.36-.86-.15-.23-.35-.41-.58-.54-.23-.12-.5-.19-.81-.19-.42,0-.77.11-1.04.34-.28.23-.48.55-.62.96-.14.41-.21.96-.21,1.64,0,1.08.19,1.86.57,2.34m-1.6-.31h-.81v.81h.81v-.81Zm-4.58-3.98c.19-.27.45-.41.78-.41s.61.16.83.47c.22.31.33.94.33,1.89s-.11,1.57-.33,1.88c-.22.32-.49.47-.82.47s-.6-.16-.82-.47c-.22-.31-.33-.94-.33-1.89s.12-1.59.37-1.95m-.52,4.28c.32.4.75.6,1.31.6.42,0,.77-.11,1.05-.34.28-.23.48-.55.62-.96.14-.41.21-.96.21-1.64,0-.57-.05-1.02-.13-1.36-.09-.34-.21-.62-.36-.86-.15-.23-.35-.41-.58-.54-.23-.12-.5-.19-.81-.19-.42,0-.77.11-1.04.34-.28.23-.48.55-.62.96-.14.41-.21.96-.21,1.64,0,1.08.19,1.86.57,2.34m-1.35-2.67h-3.8v.66h3.8v-.66Zm-42.54-1.62c.2-.27.45-.41.78-.41s.61.16.83.47c.22.31.33.94.33,1.89s-.11,1.57-.33,1.88c-.22.32-.49.47-.82.47s-.6-.16-.82-.47c-.22-.31-.33-.94-.33-1.89s.12-1.59.36-1.95m-.52,4.28c.32.4.75.6,1.31.6.42,0,.77-.11,1.05-.34.28-.23.48-.55.62-.96.14-.41.21-.96.21-1.64,0-.57-.04-1.02-.13-1.36-.09-.34-.2-.62-.36-.86-.15-.23-.34-.41-.58-.54-.23-.12-.5-.19-.81-.19-.42,0-.77.11-1.04.34-.28.23-.48.55-.62.96s-.21.96-.21,1.64c0,1.08.19,1.86.57,2.34m-2.38-5.28h-.46c-.12.25-.33.51-.63.77-.3.26-.64.49-1.04.67v.68c.22-.08.47-.2.74-.37.28-.16.5-.32.67-.49v4.5h.71v-5.78Zm-3.7,4.97h-.81v.81h.81v-.81Zm-4.58-3.98c.19-.27.45-.41.78-.41s.61.16.83.47c.22.31.33.94.33,1.89s-.11,1.57-.33,1.88c-.22.32-.5.47-.82.47s-.6-.16-.82-.47c-.22-.31-.33-.94-.33-1.89s.12-1.59.37-1.95m-.52,4.28c.32.4.75.6,1.31.6.42,0,.77-.11,1.05-.34.28-.23.48-.55.62-.96.14-.41.21-.96.21-1.64,0-.57-.04-1.02-.13-1.36-.09-.34-.21-.62-.36-.86-.15-.23-.35-.41-.58-.54-.23-.12-.51-.19-.81-.19-.42,0-.77.11-1.04.34-.28.23-.49.55-.62.96-.14.41-.21.96-.21,1.64,0,1.08.19,1.86.57,2.34m-1.35-2.67h-3.8v.66h3.8v-.66Z" fill="#4e4e4e"/></g><g clip-path="url(#d)" fill="none"><path d="m121.22,13.66c.35.28.85.41,1.52.41.4,0,.76-.07,1.07-.21.32-.14.56-.34.73-.59.17-.26.25-.53.25-.82s-.07-.54-.21-.74c-.14-.2-.33-.35-.57-.45-.24-.11-.67-.24-1.28-.4-.42-.11-.68-.19-.76-.22-.15-.06-.26-.14-.33-.23-.07-.09-.11-.19-.11-.3,0-.18.08-.33.25-.46.17-.13.45-.2.85-.2.33,0,.6.07.78.22.18.15.29.35.33.61l.84-.11c-.06-.33-.15-.59-.3-.79-.14-.2-.37-.35-.67-.47-.3-.11-.65-.17-1.05-.17-.26,0-.51.03-.75.1-.23.07-.42.15-.55.25-.18.13-.32.29-.42.48-.1.19-.16.4-.16.63,0,.25.06.48.19.68.13.21.31.37.56.49.25.12.68.26,1.32.41.47.12.76.22.88.29.17.11.25.27.25.46,0,.22-.1.41-.29.57-.19.16-.49.24-.88.24s-.7-.09-.92-.27c-.22-.18-.35-.45-.4-.79l-.85.14c.1.54.32.95.66,1.22m-1.49.3v-.83h-4.32v-2.4h3.89v-.83h-3.89v-2.16h4.16v-.83h-5.09v7.04h5.25Zm-8.08-1.13c-.36.3-.8.45-1.33.45-.43,0-.83-.11-1.19-.33-.37-.22-.64-.55-.81-1-.18-.45-.26-.97-.26-1.57,0-.47.07-.92.22-1.35.15-.44.4-.79.77-1.05.36-.26.82-.39,1.36-.39.47,0,.86.12,1.17.35.31.23.55.61.71,1.12l.92-.22c-.19-.65-.52-1.15-1-1.51-.48-.36-1.07-.54-1.78-.54-.62,0-1.19.14-1.71.43-.52.28-.91.7-1.19,1.24-.28.55-.42,1.18-.42,1.92,0,.67.12,1.3.37,1.89.25.58.61,1.03,1.08,1.34.47.31,1.09.46,1.85.46s1.35-.2,1.86-.6c.51-.4.86-.98,1.05-1.75l-.93-.23c-.13.59-.37,1.04-.74,1.34m-11.6,1.13v-5.99l2.04,5.99h.84l2.05-5.89v5.89h.9v-7.04h-1.25l-1.68,4.89c-.17.5-.29.87-.38,1.13-.07-.23-.18-.58-.34-1.04l-1.67-4.98h-1.4v7.04h.9Zm-5.39-4.95c.16-.44.29-.89.38-1.34.11.38.27.87.5,1.46l.73,1.95h-2.38l.77-2.06Zm-1.82,4.95l.77-2.13h2.94l.82,2.13h1.06l-2.88-7.04h-1l-2.7,7.04h.99Zm-7.42-4.1c.27-.27.6-.4,1-.4.44,0,.8.17,1.07.5.18.21.29.53.33.96h-2.85c.03-.45.18-.8.45-1.07m1.86,3.26c-.23.17-.5.25-.81.25-.42,0-.78-.15-1.07-.45-.29-.3-.44-.73-.48-1.29h3.8c0-.1,0-.18,0-.23,0-.84-.22-1.49-.65-1.96-.43-.46-.99-.7-1.67-.7s-1.28.24-1.72.71c-.44.47-.66,1.14-.66,2s.22,1.47.65,1.93c.44.46,1.03.69,1.77.69.59,0,1.08-.14,1.46-.43.38-.29.64-.69.78-1.22l-.89-.11c-.13.36-.31.63-.53.8m-4.3-6.19h-.86v7.04h.86v-7.04Zm-5.1,3.02c.28-.34.61-.52.98-.52s.69.16.96.49c.27.32.4.81.4,1.46s-.14,1.18-.41,1.51c-.27.33-.6.49-.99.49s-.7-.16-.96-.47c-.27-.31-.4-.8-.4-1.45s.14-1.16.42-1.5m-.34,5.97v-2.48c.15.19.34.34.56.46.23.12.49.18.78.18.39,0,.77-.11,1.13-.33.36-.22.63-.54.82-.96.19-.42.28-.89.28-1.41,0-.49-.08-.93-.25-1.34-.17-.41-.42-.72-.75-.95-.33-.22-.72-.34-1.15-.34-.33,0-.62.07-.85.2-.23.13-.44.32-.63.58v-.66h-.79v7.05h.86Zm-8.19-1.95v-2.64c0-.47.05-.82.14-1.07.09-.25.24-.43.45-.56.21-.13.43-.19.68-.19.32,0,.55.09.69.29.14.19.21.48.21.86v3.31h.86v-2.96c0-.52.12-.91.36-1.14.24-.24.53-.36.89-.36.2,0,.37.05.52.14.15.09.25.21.31.37.05.15.08.4.08.75v3.21h.86v-3.5c0-.58-.14-1.01-.41-1.29-.27-.28-.66-.42-1.17-.42-.65,0-1.17.3-1.58.89-.1-.28-.27-.5-.51-.66-.24-.16-.55-.23-.93-.23-.34,0-.64.08-.91.23-.26.15-.48.35-.64.6v-.72h-.77v5.1h.86Zm-3.07-2.24c0,.38-.05.67-.14.86-.12.25-.31.45-.57.6-.26.15-.55.22-.89.22s-.59-.08-.76-.23c-.18-.15-.26-.35-.26-.58,0-.15.04-.29.12-.41.08-.12.19-.22.34-.28.15-.06.4-.12.75-.17.63-.09,1.1-.2,1.41-.33v.32Zm.24,2.24h.9c-.11-.2-.18-.4-.22-.61-.04-.21-.06-.72-.06-1.52v-1.15c0-.38-.01-.65-.04-.8-.05-.24-.14-.43-.27-.59-.13-.15-.33-.28-.6-.39-.27-.1-.63-.15-1.06-.15s-.82.06-1.16.18c-.33.12-.59.29-.76.51-.18.22-.3.52-.38.88l.84.12c.09-.36.24-.61.43-.76.19-.14.49-.21.9-.21.44,0,.76.1.98.29.16.14.24.39.24.74,0,.03,0,.11,0,.23-.33.12-.84.21-1.54.3-.34.04-.6.08-.77.13-.23.07-.44.16-.62.28-.18.12-.33.29-.45.5-.11.21-.17.43-.17.68,0,.43.15.78.45,1.05.3.27.73.41,1.29.41.34,0,.66-.06.95-.17.3-.11.6-.3.92-.58.03.24.08.45.17.63m-9.88-1c.24.37.58.65,1.01.84.43.18.96.28,1.6.28.5,0,.95-.09,1.35-.28.4-.18.71-.44.93-.77.21-.33.32-.68.32-1.06s-.1-.71-.29-1c-.2-.29-.5-.53-.91-.72-.28-.13-.8-.28-1.56-.45-.76-.17-1.22-.34-1.4-.5-.18-.16-.27-.37-.27-.62,0-.29.13-.54.39-.75.26-.21.67-.31,1.23-.31s.95.11,1.23.34c.28.23.44.56.49,1.01l.89-.07c-.02-.41-.13-.78-.35-1.11-.21-.33-.52-.57-.92-.74-.4-.17-.86-.25-1.38-.25-.47,0-.9.08-1.29.24-.39.16-.68.39-.88.7-.2.31-.3.64-.3,1,0,.32.08.61.25.88.16.26.41.48.75.66.26.14.71.28,1.36.44.65.16,1.06.27,1.25.34.29.11.5.25.63.42s.19.36.19.58-.07.42-.2.6c-.13.18-.33.33-.61.43-.27.11-.59.16-.94.16-.4,0-.76-.07-1.08-.21-.32-.14-.56-.32-.71-.55-.15-.23-.25-.51-.29-.87l-.88.08c.01.47.14.89.39,1.27m-4.25-6.04h-.86v7.04h.86v-7.04Zm-2.18,0h-.86v7.04h.86v-7.04Zm-2.2,7.04v-5.1h-.86v2.73c0,.43-.05.77-.14,1-.09.23-.25.41-.48.54-.23.13-.47.2-.73.2s-.48-.06-.65-.19-.29-.31-.35-.53c-.04-.16-.05-.46-.05-.91v-2.83h-.86v3.16c0,.37.02.64.05.81.05.25.14.47.27.64.13.18.32.32.58.43.26.11.54.17.84.17.68,0,1.22-.29,1.62-.86v.75h.77Zm-9.03,0v-3.2h3.3v-.83h-3.3v-2.18h3.82v-.83h-4.75v7.04h.93Z" fill="#010101"/><line x1="171.77" y1="129.32" x2="171.77" y2="93.59" fill="none" stroke="#bcbcbc" stroke-linejoin="round" stroke-width=".96"/><path d="m151.34,119.61c0-1.25-1.02-2.27-2.27-2.27s-2.27,1.02-2.27,2.27,1.02,2.27,2.27,2.27,2.27-1.02,2.27-2.27" fill="#010101"/><path d="m151.34,119.61h-.32c0-1.07-.88-1.95-1.95-1.95-1.08,0-1.95.88-1.95,1.95,0,1.08.88,1.95,1.95,1.95,1.07,0,1.95-.88,1.95-1.95h.63c0,1.43-1.16,2.59-2.58,2.59s-2.58-1.16-2.58-2.59,1.16-2.59,2.58-2.59,2.58,1.16,2.58,2.59h-.32" fill="#010101"/><path d="m196.53,103.38c0-1.25-1.02-2.27-2.27-2.27s-2.27,1.02-2.27,2.27,1.02,2.27,2.27,2.27,2.27-1.02,2.27-2.27" fill="#010101"/><path d="m196.53,103.38h-.32c0-1.08-.88-1.95-1.95-1.95-1.08,0-1.95.88-1.95,1.95,0,1.08.88,1.95,1.95,1.95,1.07,0,1.95-.88,1.95-1.95h.64c0,1.43-1.16,2.59-2.58,2.59s-2.59-1.16-2.59-2.59,1.16-2.58,2.59-2.58,2.58,1.16,2.58,2.58h-.32" fill="#010101"/><line x1="162.91" y1="119.57" x2="135.26" y2="119.57" fill="none" stroke="#010101" stroke-linejoin="round" stroke-width=".38"/><line x1="208.04" y1="103.33" x2="180.5" y2="103.33" fill="none" stroke="#010101" stroke-linejoin="round" stroke-width=".38"/><path d="m29.8,119.1c.22-.22.49-.33.82-.33.36,0,.65.14.88.41.15.17.24.44.27.79h-2.33c.02-.36.15-.65.37-.87m1.52,2.67c-.18.14-.4.2-.66.2-.35,0-.64-.12-.87-.36-.23-.24-.36-.59-.39-1.05h3.11c0-.08,0-.15,0-.19,0-.69-.18-1.22-.53-1.6-.35-.38-.81-.57-1.37-.57s-1.04.19-1.4.58c-.36.39-.54.93-.54,1.63s.18,1.21.54,1.58c.36.38.84.56,1.45.56.49,0,.88-.12,1.19-.35.31-.24.53-.57.64-.99l-.73-.09c-.11.3-.25.51-.44.65m-3.51-5.07h-.71v5.76h.71v-5.76Zm-2.5,3.92c0,.31-.04.55-.11.71-.1.21-.26.37-.47.49-.21.12-.45.18-.73.18s-.48-.06-.63-.19c-.14-.13-.21-.28-.21-.47,0-.12.03-.24.1-.34.07-.1.16-.18.28-.23.12-.05.33-.1.62-.14.51-.07.9-.16,1.15-.27v.26Zm.2,1.83h.74c-.09-.16-.15-.33-.18-.5-.03-.17-.04-.59-.04-1.25v-.94c0-.32-.01-.53-.04-.65-.04-.19-.12-.35-.22-.48-.1-.13-.27-.23-.49-.32-.22-.08-.51-.12-.87-.12s-.68.05-.95.15c-.27.1-.48.24-.62.42-.14.18-.25.42-.31.72l.69.09c.08-.3.19-.5.35-.62.16-.11.4-.17.74-.17.36,0,.62.08.8.24.14.12.2.32.2.61,0,.03,0,.09,0,.18-.27.09-.69.17-1.26.24-.28.03-.49.07-.63.11-.19.05-.36.13-.51.23s-.27.24-.37.41c-.09.17-.14.36-.14.56,0,.35.12.63.37.86s.6.34,1.06.34c.28,0,.54-.05.78-.14.24-.09.49-.25.76-.47.02.2.07.37.14.52m-8.76,0v-4.9l1.66,4.9h.69l1.67-4.82v4.82h.74v-5.76h-1.03l-1.38,4.01c-.14.4-.24.71-.31.92-.06-.19-.15-.47-.27-.85l-1.36-4.08h-1.15v5.76h.73Z" fill="#4e4e4e"/><path d="m29.8,102.86c.22-.22.49-.33.82-.33.36,0,.65.14.88.41.15.17.24.44.27.79h-2.33c.02-.36.15-.65.37-.87m1.52,2.67c-.18.14-.4.2-.66.2-.35,0-.64-.12-.87-.36-.23-.24-.36-.59-.39-1.05h3.11c0-.08,0-.15,0-.19,0-.69-.18-1.22-.53-1.6s-.81-.57-1.37-.57-1.04.19-1.41.58c-.36.39-.54.93-.54,1.63s.18,1.21.54,1.58c.36.38.84.56,1.45.56.48,0,.88-.12,1.19-.35.31-.24.52-.57.64-.99l-.73-.09c-.11.3-.25.52-.44.65m-3.51-5.07h-.71v5.76h.71v-5.76Zm-2.5,3.92c0,.31-.04.55-.12.71-.1.21-.25.37-.47.49-.21.12-.45.18-.73.18s-.48-.06-.63-.19c-.14-.13-.21-.28-.21-.47,0-.12.03-.23.1-.34.07-.1.16-.18.28-.23.12-.05.33-.1.62-.14.51-.07.9-.16,1.15-.27v.26Zm.2,1.83h.74c-.09-.16-.15-.33-.18-.5-.03-.17-.04-.59-.04-1.25v-.94c0-.32-.01-.53-.04-.65-.04-.19-.12-.35-.22-.48-.1-.13-.27-.23-.49-.32-.22-.08-.51-.12-.87-.12s-.67.05-.95.15c-.27.1-.48.24-.62.42-.14.18-.25.42-.31.72l.69.09c.08-.3.19-.5.35-.62.16-.12.4-.18.74-.18.36,0,.62.08.81.24.13.12.2.32.2.61,0,.03,0,.09,0,.18-.27.09-.69.17-1.26.24-.28.03-.49.07-.63.11-.19.05-.36.13-.51.23-.15.1-.27.24-.36.41-.09.17-.14.36-.14.56,0,.35.12.63.37.86s.6.34,1.06.34c.28,0,.54-.05.78-.14.24-.09.49-.25.76-.47.02.2.07.37.14.52m-8.86,0v-2.16c0-.38.04-.67.11-.87.08-.2.2-.35.37-.46.17-.1.35-.16.55-.16.26,0,.45.08.57.24.12.16.17.39.17.71v2.71h.71v-2.42c0-.43.1-.74.29-.94.19-.2.44-.29.73-.29.16,0,.3.04.43.11.12.08.2.18.25.3.05.12.07.33.07.61v2.63h.7v-2.86c0-.48-.11-.83-.33-1.06-.22-.23-.54-.34-.95-.34-.53,0-.96.24-1.29.73-.08-.23-.22-.41-.42-.54-.2-.13-.45-.19-.76-.19-.28,0-.52.06-.74.19-.22.12-.39.29-.52.49v-.59h-.63v4.17h.71Zm-4.28-3.36c.22-.22.49-.33.82-.33.36,0,.65.14.88.41.15.17.24.44.27.79h-2.33c.02-.36.15-.65.37-.87m1.52,2.67c-.18.14-.4.2-.66.2-.35,0-.64-.12-.87-.36-.23-.24-.36-.59-.39-1.05h3.11c0-.08,0-.15,0-.19,0-.69-.18-1.22-.53-1.6-.35-.38-.81-.57-1.37-.57s-1.04.19-1.41.58c-.36.39-.54.93-.54,1.63s.18,1.21.54,1.58c.36.38.84.56,1.45.56.48,0,.88-.12,1.19-.35.31-.24.52-.57.64-.99l-.73-.09c-.11.3-.25.52-.44.65m-6.2.69v-2.61h2.7v-.68h-2.7v-1.78h3.12v-.68h-3.88v5.76h.76Z" fill="#4e4e4e"/><line x1="34.79" y1="119.57" x2="37.24" y2="119.57" fill="none" stroke="#333" stroke-linejoin="round" stroke-width=".96"/><line x1="34.79" y1="103.33" x2="37.24" y2="103.33" fill="none" stroke="#333" stroke-linejoin="round" stroke-width=".96"/><line x1="60.59" y1="131.77" x2="60.59" y2="129.32" fill="none" stroke="#333" stroke-linejoin="round" stroke-width=".96"/><line x1="116.18" y1="131.77" x2="116.18" y2="129.32" fill="none" stroke="#333" stroke-linejoin="round" stroke-width=".96"/><line x1="171.77" y1="131.77" x2="171.77" y2="129.32" fill="none" stroke="#333" stroke-linejoin="round" stroke-width=".96"/><line x1="227.36" y1="131.77" x2="227.36" y2="129.32" fill="none" stroke="#333" stroke-linejoin="round" stroke-width=".96"/><line x1="282.94" y1="131.77" x2="282.94" y2="129.32" fill="none" stroke="#333" stroke-linejoin="round" stroke-width=".96"/></g><g clip-path="url(#e)" fill="none"><path d="m287.73,134.72c.19-.27.45-.41.78-.41s.61.15.83.47c.22.31.33.94.33,1.89s-.11,1.57-.33,1.89c-.22.31-.49.47-.82.47s-.6-.16-.82-.47c-.22-.31-.33-.94-.33-1.89s.12-1.59.37-1.94m-.52,4.28c.32.4.75.6,1.31.6.42,0,.77-.11,1.05-.34.28-.23.48-.55.62-.96.14-.41.21-.96.21-1.64,0-.57-.04-1.02-.13-1.36-.09-.34-.21-.62-.36-.86-.15-.23-.34-.41-.58-.54-.23-.12-.5-.19-.81-.19-.42,0-.77.11-1.04.34-.27.22-.48.54-.62.96-.14.41-.21.96-.21,1.64,0,1.08.19,1.86.57,2.34m-3.92-2.27c.22-.23.49-.34.81-.34s.59.12.8.34c.21.23.32.54.32.94s-.11.74-.32.98c-.22.24-.47.36-.77.36-.2,0-.4-.06-.58-.18-.19-.12-.33-.29-.43-.51-.1-.22-.16-.46-.16-.7,0-.37.11-.67.33-.9m2.03-2.63c-.29-.26-.66-.38-1.11-.38-.61,0-1.09.22-1.45.66-.41.5-.62,1.31-.62,2.43,0,.99.19,1.71.56,2.14.37.43.85.65,1.44.65.35,0,.65-.08.93-.25.27-.16.49-.4.64-.71.16-.31.24-.65.24-1.01,0-.55-.17-1-.5-1.35-.33-.35-.73-.52-1.2-.52-.27,0-.53.06-.77.19-.24.13-.45.32-.62.58,0-.58.07-1.02.2-1.33.13-.31.3-.55.53-.71.17-.13.37-.19.59-.19.28,0,.52.1.71.3.11.13.2.33.27.6l.7-.05c-.06-.45-.23-.8-.52-1.05m-4.18,4.59h-.8v.81h.8v-.81Zm-4.58-3.98c.19-.27.45-.41.78-.41s.61.15.83.47c.22.31.33.94.33,1.89s-.11,1.57-.33,1.89c-.22.31-.49.47-.82.47s-.6-.16-.82-.47c-.22-.31-.33-.94-.33-1.89s.12-1.59.36-1.94m-.52,4.28c.32.4.75.6,1.31.6.42,0,.77-.11,1.05-.34.27-.23.48-.55.62-.96.14-.41.21-.96.21-1.64,0-.57-.04-1.02-.13-1.36-.09-.34-.21-.62-.36-.86-.15-.23-.34-.41-.58-.54-.23-.12-.5-.19-.81-.19-.42,0-.76.11-1.04.34-.28.22-.48.54-.62.96-.14.41-.21.96-.21,1.64,0,1.08.19,1.86.57,2.34m-44.41.16c.33.29.76.44,1.28.44.64,0,1.14-.23,1.51-.7.3-.38.46-.83.46-1.35,0-.55-.17-1-.52-1.34-.34-.35-.77-.52-1.27-.52-.38,0-.74.12-1.09.36l.31-1.55h2.3v-.67h-2.86l-.56,2.96.66.09c.1-.17.25-.3.43-.4.18-.1.39-.16.62-.16.37,0,.66.12.89.35.23.23.34.55.34.95,0,.42-.12.77-.35,1.02-.23.26-.52.39-.86.39-.28,0-.52-.09-.72-.27-.2-.18-.33-.45-.38-.82l-.74.06c.05.48.24.87.57,1.17m-4.47,0c.33.29.76.44,1.28.44.64,0,1.14-.23,1.51-.7.3-.38.45-.83.45-1.35,0-.55-.17-1-.52-1.34-.34-.35-.77-.52-1.27-.52-.38,0-.74.12-1.09.36l.31-1.55h2.3v-.67h-2.86l-.56,2.96.66.09c.11-.17.25-.3.43-.4.18-.1.39-.16.62-.16.37,0,.66.12.89.35.23.23.34.55.34.95,0,.42-.12.77-.35,1.02-.23.26-.52.39-.86.39-.28,0-.52-.09-.73-.27-.2-.18-.33-.45-.38-.82l-.74.06c.05.48.24.87.57,1.17m-1.6-.46h-.8v.81h.8v-.81Zm-4.58-3.98c.19-.27.45-.41.78-.41s.61.15.83.47c.22.31.33.94.33,1.89s-.11,1.57-.33,1.89c-.22.31-.49.47-.82.47s-.6-.16-.82-.47c-.22-.31-.33-.94-.33-1.89s.12-1.59.37-1.94m-.52,4.28c.32.4.75.6,1.31.6.42,0,.77-.11,1.05-.34.28-.23.48-.55.62-.96.14-.41.21-.96.21-1.64,0-.57-.04-1.02-.13-1.36-.09-.34-.21-.62-.36-.86-.15-.23-.34-.41-.58-.54-.23-.12-.51-.19-.81-.19-.42,0-.77.11-1.04.34-.28.22-.48.54-.62.96-.14.41-.21.96-.21,1.64,0,1.08.19,1.86.57,2.34m-43.89-4.28c.19-.27.45-.41.78-.41s.61.15.83.47c.22.31.33.94.33,1.89s-.11,1.57-.33,1.89c-.22.31-.49.47-.82.47s-.6-.16-.82-.47c-.22-.31-.33-.94-.33-1.89s.12-1.59.37-1.94m-.52,4.28c.32.4.75.6,1.31.6.42,0,.77-.11,1.05-.34.28-.23.48-.55.62-.96.14-.41.21-.96.21-1.64,0-.57-.04-1.02-.13-1.36-.09-.34-.21-.62-.36-.86-.15-.23-.35-.41-.58-.54-.24-.12-.51-.19-.81-.19-.42,0-.77.11-1.04.34-.28.22-.48.54-.62.96-.14.41-.21.96-.21,1.64,0,1.08.19,1.86.57,2.34m-4.47.16c.33.29.76.44,1.28.44.64,0,1.14-.23,1.51-.7.3-.38.46-.83.46-1.35,0-.55-.17-1-.52-1.34-.35-.35-.77-.52-1.27-.52-.38,0-.74.12-1.09.36l.31-1.55h2.3v-.67h-2.86l-.56,2.96.66.09c.1-.17.25-.3.43-.4.18-.1.39-.16.62-.16.37,0,.66.12.89.35.23.23.34.55.34.95,0,.42-.12.77-.36,1.02-.23.26-.52.39-.86.39-.28,0-.52-.09-.72-.27-.2-.18-.33-.45-.38-.82l-.74.06c.05.48.24.87.57,1.17m-1.6-.46h-.8v.81h.8v-.81Zm-4.58-3.98c.2-.27.45-.41.78-.41s.61.15.83.47c.22.31.33.94.33,1.89s-.11,1.57-.33,1.89c-.22.31-.49.47-.82.47s-.6-.16-.82-.47c-.22-.31-.33-.94-.33-1.89s.12-1.59.36-1.94m-.52,4.28c.32.4.75.6,1.31.6.42,0,.77-.11,1.05-.34.28-.23.48-.55.62-.96.14-.41.21-.96.21-1.64,0-.57-.04-1.02-.13-1.36-.09-.34-.21-.62-.36-.86-.15-.23-.35-.41-.58-.54-.23-.12-.5-.19-.81-.19-.42,0-.77.11-1.04.34-.28.22-.48.54-.62.96-.14.41-.21.96-.21,1.64,0,1.08.19,1.86.57,2.34m-44.41.16c.33.29.76.44,1.28.44.64,0,1.14-.23,1.51-.7.3-.38.46-.83.46-1.35,0-.55-.17-1-.52-1.34-.35-.35-.77-.52-1.27-.52-.38,0-.74.12-1.09.36l.31-1.55h2.3v-.67h-2.86l-.56,2.96.66.09c.11-.17.25-.3.43-.4.18-.1.39-.16.62-.16.37,0,.66.12.89.35.23.23.34.55.34.95,0,.42-.12.77-.35,1.02-.23.26-.52.39-.86.39-.28,0-.52-.09-.72-.27-.2-.18-.33-.45-.38-.82l-.74.06c.05.48.24.87.57,1.17m-4.57-1.68l1.8-2.6v2.6h-1.8Zm2.51,2.03v-1.38h.78v-.65h-.78v-3.73h-.58l-2.63,3.73v.65h2.5v1.38h.71Zm-4.01-.81h-.8v.81h.8v-.81Zm-4.58-3.98c.19-.27.46-.41.78-.41s.61.15.83.47c.22.31.33.94.33,1.89s-.11,1.57-.33,1.89c-.22.31-.49.47-.82.47s-.6-.16-.82-.47c-.22-.31-.33-.94-.33-1.89s.12-1.59.36-1.94m-.52,4.28c.32.4.75.6,1.31.6.42,0,.77-.11,1.05-.34.28-.23.48-.55.62-.96.14-.41.21-.96.21-1.64,0-.57-.04-1.02-.13-1.36-.09-.34-.21-.62-.36-.86-.15-.23-.34-.41-.58-.54-.23-.12-.5-.19-.81-.19-.42,0-.77.11-1.04.34-.28.22-.49.54-.62.96-.14.41-.21.96-.21,1.64,0,1.08.19,1.86.57,2.34m-43.89-4.28c.19-.27.45-.41.78-.41s.61.15.83.47c.22.31.33.94.33,1.89s-.11,1.57-.33,1.89c-.22.31-.49.47-.82.47s-.6-.16-.82-.47c-.22-.31-.33-.94-.33-1.89s.12-1.59.36-1.94m-.52,4.28c.32.4.75.6,1.31.6.42,0,.77-.11,1.05-.34.28-.23.48-.55.62-.96.14-.41.21-.96.21-1.64,0-.57-.04-1.02-.13-1.36-.09-.34-.21-.62-.36-.86-.15-.23-.34-.41-.58-.54-.23-.12-.5-.19-.81-.19-.42,0-.77.11-1.04.34-.28.22-.49.54-.62.96-.14.41-.21.96-.21,1.64,0,1.08.19,1.86.57,2.34m-4.58-1.53l1.8-2.6v2.6h-1.8Zm2.51,2.03v-1.38h.78v-.65h-.78v-3.73h-.58l-2.63,3.73v.65h2.5v1.38h.71Zm-4.01-.81h-.81v.81h.81v-.81Zm-4.58-3.98c.19-.27.45-.41.78-.41s.6.15.83.47c.22.31.33.94.33,1.89s-.11,1.57-.33,1.89c-.22.31-.49.47-.82.47s-.6-.16-.82-.47c-.22-.31-.33-.94-.33-1.89s.12-1.59.37-1.94m-.52,4.28c.32.4.75.6,1.31.6.42,0,.77-.11,1.05-.34.28-.23.48-.55.62-.96.14-.41.21-.96.21-1.64,0-.57-.04-1.02-.13-1.36-.09-.34-.21-.62-.36-.86-.15-.23-.35-.41-.58-.54-.23-.12-.5-.19-.81-.19-.42,0-.77.11-1.04.34-.28.22-.48.54-.62.96-.14.41-.21.96-.21,1.64,0,1.08.19,1.86.57,2.34" fill="#4e4e4e"/></g><g clip-path="url(#f)" fill="none"><path d="m109.2,86.03c.35.28.85.41,1.51.41.4,0,.76-.07,1.08-.21.32-.14.56-.34.73-.59.17-.26.25-.53.25-.82s-.07-.54-.21-.74c-.14-.2-.33-.35-.57-.45-.24-.1-.67-.24-1.28-.4-.42-.12-.68-.19-.76-.22-.15-.06-.26-.14-.33-.23-.07-.09-.1-.19-.1-.3,0-.18.08-.33.25-.46.17-.13.45-.2.85-.2.33,0,.6.07.78.22.18.15.29.35.33.61l.84-.11c-.05-.33-.15-.59-.3-.79-.14-.2-.37-.35-.67-.47-.3-.11-.65-.17-1.05-.17-.26,0-.51.04-.75.1-.23.07-.41.15-.55.25-.18.13-.32.29-.42.48-.1.19-.15.4-.15.63,0,.25.06.48.19.68.13.21.31.37.56.49.24.12.69.26,1.32.41.47.12.77.22.88.29.17.11.26.26.26.46,0,.22-.1.41-.29.57-.19.16-.49.24-.88.24s-.7-.09-.92-.27c-.22-.18-.35-.45-.4-.79l-.86.13c.1.54.32.95.67,1.22m-7.53.3v-5.99l2.04,5.99h.84l2.05-5.89v5.89h.9v-7.04h-1.25l-1.68,4.89c-.17.5-.29.87-.38,1.13-.07-.23-.18-.58-.33-1.04l-1.67-4.98h-1.4v7.04h.9Zm-8.19,0v-5.99l2.03,5.99h.84l2.04-5.89v5.89h.9v-7.04h-1.25l-1.68,4.89c-.17.5-.29.87-.37,1.13-.07-.23-.18-.58-.34-1.04l-1.66-4.98h-1.4v7.04h.9Zm-8.08-4.1c.27-.27.6-.4,1-.4.44,0,.8.17,1.07.5.18.21.29.54.33.97h-2.85c.03-.45.18-.8.45-1.07m1.86,3.26c-.23.17-.5.25-.81.25-.42,0-.78-.15-1.07-.45-.29-.3-.44-.73-.48-1.29h3.8c0-.1,0-.18,0-.23,0-.84-.22-1.49-.65-1.96-.43-.46-.99-.7-1.67-.7s-1.28.24-1.72.71c-.44.47-.66,1.14-.66,2s.22,1.47.65,1.93c.44.46,1.03.69,1.77.69.59,0,1.08-.14,1.46-.43.38-.29.64-.69.78-1.21l-.89-.11c-.13.36-.31.63-.53.8m-4.3-6.19h-.86v7.04h.86v-7.04Zm-5.1,3.02c.28-.34.61-.52.98-.52s.69.16.96.49c.27.32.4.81.4,1.46s-.14,1.18-.41,1.51c-.27.33-.6.49-.99.49s-.7-.16-.96-.47c-.27-.31-.4-.8-.4-1.46s.14-1.16.42-1.5m-.34,5.97v-2.48c.15.19.34.34.56.46.23.12.49.18.78.18.39,0,.77-.11,1.13-.33.36-.22.63-.54.82-.96.19-.42.28-.89.28-1.41,0-.49-.08-.93-.25-1.34-.17-.41-.42-.72-.75-.95-.33-.22-.72-.34-1.15-.34-.33,0-.62.07-.85.2-.23.13-.44.32-.63.58v-.66h-.79v7.05h.86Zm-8.19-1.95v-2.64c0-.46.05-.82.14-1.07.09-.25.24-.43.45-.56.21-.13.43-.19.68-.19.32,0,.55.09.69.29.14.19.21.48.21.86v3.31h.86v-2.96c0-.52.12-.91.36-1.14.24-.24.53-.36.89-.36.2,0,.37.05.52.14.15.09.25.22.31.37.05.15.08.4.08.75v3.21h.86v-3.5c0-.58-.14-1.01-.41-1.29-.27-.28-.66-.42-1.17-.42-.65,0-1.17.3-1.58.89-.1-.28-.27-.5-.51-.66-.24-.16-.55-.23-.93-.23-.34,0-.64.08-.91.23-.26.15-.48.35-.64.6v-.72h-.77v5.1h.86Zm-3.07-2.24c0,.38-.05.67-.14.86-.12.25-.31.45-.57.6-.26.15-.55.22-.89.22s-.59-.08-.76-.23c-.18-.15-.26-.35-.26-.58,0-.15.04-.29.12-.41.08-.12.19-.22.34-.28.15-.06.4-.12.75-.17.63-.09,1.1-.2,1.41-.33v.32Zm.24,2.24h.9c-.11-.19-.18-.4-.22-.61-.04-.21-.06-.72-.06-1.52v-1.15c0-.38-.01-.65-.04-.8-.05-.24-.14-.43-.27-.59-.13-.15-.33-.28-.6-.39-.27-.1-.63-.15-1.06-.15s-.82.06-1.16.18c-.33.12-.59.29-.76.51-.18.22-.3.52-.38.88l.84.11c.09-.36.24-.61.43-.76.19-.14.49-.21.9-.21.44,0,.76.1.98.29.16.14.24.39.24.74,0,.03,0,.11,0,.23-.33.11-.84.21-1.54.3-.34.04-.6.08-.77.13-.23.07-.44.16-.62.28-.18.12-.33.29-.45.5-.11.21-.17.43-.17.68,0,.43.15.78.45,1.05.3.27.73.41,1.29.41.34,0,.66-.06.95-.17.3-.11.6-.3.92-.58.03.24.08.45.17.63m-9.88-1c.24.37.58.65,1.01.84.43.18.96.28,1.6.28.5,0,.95-.09,1.35-.28.4-.18.71-.44.93-.77.21-.33.32-.68.32-1.06s-.1-.71-.29-1c-.2-.29-.5-.53-.91-.72-.28-.13-.8-.28-1.56-.45-.76-.17-1.22-.34-1.4-.5-.18-.16-.27-.37-.27-.62,0-.29.13-.54.39-.75.26-.21.67-.31,1.23-.31s.95.11,1.23.34c.28.23.44.56.49,1.01l.89-.07c-.02-.41-.13-.78-.35-1.11-.21-.33-.52-.57-.92-.74-.4-.17-.86-.25-1.38-.25-.47,0-.9.08-1.29.24-.39.16-.68.39-.88.7-.2.31-.3.64-.3,1,0,.32.08.61.25.88.16.26.41.48.75.65.26.14.71.29,1.36.44.65.15,1.06.27,1.25.34.29.11.5.25.63.42s.19.36.19.58-.07.42-.2.6c-.13.18-.33.33-.61.43-.27.11-.59.16-.94.16-.4,0-.76-.07-1.08-.21-.32-.14-.56-.32-.71-.55-.15-.23-.25-.51-.29-.87l-.88.08c.01.47.14.89.39,1.27m-4.25-6.04h-.86v7.04h.86v-7.04Zm-2.18,0h-.86v7.04h.86v-7.04Zm-2.2,7.04v-5.1h-.86v2.73c0,.43-.05.77-.14,1-.09.23-.25.41-.48.54-.23.13-.47.2-.73.2s-.48-.06-.65-.19c-.18-.13-.29-.31-.35-.53-.04-.16-.05-.46-.05-.91v-2.83h-.86v3.16c0,.37.02.64.05.81.05.25.14.47.27.64.13.17.32.32.58.43.26.11.54.17.84.17.68,0,1.22-.29,1.62-.86v.75h.77Zm-9.03,0v-3.2h3.3v-.83h-3.3v-2.18h3.82v-.83h-4.75v7.04h.93Z" fill="#010101"/><line x1="171.77" y1="201.7" x2="171.77" y2="165.97" fill="none" stroke="#bcbcbc" stroke-linejoin="round" stroke-width=".96"/><polyline points="171.77 185.45 174.76 190.64 168.77 190.64 171.77 185.45" fill="#010101"/><rect x="169.54" y="192.77" width="4.45" height="4.45" fill="#010101"/><polyline points="154.66 169.21 157.66 174.39 151.67 174.39 154.66 169.21" fill="#010101"/><rect x="252.18" y="176.53" width="4.44" height="4.45" fill="#010101"/><line x1="183.98" y1="172.67" x2="125.35" y2="172.67" fill="none" stroke="#010101" stroke-linejoin="round" stroke-width=".38"/><line x1="287.99" y1="178.75" x2="220.81" y2="178.75" fill="none" stroke="#010101" stroke-linejoin="round" stroke-width=".38"/><path d="m146.11,183.23c.29.22.7.34,1.24.34.33,0,.62-.06.88-.17.26-.11.46-.28.59-.48.14-.21.21-.43.21-.67s-.05-.44-.17-.6c-.11-.16-.27-.29-.46-.37-.2-.09-.55-.2-1.05-.33-.35-.1-.55-.15-.62-.18-.12-.05-.21-.11-.27-.19-.06-.07-.09-.15-.09-.25,0-.14.07-.27.21-.38.14-.11.37-.16.7-.16.27,0,.49.06.64.18.15.12.24.29.27.5l.69-.09c-.04-.27-.13-.48-.24-.65-.12-.16-.3-.29-.55-.38-.25-.1-.53-.14-.86-.14-.22,0-.42.03-.61.08-.19.06-.34.12-.45.21-.15.1-.26.23-.35.39-.08.16-.13.33-.13.52,0,.2.05.39.15.56.1.17.26.3.46.4.2.1.56.21,1.08.34.39.1.62.18.72.24.14.09.21.22.21.38,0,.18-.08.33-.24.46-.16.13-.4.2-.72.2s-.57-.08-.75-.22c-.18-.15-.29-.36-.33-.64l-.7.11c.08.44.26.78.54,1m-4.02.24v-2.28c0-.53.11-.9.33-1.09.22-.19.48-.29.78-.29.19,0,.35.04.49.13.14.08.24.2.29.34.05.14.08.36.08.65v2.54h.71v-2.56c0-.33-.01-.56-.04-.69-.04-.2-.12-.38-.22-.52-.11-.15-.26-.27-.47-.36-.21-.09-.44-.14-.69-.14-.58,0-1.02.23-1.33.69v-.59h-.64v4.17h.71Zm-2.52-1.83c0,.31-.04.55-.11.71-.1.21-.26.37-.47.49-.21.12-.45.18-.73.18s-.48-.06-.63-.19c-.14-.13-.22-.28-.22-.47,0-.12.03-.24.1-.34.07-.1.16-.18.28-.23.12-.05.33-.1.62-.14.51-.07.9-.16,1.15-.27v.26Zm.2,1.83h.74c-.09-.16-.15-.33-.18-.5-.03-.17-.05-.59-.05-1.25v-.94c0-.31-.01-.53-.03-.65-.04-.19-.12-.35-.22-.48-.1-.13-.27-.23-.49-.32-.22-.09-.51-.13-.87-.13s-.67.05-.95.15c-.27.1-.48.24-.62.42-.14.18-.25.42-.31.72l.69.09c.08-.3.19-.5.35-.62.16-.12.4-.17.74-.17.36,0,.62.08.8.24.13.12.2.32.2.61,0,.03,0,.09,0,.18-.27.09-.69.17-1.26.24-.28.03-.49.07-.63.11-.19.05-.36.13-.51.23-.15.1-.27.24-.36.41-.09.17-.14.36-.14.56,0,.35.12.63.37.86.25.22.6.34,1.06.34.28,0,.54-.04.78-.14.24-.09.49-.25.76-.47.02.2.07.37.14.51m-4.52-.74c-.19.17-.42.26-.7.26-.35,0-.62-.13-.84-.38-.21-.25-.32-.66-.32-1.22s.11-.96.33-1.21c.22-.25.51-.38.87-.38.23,0,.43.07.6.21.17.14.28.35.35.63l.69-.11c-.08-.42-.26-.75-.55-.98-.29-.23-.66-.34-1.11-.34-.36,0-.69.08-1,.25-.3.17-.53.42-.68.76-.15.34-.22.73-.22,1.18,0,.7.17,1.23.52,1.6.35.37.81.56,1.38.56.46,0,.84-.14,1.15-.41.31-.27.51-.65.58-1.12l-.7-.09c-.05.35-.17.62-.35.79m-3.44-3.43h-.71v4.17h.71v-4.17Zm0-1.59h-.71v.81h.71v-.81Zm-1.81,0h-.71v5.76h.71v-5.76Zm-4.02,2.48c.23-.27.49-.4.8-.4s.57.13.79.39c.21.26.32.66.32,1.21s-.11.93-.34,1.2c-.22.27-.49.4-.8.4-.38,0-.68-.18-.9-.55-.14-.22-.2-.58-.2-1.08s.11-.9.34-1.16m-.33,2.76c.28.41.67.62,1.16.62s.92-.2,1.27-.58c.35-.39.53-.94.53-1.66,0-.3-.04-.58-.13-.85-.08-.26-.2-.49-.35-.68-.15-.19-.34-.33-.57-.44-.23-.1-.47-.15-.73-.15-.46,0-.85.19-1.14.56v-2.05h-.71v5.76h.66v-.52Zm-1.76.52v-4.17h-.71v2.23c0,.36-.04.63-.12.82-.08.19-.21.34-.39.44-.19.11-.39.16-.6.16s-.39-.05-.54-.16c-.14-.11-.24-.25-.28-.44-.03-.13-.04-.38-.04-.75v-2.31h-.71v2.58c0,.3.01.52.04.66.04.21.11.38.22.52.1.14.26.26.47.35.21.1.44.14.69.14.56,0,1-.23,1.32-.71v.61h.63Zm-6.85-3.29c.23-.28.5-.42.8-.42s.56.13.78.4c.22.27.33.66.33,1.19s-.11.97-.33,1.23c-.22.27-.49.4-.81.4s-.57-.13-.79-.39c-.22-.26-.33-.65-.33-1.19s.12-.94.35-1.23m-.28,4.89v-2.03c.12.15.27.28.46.38.19.1.4.15.63.15.32,0,.63-.09.92-.27.29-.18.51-.45.67-.79.15-.34.23-.73.23-1.15,0-.4-.07-.76-.21-1.1-.14-.33-.34-.59-.62-.78-.27-.18-.59-.28-.94-.28-.27,0-.5.05-.7.16-.19.1-.36.26-.51.48v-.54h-.64v5.77h.71Zm-4.28-4.96c.22-.22.49-.33.82-.33.36,0,.65.13.88.41.15.17.24.44.27.79h-2.33c.02-.37.15-.66.37-.87m1.52,2.67c-.18.14-.41.2-.67.2-.35,0-.64-.12-.87-.37-.23-.24-.36-.59-.39-1.05h3.11c0-.09,0-.15,0-.19,0-.69-.18-1.22-.53-1.6-.35-.38-.81-.57-1.36-.57s-1.05.19-1.4.58c-.36.39-.54.93-.54,1.63s.18,1.21.54,1.58c.36.38.84.56,1.45.56.48,0,.88-.12,1.19-.35.31-.24.53-.57.64-.99l-.73-.09c-.11.3-.25.51-.43.65m-7.36-4.43h1.82c.43,0,.74.09.93.26.2.18.3.4.3.67,0,.18-.05.36-.15.52-.1.16-.25.27-.45.35-.2.07-.47.11-.82.11h-1.64v-1.9Zm0,5.12v-2.56h.88c.2,0,.34,0,.42.03.12.03.24.08.35.15.11.07.24.2.39.39.14.18.33.45.55.79l.76,1.2h.96l-1-1.57c-.2-.31-.41-.56-.63-.77-.1-.09-.26-.19-.46-.29.55-.08.96-.25,1.23-.53.27-.28.4-.62.4-1.03,0-.32-.08-.61-.24-.87-.16-.26-.37-.44-.64-.55-.27-.1-.66-.15-1.17-.15h-2.55v5.76h.76Z" fill="#010101"/><path d="m243.52,188.91c.28.22.7.34,1.24.34.33,0,.62-.06.88-.17.26-.11.46-.27.59-.48.14-.21.21-.43.21-.66s-.06-.44-.17-.6c-.11-.16-.27-.29-.47-.37s-.55-.2-1.05-.33c-.35-.09-.55-.15-.62-.18-.12-.05-.21-.11-.27-.19-.06-.07-.09-.16-.09-.25,0-.14.07-.27.21-.38.14-.11.37-.16.7-.16.27,0,.49.06.64.18.15.12.24.29.27.5l.69-.09c-.04-.27-.13-.48-.24-.65-.12-.16-.3-.29-.55-.38-.25-.09-.54-.14-.86-.14-.22,0-.42.03-.61.08-.19.06-.34.12-.45.21-.15.1-.26.23-.35.39-.08.16-.13.33-.13.52,0,.21.05.39.16.56.1.17.26.3.45.4.2.1.56.21,1.08.34.39.1.63.18.72.24.14.09.21.22.21.38,0,.18-.08.33-.24.47-.16.13-.4.2-.72.2s-.57-.08-.75-.22c-.18-.15-.29-.36-.33-.64l-.7.11c.08.44.26.78.54,1m-1.26-.36c-.1,0-.18-.02-.24-.05l-.12-.14c-.03-.06-.04-.19-.04-.39v-2.44h.71v-.55h-.71v-1.46l-.7.42v1.03h-.52v.55h.52v2.4c0,.42.03.7.09.83.06.13.16.24.3.32.14.08.34.12.6.12.16,0,.34-.02.53-.06l-.1-.62c-.13.02-.23.03-.31.03m-3.04-1.23c0,.31-.04.55-.11.71-.1.21-.26.37-.47.49-.21.12-.45.18-.73.18s-.48-.06-.63-.19c-.14-.13-.21-.28-.21-.47,0-.12.03-.24.1-.34.07-.1.16-.18.28-.23.12-.05.32-.1.61-.14.51-.07.9-.16,1.15-.27v.26Zm.2,1.83h.74c-.09-.16-.15-.33-.18-.5-.03-.17-.05-.59-.05-1.25v-.94c0-.31-.01-.53-.03-.65-.04-.19-.12-.35-.22-.48-.1-.13-.27-.23-.49-.32-.22-.08-.51-.12-.87-.12s-.67.05-.95.15c-.27.1-.48.24-.62.42-.14.18-.25.42-.31.72l.69.09c.07-.3.19-.5.35-.62.16-.12.4-.17.74-.17.36,0,.62.08.81.24.13.12.2.32.2.61,0,.03,0,.09,0,.18-.27.09-.69.17-1.26.24-.28.03-.49.07-.63.11-.19.05-.36.13-.51.23-.15.1-.27.24-.37.41-.09.17-.14.36-.14.56,0,.35.12.63.37.86.25.22.6.33,1.06.33.28,0,.54-.05.78-.14.24-.09.49-.25.76-.47.02.2.07.37.14.51m-4.76,0v-2.18c0-.3.04-.57.12-.82.05-.17.14-.29.26-.39.12-.09.26-.14.42-.14.17,0,.35.05.52.15l.24-.66c-.25-.15-.49-.23-.73-.23-.17,0-.32.05-.45.14-.14.09-.29.29-.45.59v-.63h-.64v4.17h.71Zm-2.35-.74c-.19.17-.42.26-.7.26-.35,0-.62-.13-.84-.38-.22-.25-.32-.66-.32-1.22s.11-.96.33-1.21c.22-.25.51-.38.87-.38.24,0,.44.07.6.21.17.14.28.35.35.63l.69-.11c-.08-.42-.27-.75-.55-.98-.29-.23-.66-.34-1.11-.34-.36,0-.69.08-1,.25-.3.17-.53.42-.68.76-.15.34-.22.73-.22,1.18,0,.7.17,1.23.52,1.6.35.37.8.56,1.38.56.46,0,.84-.14,1.15-.41.31-.27.51-.65.58-1.12l-.7-.09c-.05.35-.17.61-.35.78m-6.02-2.54c.23-.26.52-.4.88-.4s.64.13.88.4c.23.27.35.66.35,1.17,0,.55-.12.95-.35,1.22-.23.27-.52.4-.88.4s-.65-.13-.88-.4c-.24-.27-.35-.67-.35-1.2s.12-.93.35-1.2m-.54,2.82c.36.37.83.56,1.42.56.36,0,.7-.08,1.01-.26.31-.17.54-.41.7-.72.16-.31.24-.73.24-1.27,0-.66-.18-1.18-.55-1.56-.36-.38-.83-.56-1.41-.56-.52,0-.95.15-1.31.46-.43.37-.64.94-.64,1.72,0,.7.18,1.24.54,1.62m-6.27.47v-2.16c0-.38.04-.67.11-.87.08-.2.2-.36.37-.46.17-.11.35-.16.55-.16.26,0,.45.08.57.24.11.16.17.39.17.71v2.71h.71v-2.42c0-.43.1-.74.29-.94.19-.2.44-.29.73-.29.16,0,.3.04.42.11s.2.18.25.3c.04.12.07.33.07.61v2.63h.7v-2.86c0-.48-.11-.83-.34-1.06-.22-.23-.54-.34-.95-.34-.53,0-.96.24-1.29.73-.08-.23-.22-.41-.42-.54-.2-.13-.45-.19-.76-.19-.28,0-.52.06-.74.19-.22.12-.39.29-.52.49v-.59h-.63v4.17h.71Zm-4.28-3.36c.22-.22.49-.33.82-.33.36,0,.65.14.88.41.15.18.24.44.27.79h-2.33c.02-.36.15-.65.37-.87m1.52,2.67c-.18.14-.4.2-.66.2-.35,0-.64-.12-.87-.36s-.36-.59-.39-1.05h3.11c0-.08,0-.15,0-.19,0-.69-.18-1.22-.53-1.6-.35-.38-.81-.57-1.37-.57s-1.04.19-1.4.58c-.36.39-.54.93-.54,1.63s.18,1.21.54,1.58c.36.38.84.56,1.45.56.48,0,.88-.12,1.19-.35.31-.24.52-.57.64-.99l-.73-.09c-.11.3-.25.51-.44.65m-7.37-4.39h1.21c.45,0,.78.04.99.12.28.11.52.33.72.65.2.32.3.79.3,1.39,0,.44-.05.8-.15,1.11-.1.31-.24.55-.42.73-.13.13-.3.23-.52.3-.22.07-.51.11-.89.11h-1.23v-4.4Zm1.32,5.08c.35,0,.66-.03.92-.1.27-.07.5-.16.69-.29.19-.13.36-.3.52-.52.16-.22.29-.5.39-.84.1-.34.15-.72.15-1.16,0-.51-.07-.97-.23-1.37-.15-.4-.38-.73-.68-.98-.23-.2-.51-.34-.84-.41-.24-.05-.58-.08-1.02-.08h-1.98v5.76h2.08Z" fill="#010101"/><path d="m29.8,191.48c.22-.22.49-.33.82-.33.36,0,.65.14.88.41.15.18.24.44.27.79h-2.33c.02-.36.15-.65.37-.87m1.52,2.67c-.18.14-.4.2-.66.2-.35,0-.64-.12-.87-.36-.23-.24-.36-.59-.39-1.05h3.11c0-.08,0-.15,0-.19,0-.69-.18-1.22-.53-1.6-.35-.38-.81-.57-1.37-.57s-1.04.19-1.4.58c-.36.39-.54.93-.54,1.63s.18,1.21.54,1.58c.36.38.84.56,1.45.56.49,0,.88-.12,1.19-.35.31-.24.53-.57.64-.99l-.73-.09c-.11.3-.25.52-.44.65m-3.51-5.07h-.71v5.76h.71v-5.76Zm-2.5,3.92c0,.31-.04.55-.11.71-.1.21-.26.37-.47.49-.21.12-.45.18-.73.18s-.48-.06-.63-.19c-.14-.13-.21-.28-.21-.47,0-.12.03-.23.1-.34.07-.1.16-.18.28-.23.12-.05.33-.1.62-.14.51-.07.9-.16,1.15-.27v.26Zm.2,1.83h.74c-.09-.16-.15-.33-.18-.5-.03-.17-.04-.59-.04-1.25v-.94c0-.32-.01-.53-.04-.65-.04-.19-.12-.35-.22-.48-.1-.13-.27-.23-.49-.32-.22-.08-.51-.12-.87-.12s-.68.05-.95.15c-.27.1-.48.24-.62.42-.14.18-.25.42-.31.72l.69.09c.08-.29.19-.5.35-.62.16-.12.4-.18.74-.18.36,0,.62.08.8.24.14.12.2.32.2.61,0,.03,0,.09,0,.18-.27.09-.69.18-1.26.24-.28.03-.49.07-.63.11-.19.05-.36.13-.51.23-.15.1-.27.24-.37.41-.09.17-.14.36-.14.56,0,.35.12.63.37.86.25.22.6.34,1.06.34.28,0,.54-.05.78-.14.24-.09.49-.25.76-.47.02.2.07.37.14.51m-8.76,0v-4.9l1.66,4.9h.69l1.67-4.82v4.82h.74v-5.76h-1.03l-1.38,4.01c-.14.41-.24.71-.31.92-.06-.19-.15-.47-.27-.85l-1.36-4.08h-1.15v5.76h.73Z" fill="#4e4e4e"/><path d="m29.8,175.23c.22-.22.49-.33.82-.33.36,0,.65.14.88.41.15.17.24.44.27.79h-2.33c.02-.36.15-.65.37-.87m1.52,2.67c-.18.14-.4.2-.66.2-.35,0-.64-.12-.87-.37-.23-.24-.36-.59-.39-1.05h3.11c0-.09,0-.15,0-.19,0-.69-.18-1.22-.53-1.6-.35-.38-.81-.57-1.37-.57s-1.04.19-1.41.58c-.36.39-.54.93-.54,1.63s.18,1.2.54,1.58c.36.38.84.56,1.45.56.48,0,.88-.12,1.19-.35.31-.24.52-.57.64-.99l-.73-.09c-.11.3-.25.52-.44.65m-3.51-5.07h-.71v5.76h.71v-5.76Zm-2.5,3.92c0,.31-.04.55-.12.71-.1.21-.25.37-.47.49-.21.12-.45.18-.73.18s-.48-.06-.63-.19c-.14-.12-.21-.28-.21-.47,0-.12.03-.24.1-.34.07-.1.16-.18.28-.23.12-.05.33-.1.62-.14.51-.07.9-.16,1.15-.27v.26Zm.2,1.83h.74c-.09-.16-.15-.33-.18-.5-.03-.17-.04-.59-.04-1.25v-.94c0-.31-.01-.53-.04-.65-.04-.19-.12-.35-.22-.48-.1-.13-.27-.23-.49-.32-.22-.08-.51-.12-.87-.12s-.67.05-.95.15c-.27.1-.48.24-.62.42-.14.18-.25.42-.31.72l.69.09c.08-.3.19-.5.35-.62.16-.12.4-.17.74-.17.36,0,.62.08.81.24.13.12.2.32.2.61,0,.02,0,.09,0,.18-.27.09-.69.17-1.26.24-.28.03-.49.07-.63.1-.19.05-.36.13-.51.23-.15.1-.27.24-.36.41-.09.17-.14.36-.14.56,0,.35.12.63.37.86.25.22.6.33,1.06.33.28,0,.54-.04.78-.14.24-.09.49-.25.76-.47.02.2.07.37.14.51m-8.86,0v-2.16c0-.38.04-.67.11-.87.08-.2.2-.35.37-.46.17-.11.35-.16.55-.16.26,0,.45.08.57.24.12.16.17.39.17.71v2.71h.71v-2.42c0-.43.1-.74.29-.94.19-.19.44-.29.73-.29.16,0,.3.04.43.11.12.08.2.18.25.3.05.12.07.33.07.61v2.63h.7v-2.86c0-.48-.11-.83-.33-1.06-.22-.23-.54-.34-.95-.34-.53,0-.96.24-1.29.73-.08-.23-.22-.41-.42-.54-.2-.13-.45-.19-.76-.19-.28,0-.52.06-.74.19-.22.13-.39.29-.52.49v-.58h-.63v4.17h.71Zm-4.28-3.36c.22-.22.49-.33.82-.33.36,0,.65.14.88.41.15.17.24.44.27.79h-2.33c.02-.36.15-.65.37-.87m1.52,2.67c-.18.14-.4.2-.66.2-.35,0-.64-.12-.87-.37-.23-.24-.36-.59-.39-1.05h3.11c0-.09,0-.15,0-.19,0-.69-.18-1.22-.53-1.6-.35-.38-.81-.57-1.37-.57s-1.04.19-1.41.58c-.36.39-.54.93-.54,1.63s.18,1.2.54,1.58c.36.38.84.56,1.45.56.48,0,.88-.12,1.19-.35.31-.24.52-.57.64-.99l-.73-.09c-.11.3-.25.52-.44.65m-6.2.69v-2.61h2.7v-.68h-2.7v-1.78h3.12v-.68h-3.88v5.76h.76Z" fill="#4e4e4e"/><line x1="34.79" y1="191.95" x2="37.24" y2="191.95" fill="none" stroke="#333" stroke-linejoin="round" stroke-width=".96"/><line x1="34.79" y1="175.71" x2="37.24" y2="175.71" fill="none" stroke="#333" stroke-linejoin="round" stroke-width=".96"/><line x1="60.59" y1="204.15" x2="60.59" y2="201.7" fill="none" stroke="#333" stroke-linejoin="round" stroke-width=".96"/><line x1="116.18" y1="204.15" x2="116.18" y2="201.7" fill="none" stroke="#333" stroke-linejoin="round" stroke-width=".96"/><line x1="171.77" y1="204.15" x2="171.77" y2="201.7" fill="none" stroke="#333" stroke-linejoin="round" stroke-width=".96"/><line x1="227.36" y1="204.15" x2="227.36" y2="201.7" fill="none" stroke="#333" stroke-linejoin="round" stroke-width=".96"/><line x1="282.94" y1="204.15" x2="282.94" y2="201.7" fill="none" stroke="#333" stroke-linejoin="round" stroke-width=".96"/></g><g clip-path="url(#g)" fill="none"><path d="m287.73,207.09c.19-.27.45-.41.78-.41s.61.16.83.47c.22.31.33.94.33,1.89s-.11,1.57-.33,1.88c-.22.31-.49.47-.82.47s-.6-.16-.82-.47c-.22-.31-.33-.94-.33-1.89s.12-1.59.37-1.94m-.52,4.29c.32.4.75.6,1.31.6.42,0,.77-.11,1.05-.34.28-.23.48-.55.62-.96.14-.41.21-.96.21-1.63,0-.57-.04-1.02-.13-1.36-.09-.34-.21-.62-.36-.86-.15-.23-.35-.41-.58-.54-.23-.12-.5-.19-.81-.19-.42,0-.77.11-1.04.34-.27.22-.48.55-.62.96-.14.41-.21.96-.21,1.64,0,1.08.19,1.86.57,2.34m-2.38-5.28h-.45c-.12.25-.33.51-.63.77-.3.26-.64.49-1.04.67v.68c.22-.08.47-.2.74-.36.28-.16.5-.33.67-.49v4.51h.71v-5.78Zm-3.7,4.98h-.81v.81h.81v-.81Zm-4.58-3.98c.19-.27.45-.41.78-.41s.61.16.83.47c.22.31.33.94.33,1.89s-.11,1.57-.33,1.88c-.22.31-.49.47-.82.47s-.6-.16-.82-.47c-.22-.31-.33-.94-.33-1.89s.12-1.59.36-1.94m-.52,4.29c.32.4.75.6,1.31.6.42,0,.77-.11,1.05-.34.28-.23.48-.55.62-.96.14-.41.21-.96.21-1.63,0-.57-.04-1.02-.13-1.36-.09-.34-.21-.62-.36-.86-.15-.23-.35-.41-.58-.54-.23-.12-.5-.19-.81-.19-.42,0-.77.11-1.04.34-.28.22-.48.55-.62.96-.14.41-.21.96-.21,1.64,0,1.08.19,1.86.57,2.34m-44.41.16c.33.29.76.44,1.28.44.64,0,1.14-.23,1.51-.7.3-.38.46-.83.46-1.35,0-.55-.17-.99-.52-1.34-.35-.35-.77-.52-1.27-.52-.38,0-.74.12-1.09.36l.31-1.55h2.3v-.68h-2.86l-.56,2.96.66.09c.1-.16.25-.3.43-.4.18-.1.39-.16.62-.16.37,0,.66.12.89.35.23.23.34.55.34.95,0,.43-.12.77-.35,1.02-.23.26-.52.39-.86.39-.28,0-.52-.09-.72-.27-.2-.18-.33-.45-.38-.81l-.74.06c.05.48.24.87.57,1.17m-3.95-4.44c.19-.27.45-.41.78-.41s.61.16.83.47c.22.31.33.94.33,1.89s-.11,1.57-.33,1.88c-.22.31-.49.47-.82.47s-.6-.16-.82-.47c-.22-.31-.33-.94-.33-1.89s.12-1.59.37-1.94m-.52,4.29c.32.4.75.6,1.31.6.42,0,.77-.11,1.05-.34.28-.23.48-.55.62-.96.14-.41.21-.96.21-1.63,0-.57-.05-1.02-.13-1.36-.09-.34-.2-.62-.36-.86-.15-.23-.34-.41-.58-.54-.23-.12-.51-.19-.81-.19-.42,0-.77.11-1.04.34-.28.22-.48.55-.62.96-.14.41-.21.96-.21,1.64,0,1.08.19,1.86.57,2.34m-1.6-.31h-.8v.81h.8v-.81Zm-4.58-3.98c.19-.27.45-.41.78-.41s.61.16.83.47c.22.31.33.94.33,1.89s-.11,1.57-.33,1.88c-.22.31-.49.47-.82.47s-.6-.16-.82-.47c-.22-.31-.33-.94-.33-1.89s.12-1.59.37-1.94m-.52,4.29c.32.4.75.6,1.31.6.42,0,.77-.11,1.05-.34.28-.23.49-.55.62-.96.14-.41.21-.96.21-1.63,0-.57-.04-1.02-.13-1.36-.09-.34-.21-.62-.36-.86-.15-.23-.34-.41-.58-.54-.23-.12-.51-.19-.81-.19-.42,0-.77.11-1.04.34-.28.22-.48.55-.62.96-.14.41-.21.96-.21,1.64,0,1.08.19,1.86.57,2.34m-43.89-4.29c.19-.27.45-.41.78-.41s.61.16.83.47c.22.31.33.94.33,1.89s-.11,1.57-.33,1.88c-.22.31-.49.47-.82.47s-.6-.16-.82-.47c-.22-.31-.33-.94-.33-1.89s.12-1.59.37-1.94m-.52,4.29c.32.4.75.6,1.31.6.42,0,.77-.11,1.05-.34.28-.23.48-.55.62-.96.14-.41.21-.96.21-1.63,0-.57-.04-1.02-.13-1.36-.09-.34-.2-.62-.36-.86-.15-.23-.35-.41-.58-.54-.23-.12-.51-.19-.81-.19-.42,0-.77.11-1.04.34-.28.22-.48.55-.62.96-.14.41-.21.96-.21,1.64,0,1.08.19,1.86.57,2.34m-3.95-4.29c.2-.27.45-.41.78-.41s.6.16.83.47c.22.31.33.94.33,1.89s-.11,1.57-.33,1.88c-.22.31-.49.47-.82.47s-.6-.16-.82-.47c-.22-.31-.33-.94-.33-1.89s.12-1.59.36-1.94m-.52,4.29c.32.4.75.6,1.31.6.42,0,.77-.11,1.05-.34.28-.23.48-.55.62-.96.14-.41.21-.96.21-1.63,0-.57-.04-1.02-.13-1.36-.09-.34-.21-.62-.36-.86-.15-.23-.34-.41-.58-.54-.23-.12-.5-.19-.81-.19-.42,0-.76.11-1.04.34-.27.22-.48.55-.62.96-.14.41-.21.96-.21,1.64,0,1.08.19,1.86.57,2.34m-1.6-.31h-.8v.81h.8v-.81Zm-4.58-3.98c.2-.27.45-.41.78-.41s.6.16.83.47c.22.31.33.94.33,1.89s-.11,1.57-.33,1.88c-.22.31-.49.47-.82.47s-.6-.16-.82-.47c-.22-.31-.33-.94-.33-1.89s.12-1.59.36-1.94m-.52,4.29c.32.4.75.6,1.31.6.42,0,.77-.11,1.05-.34.28-.23.48-.55.62-.96.14-.41.21-.96.21-1.63,0-.57-.04-1.02-.13-1.36-.08-.34-.21-.62-.36-.86-.15-.23-.34-.41-.58-.54-.23-.12-.5-.19-.81-.19-.42,0-.76.11-1.04.34-.28.22-.48.55-.62.96-.14.41-.21.96-.21,1.64,0,1.08.19,1.86.57,2.34m-42.07.16c.33.29.76.44,1.28.44.64,0,1.14-.23,1.51-.7.3-.38.46-.83.46-1.35,0-.55-.17-.99-.52-1.34-.35-.35-.77-.52-1.27-.52-.38,0-.74.12-1.09.36l.31-1.55h2.3v-.68h-2.86l-.56,2.96.66.09c.11-.16.25-.3.43-.4.18-.1.39-.16.62-.16.37,0,.66.12.89.35.23.23.34.55.34.95,0,.43-.12.77-.35,1.02-.23.26-.52.39-.86.39-.28,0-.52-.09-.73-.27-.2-.18-.33-.45-.38-.81l-.74.06c.05.48.24.87.57,1.17m-3.95-4.44c.19-.27.45-.41.78-.41s.61.16.83.47c.22.31.33.94.33,1.89s-.11,1.57-.33,1.88c-.22.31-.49.47-.82.47s-.6-.16-.82-.47c-.22-.31-.33-.94-.33-1.89s.12-1.59.37-1.94m-.52,4.29c.32.4.75.6,1.31.6.42,0,.77-.11,1.05-.34.28-.23.48-.55.62-.96.14-.41.21-.96.21-1.63,0-.57-.04-1.02-.13-1.36-.09-.34-.21-.62-.36-.86-.15-.23-.35-.41-.58-.54-.23-.12-.5-.19-.81-.19-.42,0-.77.11-1.04.34-.28.22-.48.55-.62.96-.14.41-.21.96-.21,1.64,0,1.08.19,1.86.57,2.34m-1.6-.31h-.81v.81h.81v-.81Zm-4.58-3.98c.19-.27.45-.41.78-.41s.61.16.83.47c.22.31.33.94.33,1.89s-.11,1.57-.33,1.88c-.22.31-.49.47-.82.47s-.6-.16-.82-.47c-.22-.31-.33-.94-.33-1.89s.12-1.59.37-1.94m-.52,4.29c.32.4.75.6,1.31.6.42,0,.77-.11,1.05-.34.28-.23.48-.55.62-.96.14-.41.21-.96.21-1.63,0-.57-.05-1.02-.13-1.36-.09-.34-.21-.62-.36-.86-.15-.23-.35-.41-.58-.54-.23-.12-.5-.19-.81-.19-.42,0-.77.11-1.04.34-.28.22-.48.55-.62.96-.14.41-.21.96-.21,1.64,0,1.08.19,1.86.57,2.34m-1.35-2.67h-3.8v.66h3.8v-.66Zm-42.54-1.61c.2-.27.45-.41.78-.41s.61.16.83.47c.22.31.33.94.33,1.89s-.11,1.57-.33,1.88c-.22.31-.49.47-.82.47s-.6-.16-.82-.47c-.22-.31-.33-.94-.33-1.89s.12-1.59.36-1.94m-.52,4.29c.32.4.75.6,1.31.6.42,0,.77-.11,1.05-.34.28-.23.48-.55.62-.96.14-.41.21-.96.21-1.63,0-.57-.04-1.02-.13-1.36-.09-.34-.2-.62-.36-.86s-.34-.41-.58-.54c-.23-.12-.5-.19-.81-.19-.42,0-.77.11-1.04.34-.28.22-.48.55-.62.96-.14.41-.21.96-.21,1.64,0,1.08.19,1.86.57,2.34m-2.38-5.28h-.46c-.12.25-.33.51-.63.77s-.64.49-1.04.67v.68c.22-.08.47-.2.74-.36.28-.16.5-.33.67-.49v4.51h.71v-5.78Zm-3.7,4.98h-.81v.81h.81v-.81Zm-4.58-3.98c.19-.27.45-.41.78-.41s.61.16.83.47c.22.31.33.94.33,1.89s-.11,1.57-.33,1.88c-.22.31-.5.47-.82.47s-.6-.16-.82-.47c-.22-.31-.33-.94-.33-1.89s.12-1.59.37-1.94m-.52,4.29c.32.4.75.6,1.31.6.42,0,.77-.11,1.05-.34.28-.23.48-.55.62-.96.14-.41.21-.96.21-1.63,0-.57-.04-1.02-.13-1.36-.09-.34-.21-.62-.36-.86-.15-.23-.35-.41-.58-.54-.23-.12-.51-.19-.81-.19-.42,0-.77.11-1.04.34-.28.22-.49.55-.62.96-.14.41-.21.96-.21,1.64,0,1.08.19,1.86.57,2.34m-1.35-2.67h-3.8v.66h3.8v-.66Z" fill="#4e4e4e"/></g><g clip-path="url(#h)" fill="none"><path d="m111.95,158.41c.35.28.85.41,1.52.41.4,0,.76-.07,1.08-.21.32-.14.56-.34.73-.59.17-.26.25-.52.25-.81s-.07-.54-.21-.74c-.14-.2-.33-.35-.57-.45s-.67-.24-1.28-.4c-.42-.11-.68-.19-.76-.22-.15-.06-.26-.14-.33-.23-.07-.09-.11-.19-.11-.3,0-.18.08-.33.26-.46.17-.13.45-.2.85-.2.34,0,.6.07.78.22.18.15.29.35.33.61l.84-.11c-.05-.33-.15-.59-.3-.79-.14-.2-.37-.35-.67-.47-.3-.12-.65-.17-1.05-.17-.27,0-.52.04-.75.1-.23.07-.42.15-.55.25-.18.13-.32.29-.42.48-.1.19-.16.4-.16.63,0,.25.06.48.19.68.13.21.31.37.56.48s.68.26,1.32.42c.47.12.77.22.88.29.17.11.25.27.25.46,0,.22-.1.41-.29.57-.19.16-.49.24-.88.24s-.7-.09-.92-.27c-.22-.18-.35-.44-.4-.79l-.86.13c.1.54.32.95.66,1.22m-1.49.3v-.83h-4.32v-2.39h3.89v-.83h-3.89v-2.15h4.15v-.83h-5.09v7.04h5.25Zm-8.08-1.13c-.36.3-.8.45-1.33.45-.43,0-.83-.11-1.2-.33-.37-.22-.64-.55-.81-1-.18-.45-.26-.97-.26-1.57,0-.46.07-.91.22-1.35s.4-.78.77-1.04c.36-.26.82-.39,1.36-.39.47,0,.86.12,1.17.35.31.23.55.61.71,1.12l.92-.22c-.19-.65-.52-1.15-1-1.51-.48-.36-1.07-.54-1.78-.54-.62,0-1.19.14-1.71.42-.52.28-.92.7-1.2,1.24-.28.54-.42,1.18-.42,1.92,0,.67.12,1.3.37,1.89.25.59.61,1.03,1.09,1.34.48.31,1.09.46,1.85.46s1.35-.2,1.86-.6c.51-.4.86-.98,1.05-1.75l-.93-.23c-.13.59-.37,1.04-.73,1.34m-11.61,1.13v-5.99l2.04,5.99h.84l2.04-5.89v5.89h.9v-7.04h-1.25l-1.68,4.9c-.17.5-.29.87-.37,1.13-.07-.23-.18-.58-.33-1.04l-1.67-4.98h-1.4v7.04h.9Zm-5.39-4.95c.16-.45.29-.89.38-1.34.11.38.27.87.5,1.46l.73,1.95h-2.38l.77-2.06Zm-1.81,4.95l.77-2.13h2.94l.82,2.13h1.06l-2.88-7.04h-1l-2.7,7.04h.99Zm-7.32-4.02c.28-.34.61-.52.98-.52s.69.16.96.48c.27.32.4.81.4,1.46,0,.68-.14,1.18-.41,1.51-.27.33-.6.49-.99.49s-.7-.16-.96-.47c-.27-.32-.4-.8-.4-1.46s.14-1.16.42-1.5m-.34,5.97v-2.48c.15.18.33.34.56.46.23.12.49.18.77.18.39,0,.77-.11,1.12-.33.36-.22.63-.54.82-.96.19-.42.28-.89.28-1.41,0-.49-.08-.93-.25-1.34-.17-.41-.42-.72-.75-.95-.33-.22-.72-.34-1.15-.34-.33,0-.62.07-.85.2-.23.13-.44.32-.63.58v-.66h-.79v7.05h.86Zm-2.22-1.95v-5.1h-.86v2.73c0,.44-.05.77-.14,1-.09.23-.26.41-.48.54-.23.13-.47.2-.73.2s-.48-.06-.65-.19c-.18-.13-.29-.31-.35-.54-.04-.16-.05-.46-.05-.91v-2.83h-.86v3.16c0,.37.02.64.05.81.05.25.14.47.27.64.13.17.32.32.58.43.26.12.54.17.84.17.68,0,1.22-.29,1.62-.86v.75h.77Zm-8.58-4.01c.29-.32.64-.48,1.07-.48s.78.16,1.07.49c.29.33.43.8.43,1.43,0,.67-.14,1.17-.43,1.49-.29.33-.64.49-1.07.49s-.79-.16-1.07-.49c-.29-.33-.43-.81-.43-1.47s.14-1.14.43-1.46m-.66,3.44c.44.46,1.02.69,1.73.69.45,0,.85-.1,1.23-.31.38-.21.66-.5.86-.88.2-.38.3-.89.3-1.55,0-.81-.22-1.44-.67-1.9-.44-.46-1.02-.69-1.72-.69-.63,0-1.16.19-1.6.57-.52.46-.79,1.15-.79,2.1,0,.86.22,1.52.66,1.98m-2.76.57v-2.67c0-.37.05-.7.14-1.01.06-.2.17-.36.32-.47.15-.11.32-.17.51-.17.21,0,.42.06.63.19l.3-.8c-.3-.19-.6-.28-.89-.28-.2,0-.39.06-.56.17-.17.11-.35.35-.55.71v-.77h-.78v5.1h.86Zm-5.36-4.03c.27-.31.59-.47.98-.47s.72.16,1,.48c.28.32.41.79.41,1.41s-.13,1.13-.4,1.44c-.27.31-.6.46-1,.46s-.73-.15-1-.46c-.26-.31-.4-.79-.4-1.46,0-.61.13-1.08.4-1.39m-.58,5.69c.37.27.87.41,1.47.41.51,0,.94-.1,1.29-.29.35-.19.61-.45.77-.78.16-.33.24-.89.24-1.69v-4.41h-.8v.62c-.39-.49-.89-.73-1.49-.73-.45,0-.85.11-1.18.34-.33.22-.59.54-.76.95-.18.41-.26.86-.26,1.34,0,.71.19,1.31.57,1.82.38.51.93.76,1.63.76.56,0,1.03-.22,1.41-.67,0,.56-.02.93-.06,1.11-.08.29-.22.51-.44.67-.22.16-.53.24-.93.24-.37,0-.66-.08-.88-.24-.16-.12-.26-.31-.29-.57l-.84-.12c-.01.55.17.96.54,1.24m-4.65-5.67c.27-.33.6-.49.98-.49s.69.16.96.48c.26.32.4.81.4,1.47s-.14,1.14-.41,1.47-.6.49-.98.49c-.46,0-.83-.22-1.1-.67-.17-.27-.25-.71-.25-1.32s.14-1.1.41-1.42m-.4,3.37c.34.5.81.75,1.42.75s1.12-.24,1.55-.71c.43-.48.65-1.15.65-2.03,0-.37-.05-.71-.15-1.04-.1-.32-.24-.6-.43-.83s-.41-.41-.69-.53c-.28-.13-.58-.19-.89-.19-.57,0-1.03.23-1.4.69v-2.51h-.86v7.04h.8v-.64Zm-2.15.64v-5.1h-.86v2.73c0,.44-.05.77-.14,1-.09.23-.25.41-.48.54-.23.13-.47.2-.73.2s-.48-.06-.65-.19c-.18-.13-.29-.31-.35-.54-.04-.16-.05-.46-.05-.91v-2.83h-.86v3.16c0,.37.02.64.05.81.05.25.14.47.27.64.13.17.32.32.58.43.26.12.54.17.84.17.68,0,1.22-.29,1.62-.86v.75h.77Zm-10.49-1c.24.37.58.65,1.01.84.43.19.96.28,1.6.28.5,0,.95-.09,1.35-.28.4-.18.71-.44.92-.77.21-.33.32-.68.32-1.06s-.1-.71-.29-1c-.19-.29-.5-.53-.91-.72-.28-.13-.8-.28-1.56-.45-.76-.17-1.23-.34-1.4-.5-.18-.16-.27-.37-.27-.62,0-.29.13-.54.39-.75.26-.21.67-.31,1.23-.31s.95.11,1.23.34c.28.23.44.56.49,1.01l.89-.07c-.02-.41-.13-.78-.35-1.11-.21-.33-.52-.57-.92-.74-.4-.17-.86-.25-1.38-.25-.47,0-.9.08-1.29.24-.39.16-.68.39-.88.7-.2.31-.3.64-.3.99,0,.33.08.62.25.88.17.26.42.48.75.66.26.14.71.28,1.36.44.64.16,1.06.27,1.25.34.29.11.51.25.63.41.13.17.19.36.19.58s-.07.42-.2.6c-.13.18-.34.33-.61.43-.27.1-.59.16-.94.16-.4,0-.76-.07-1.08-.21-.32-.14-.56-.32-.71-.55-.15-.22-.25-.51-.29-.87l-.88.08c.01.47.14.89.39,1.27" fill="#010101"/><line x1="171.77" y1="274.08" x2="171.77" y2="238.35" fill="none" stroke="#bcbcbc" stroke-linejoin="round" stroke-width=".96"/><polyline points="180.45 257.82 183.45 263.02 177.46 263.02 180.45 257.82" fill="#010101"/><rect x="128.13" y="265.15" width="4.45" height="4.45" fill="#010101"/><polyline points="163.35 241.59 166.34 246.77 160.36 246.77 163.35 241.59" fill="#010101"/><rect x="210.76" y="248.91" width="4.45" height="4.45" fill="#010101"/><line x1="201.22" y1="261.28" x2="159.69" y2="261.28" fill="none" stroke="#010101" stroke-linejoin="round" stroke-width=".38"/><line x1="154.1" y1="267.38" x2="106.61" y2="267.38" fill="none" stroke="#010101" stroke-linejoin="round" stroke-width=".38"/><line x1="183.79" y1="245.05" x2="142.91" y2="245.05" fill="none" stroke="#010101" stroke-linejoin="round" stroke-width=".38"/><line x1="236.67" y1="251.13" x2="189.3" y2="251.13" fill="none" stroke="#010101" stroke-linejoin="round" stroke-width=".38"/><path d="m157.18,253.42h-.81v.8h.81v-.8Zm-4.21-2.48c.23-.28.5-.42.8-.42s.57.13.78.4c.22.26.33.66.33,1.19s-.11.97-.34,1.24c-.22.26-.49.4-.81.4s-.57-.13-.79-.38c-.22-.26-.33-.65-.33-1.19s.12-.95.35-1.23m-.28,4.89v-2.03c.12.15.27.28.46.38.19.1.4.15.63.15.32,0,.63-.09.92-.27.29-.18.51-.45.67-.79.15-.34.23-.73.23-1.15,0-.4-.07-.76-.21-1.1-.14-.33-.34-.59-.62-.77-.27-.18-.58-.27-.94-.27-.27,0-.5.05-.7.16-.19.11-.36.26-.51.48v-.54h-.64v5.77h.71Zm-4.28-4.96c.22-.22.49-.33.82-.33.36,0,.65.14.88.41.15.18.23.44.27.79h-2.33c.02-.36.15-.65.37-.87m1.52,2.67c-.18.14-.4.2-.66.2-.35,0-.64-.12-.87-.36-.23-.24-.36-.59-.39-1.05h3.11c0-.08,0-.15,0-.19,0-.69-.18-1.22-.53-1.6-.35-.38-.81-.57-1.37-.57s-1.05.19-1.41.58c-.36.39-.54.93-.54,1.63s.18,1.21.54,1.58c.36.38.84.56,1.45.56.48,0,.88-.12,1.19-.35.31-.23.52-.57.64-.99l-.73-.09c-.11.3-.25.51-.44.65m-7.36-4.43h1.82c.43,0,.74.09.94.26.2.17.3.4.3.67,0,.19-.05.36-.15.52-.1.16-.25.27-.45.35-.2.07-.47.11-.82.11h-1.64v-1.9Zm0,5.12v-2.56h.88c.2,0,.34,0,.42.03.12.03.23.08.35.15.11.07.24.2.39.39.15.18.33.45.55.79l.76,1.2h.96l-1-1.57c-.2-.31-.41-.56-.63-.77-.1-.09-.26-.19-.46-.29.55-.08.96-.25,1.23-.54.26-.28.4-.62.4-1.03,0-.32-.08-.61-.24-.87-.16-.26-.37-.44-.64-.55-.26-.1-.66-.16-1.17-.16h-2.55v5.76h.76Z" fill="#010101"/><path d="m201.66,269.66h-.8v.8h.8v-.8Zm-4.21-2.48c.23-.28.5-.42.8-.42s.57.13.78.4c.22.26.33.66.33,1.19,0,.56-.11.97-.34,1.24-.22.26-.49.4-.81.4s-.57-.13-.79-.38c-.22-.26-.33-.65-.33-1.19s.12-.95.35-1.23m-.28,4.89v-2.03c.12.15.27.28.46.38.19.1.4.15.64.15.32,0,.63-.09.92-.27.29-.18.51-.44.67-.79.15-.34.23-.73.23-1.15,0-.4-.07-.76-.21-1.1-.14-.33-.34-.59-.62-.78-.27-.18-.59-.27-.94-.27-.27,0-.5.05-.7.16-.19.11-.36.26-.51.48v-.54h-.65v5.77h.71Zm-4.28-4.96c.22-.22.49-.33.82-.33.36,0,.65.14.88.41.15.18.24.44.27.79h-2.33c.02-.36.15-.65.37-.87m1.52,2.67c-.18.14-.4.2-.66.2-.35,0-.64-.12-.87-.37-.23-.24-.36-.59-.39-1.05h3.11c0-.08,0-.15,0-.19,0-.69-.18-1.22-.53-1.6-.35-.38-.81-.57-1.37-.57s-1.04.19-1.41.58c-.36.39-.54.93-.54,1.63s.18,1.21.54,1.58c.36.38.84.56,1.45.56.49,0,.88-.12,1.2-.35.31-.24.52-.57.64-.99l-.73-.09c-.11.3-.25.52-.44.65m-7.36-4.43h1.82c.43,0,.74.09.94.26.2.18.3.4.3.67,0,.19-.05.36-.15.52-.1.16-.25.27-.45.35-.2.07-.47.11-.82.11h-1.64v-1.9Zm0,5.12v-2.56h.88c.2,0,.34,0,.42.03.12.03.23.08.35.15.11.07.24.2.39.39.14.18.33.45.55.79l.76,1.2h.96l-1-1.57c-.2-.31-.41-.56-.63-.77-.11-.1-.26-.19-.46-.29.55-.08.96-.25,1.23-.53.26-.28.4-.62.4-1.03,0-.32-.08-.61-.24-.87-.16-.26-.37-.45-.64-.55-.27-.1-.66-.15-1.17-.15h-2.55v5.76h.76Z" fill="#010101"/><path d="m236.26,246.92h-.81v.8h.81v-.8Zm-7,.8v-2.16c0-.38.04-.67.11-.87.07-.2.2-.36.37-.46.17-.1.35-.16.55-.16.26,0,.45.08.57.24.11.16.17.39.17.71v2.71h.71v-2.42c0-.43.1-.74.29-.94.19-.19.44-.29.73-.29.16,0,.3.04.42.11.12.08.2.18.25.3.05.12.07.33.07.61v2.63h.7v-2.86c0-.48-.11-.83-.33-1.06-.22-.23-.54-.34-.95-.34-.53,0-.96.24-1.29.73-.08-.23-.22-.41-.42-.54-.2-.13-.45-.19-.76-.19-.28,0-.52.06-.74.19-.22.12-.39.29-.52.49v-.59h-.63v4.17h.71Zm-4.28-3.36c.22-.22.49-.33.82-.33.36,0,.65.14.88.41.15.17.23.44.27.79h-2.33c.02-.36.15-.65.37-.87m1.52,2.67c-.18.14-.4.2-.66.2-.35,0-.64-.12-.87-.37-.23-.24-.36-.59-.39-1.05h3.11c0-.08,0-.15,0-.19,0-.69-.18-1.22-.53-1.6-.35-.38-.81-.57-1.37-.57s-1.04.19-1.41.58c-.36.39-.54.93-.54,1.63s.18,1.21.54,1.58c.36.38.84.56,1.45.56.49,0,.88-.12,1.2-.35.31-.24.52-.57.64-.99l-.73-.09c-.11.3-.25.52-.44.65m-7.37-4.39h1.21c.45,0,.78.04.99.12.28.11.52.33.72.65.2.32.3.79.3,1.39,0,.44-.05.81-.15,1.11-.1.3-.24.55-.42.73-.13.13-.3.23-.52.3-.22.07-.51.11-.89.11h-1.23v-4.4Zm1.32,5.08c.35,0,.66-.03.92-.1.27-.07.5-.16.69-.29.19-.13.36-.3.52-.52.16-.22.29-.5.39-.84.1-.34.15-.73.15-1.16,0-.51-.07-.97-.22-1.37-.15-.4-.38-.73-.68-.98-.23-.2-.51-.34-.84-.41-.24-.05-.58-.08-1.02-.08h-1.98v5.76h2.08Z" fill="#010101"/><path d="m125.09,263.17h-.8v.8h.8v-.8Zm-7,.8v-2.16c0-.38.04-.67.11-.87.08-.2.2-.36.37-.46.17-.11.35-.16.55-.16.26,0,.45.08.57.23.11.16.17.39.17.71v2.71h.71v-2.42c0-.43.1-.74.29-.94.19-.2.44-.29.73-.29.16,0,.3.04.42.11.12.08.2.18.25.3.05.12.07.33.07.61v2.63h.7v-2.86c0-.48-.11-.83-.33-1.06-.22-.23-.54-.34-.95-.34-.53,0-.96.24-1.29.73-.08-.23-.22-.41-.42-.54-.2-.13-.45-.19-.76-.19-.28,0-.53.06-.74.19-.22.12-.39.29-.52.49v-.59h-.63v4.17h.71Zm-4.28-3.36c.22-.22.5-.33.82-.33.36,0,.65.14.88.41.15.18.24.44.27.79h-2.33c.02-.36.14-.65.37-.87m1.52,2.67c-.18.14-.4.21-.66.21-.35,0-.64-.12-.87-.37-.23-.24-.36-.59-.39-1.05h3.11c0-.08,0-.15,0-.19,0-.69-.18-1.22-.53-1.6-.35-.38-.81-.57-1.37-.57s-1.04.19-1.41.58c-.36.39-.54.93-.54,1.63s.18,1.2.54,1.58c.36.38.84.56,1.45.56.49,0,.88-.12,1.19-.35.31-.23.52-.57.64-.99l-.73-.09c-.11.3-.25.52-.44.65m-7.37-4.39h1.21c.45,0,.78.04.99.12.28.11.52.33.72.65.2.32.3.79.3,1.39,0,.44-.05.81-.15,1.11-.1.31-.24.55-.42.73-.13.13-.3.23-.52.3-.22.07-.51.11-.89.11h-1.23v-4.4Zm1.32,5.08c.35,0,.66-.03.92-.1.27-.07.5-.16.69-.29.19-.13.36-.3.52-.52.16-.22.29-.5.39-.84s.15-.73.15-1.16c0-.51-.08-.97-.22-1.37-.15-.4-.38-.73-.68-.98-.23-.2-.52-.34-.84-.41-.24-.05-.58-.08-1.03-.08h-1.98v5.76h2.08Z" fill="#010101"/><path d="m29.8,263.86c.22-.22.49-.33.82-.33.36,0,.65.14.88.41.15.17.24.44.27.79h-2.33c.02-.36.15-.65.37-.87m1.52,2.67c-.18.14-.4.2-.66.2-.35,0-.64-.12-.87-.37-.23-.24-.36-.59-.39-1.05h3.11c0-.08,0-.15,0-.19,0-.69-.18-1.22-.53-1.6-.35-.38-.81-.57-1.37-.57s-1.04.19-1.4.58c-.36.39-.54.93-.54,1.63s.18,1.2.54,1.58c.36.38.84.56,1.45.56.49,0,.88-.12,1.19-.35.31-.24.53-.57.64-.99l-.73-.09c-.11.3-.25.52-.44.65m-3.51-5.07h-.71v5.76h.71v-5.76Zm-2.5,3.92c0,.31-.04.55-.11.71-.1.21-.26.37-.47.49-.21.12-.45.18-.73.18s-.48-.06-.63-.19c-.14-.13-.21-.28-.21-.47,0-.12.03-.23.1-.34.07-.1.16-.18.28-.23.12-.05.33-.1.62-.14.51-.07.9-.16,1.15-.27v.26Zm.2,1.83h.74c-.09-.16-.15-.33-.18-.5-.03-.17-.04-.59-.04-1.25v-.94c0-.32-.01-.53-.04-.65-.04-.19-.12-.35-.22-.48-.1-.13-.27-.23-.49-.32-.22-.08-.51-.13-.87-.13s-.68.05-.95.15c-.27.1-.48.24-.62.42-.14.18-.25.42-.31.72l.69.09c.08-.3.19-.5.35-.62.16-.12.4-.17.74-.17.36,0,.62.08.8.24.14.12.2.32.2.61,0,.03,0,.09,0,.18-.27.09-.69.17-1.26.24-.28.03-.49.07-.63.11-.19.05-.36.13-.51.23-.15.1-.27.24-.37.41-.09.17-.14.36-.14.56,0,.35.12.63.37.86.25.22.6.33,1.06.33.28,0,.54-.05.78-.14.24-.09.49-.25.76-.47.02.2.07.37.14.51m-8.76,0v-4.9l1.66,4.9h.69l1.67-4.82v4.82h.74v-5.76h-1.03l-1.38,4.01c-.14.4-.24.71-.31.92-.06-.19-.15-.47-.27-.85l-1.36-4.08h-1.15v5.76h.73Z" fill="#4e4e4e"/><path d="m29.8,247.61c.22-.22.49-.33.82-.33.36,0,.65.14.88.41.15.17.24.44.27.79h-2.33c.02-.36.15-.65.37-.87m1.52,2.67c-.18.14-.4.2-.66.2-.35,0-.64-.12-.87-.37-.23-.24-.36-.59-.39-1.05h3.11c0-.08,0-.15,0-.19,0-.69-.18-1.22-.53-1.6s-.81-.57-1.37-.57-1.04.19-1.41.58c-.36.39-.54.93-.54,1.63s.18,1.21.54,1.58c.36.38.84.56,1.45.56.48,0,.88-.12,1.19-.35.31-.24.52-.57.64-.99l-.73-.09c-.11.3-.25.52-.44.65m-3.51-5.07h-.71v5.76h.71v-5.76Zm-2.5,3.92c0,.31-.04.55-.12.71-.1.21-.25.37-.47.49-.21.12-.45.18-.73.18s-.48-.06-.63-.19c-.14-.12-.21-.28-.21-.47,0-.12.03-.23.1-.34.07-.1.16-.18.28-.23.12-.05.33-.1.62-.14.51-.07.9-.16,1.15-.27v.26Zm.2,1.83h.74c-.09-.16-.15-.33-.18-.5-.03-.17-.04-.59-.04-1.25v-.94c0-.32-.01-.53-.04-.65-.04-.19-.12-.35-.22-.48-.1-.13-.27-.23-.49-.32-.22-.08-.51-.12-.87-.12s-.67.05-.95.15c-.27.1-.48.24-.62.42-.14.18-.25.42-.31.72l.69.09c.08-.3.19-.5.35-.62.16-.12.4-.18.74-.18.36,0,.62.08.81.24.13.12.2.32.2.61,0,.03,0,.09,0,.18-.27.1-.69.17-1.26.24-.28.03-.49.07-.63.11-.19.05-.36.13-.51.23-.15.1-.27.24-.36.41-.09.17-.14.36-.14.56,0,.35.12.63.37.86s.6.34,1.06.34c.28,0,.54-.05.78-.14.24-.09.49-.25.76-.47.02.2.07.37.14.52m-8.86,0v-2.16c0-.38.04-.67.11-.87.08-.2.2-.35.37-.46.17-.11.35-.16.55-.16.26,0,.45.08.57.24.12.16.17.39.17.71v2.71h.71v-2.42c0-.43.1-.74.29-.94.19-.2.44-.29.73-.29.16,0,.3.04.43.11.12.08.2.18.25.3.05.12.07.33.07.61v2.63h.7v-2.86c0-.48-.11-.83-.33-1.06-.22-.23-.54-.34-.95-.34-.53,0-.96.24-1.29.73-.08-.23-.22-.41-.42-.54-.2-.13-.45-.19-.76-.19-.28,0-.52.06-.74.18-.22.12-.39.29-.52.49v-.58h-.63v4.17h.71Zm-4.28-3.36c.22-.22.49-.33.82-.33.36,0,.65.14.88.41.15.17.24.44.27.79h-2.33c.02-.36.15-.65.37-.87m1.52,2.67c-.18.14-.4.2-.66.2-.35,0-.64-.12-.87-.37-.23-.24-.36-.59-.39-1.05h3.11c0-.08,0-.15,0-.19,0-.69-.18-1.22-.53-1.6-.35-.38-.81-.57-1.37-.57s-1.04.19-1.41.58c-.36.39-.54.93-.54,1.63s.18,1.21.54,1.58c.36.38.84.56,1.45.56.48,0,.88-.12,1.19-.35.31-.24.52-.57.64-.99l-.73-.09c-.11.3-.25.52-.44.65m-6.2.69v-2.62h2.7v-.68h-2.7v-1.78h3.12v-.68h-3.88v5.76h.76Z" fill="#4e4e4e"/><line x1="34.79" y1="264.33" x2="37.24" y2="264.33" fill="none" stroke="#333" stroke-linejoin="round" stroke-width=".96"/><line x1="34.79" y1="248.08" x2="37.24" y2="248.08" fill="none" stroke="#333" stroke-linejoin="round" stroke-width=".96"/><line x1="60.59" y1="276.53" x2="60.59" y2="274.08" fill="none" stroke="#333" stroke-linejoin="round" stroke-width=".96"/><line x1="116.18" y1="276.53" x2="116.18" y2="274.08" fill="none" stroke="#333" stroke-linejoin="round" stroke-width=".96"/><line x1="171.77" y1="276.53" x2="171.77" y2="274.08" fill="none" stroke="#333" stroke-linejoin="round" stroke-width=".96"/><line x1="227.36" y1="276.53" x2="227.36" y2="274.08" fill="none" stroke="#333" stroke-linejoin="round" stroke-width=".96"/><line x1="282.94" y1="276.53" x2="282.94" y2="274.08" fill="none" stroke="#333" stroke-linejoin="round" stroke-width=".96"/></g><g clip-path="url(#i)" fill="none"><path d="m287.73,279.47c.19-.27.45-.41.78-.41s.61.15.83.47c.22.31.33.94.33,1.89s-.11,1.57-.33,1.88c-.22.31-.49.47-.82.47s-.6-.16-.82-.47c-.22-.31-.33-.94-.33-1.89s.12-1.59.37-1.94m-.52,4.28c.32.4.75.6,1.31.6.42,0,.77-.11,1.05-.34.28-.23.48-.55.62-.96.14-.42.21-.96.21-1.64,0-.57-.04-1.02-.13-1.36-.09-.34-.21-.62-.36-.86-.15-.24-.34-.41-.58-.54-.23-.12-.5-.19-.81-.19-.42,0-.77.11-1.04.34-.27.23-.48.55-.62.96-.14.41-.21.96-.21,1.64,0,1.08.19,1.86.57,2.34m-3.92-2.27c.22-.23.49-.34.81-.34s.59.11.8.34c.21.23.32.54.32.94s-.11.74-.32.98c-.22.24-.47.36-.77.36-.2,0-.4-.06-.58-.18-.19-.12-.33-.29-.43-.51-.1-.22-.16-.46-.16-.7,0-.37.11-.67.33-.9m2.03-2.63c-.29-.25-.66-.38-1.11-.38-.61,0-1.09.22-1.45.66-.41.51-.62,1.31-.62,2.43,0,.99.19,1.71.56,2.14.37.43.85.65,1.44.65.35,0,.65-.08.93-.25.27-.17.49-.4.64-.71.16-.31.24-.65.24-1.01,0-.55-.17-1-.5-1.35-.33-.35-.73-.52-1.2-.52-.27,0-.53.06-.77.19-.24.13-.45.32-.62.58,0-.58.07-1.02.2-1.33.13-.31.3-.55.53-.71.17-.13.37-.19.59-.19.28,0,.52.1.71.3.11.13.2.33.27.6l.7-.05c-.06-.45-.23-.8-.52-1.05m-4.18,4.59h-.8v.81h.8v-.81Zm-4.58-3.98c.19-.27.45-.41.78-.41s.61.15.83.47c.22.31.33.94.33,1.89s-.11,1.57-.33,1.88c-.22.31-.49.47-.82.47s-.6-.16-.82-.47c-.22-.31-.33-.94-.33-1.89s.12-1.59.36-1.94m-.52,4.28c.32.4.75.6,1.31.6.42,0,.77-.11,1.05-.34.27-.23.48-.55.62-.96.14-.42.21-.96.21-1.64,0-.57-.04-1.02-.13-1.36-.09-.34-.21-.62-.36-.86-.15-.24-.34-.41-.58-.54-.23-.12-.5-.19-.81-.19-.42,0-.76.11-1.04.34-.28.23-.48.55-.62.96-.14.41-.21.96-.21,1.64,0,1.08.19,1.86.57,2.34m-44.41.16c.33.29.76.44,1.28.44.64,0,1.14-.23,1.51-.7.3-.38.46-.83.46-1.35,0-.55-.17-.99-.52-1.34-.34-.35-.77-.52-1.27-.52-.38,0-.74.12-1.09.36l.31-1.55h2.3v-.67h-2.86l-.56,2.96.66.09c.1-.17.25-.3.43-.4.18-.1.39-.15.62-.15.37,0,.66.12.89.35.23.23.34.55.34.96,0,.42-.12.76-.35,1.02-.23.26-.52.39-.86.39-.28,0-.52-.09-.72-.27-.2-.18-.33-.45-.38-.82l-.74.06c.05.49.24.87.57,1.17m-4.47,0c.33.29.76.44,1.28.44.64,0,1.14-.23,1.51-.7.3-.38.45-.83.45-1.35,0-.55-.17-.99-.52-1.34-.34-.35-.77-.52-1.27-.52-.38,0-.74.12-1.09.36l.31-1.55h2.3v-.67h-2.86l-.56,2.96.66.09c.11-.17.25-.3.43-.4.18-.1.39-.15.62-.15.37,0,.66.12.89.35.23.23.34.55.34.96,0,.42-.12.76-.35,1.02-.23.26-.52.39-.86.39-.28,0-.52-.09-.73-.27-.2-.18-.33-.45-.38-.82l-.74.06c.05.49.24.87.57,1.17m-1.6-.46h-.8v.81h.8v-.81Zm-4.58-3.98c.19-.27.45-.41.78-.41s.61.15.83.47c.22.31.33.94.33,1.89s-.11,1.57-.33,1.88c-.22.31-.49.47-.82.47s-.6-.16-.82-.47c-.22-.31-.33-.94-.33-1.89s.12-1.59.37-1.94m-.52,4.28c.32.4.75.6,1.31.6.42,0,.77-.11,1.05-.34.28-.23.48-.55.62-.96.14-.42.21-.96.21-1.64,0-.57-.04-1.02-.13-1.36-.09-.34-.21-.62-.36-.86-.15-.24-.34-.41-.58-.54-.23-.12-.51-.19-.81-.19-.42,0-.77.11-1.04.34-.28.23-.48.55-.62.96-.14.41-.21.96-.21,1.64,0,1.08.19,1.86.57,2.34m-43.89-4.28c.19-.27.45-.41.78-.41s.61.15.83.47c.22.31.33.94.33,1.89s-.11,1.57-.33,1.88-.49.47-.82.47-.6-.16-.82-.47c-.22-.31-.33-.94-.33-1.89s.12-1.59.37-1.94m-.52,4.28c.32.4.75.6,1.31.6.42,0,.77-.11,1.05-.34.28-.23.48-.55.62-.96.14-.42.21-.96.21-1.64,0-.57-.04-1.02-.13-1.36-.09-.34-.21-.62-.36-.86-.15-.24-.35-.41-.58-.54-.24-.12-.51-.19-.81-.19-.42,0-.77.11-1.04.34-.28.23-.48.55-.62.96-.14.41-.21.96-.21,1.64,0,1.08.19,1.86.57,2.34m-4.47.16c.33.29.76.44,1.28.44.64,0,1.14-.23,1.51-.7.3-.38.46-.83.46-1.35,0-.55-.17-.99-.52-1.34-.35-.35-.77-.52-1.27-.52-.38,0-.74.12-1.09.36l.31-1.55h2.3v-.67h-2.86l-.56,2.96.66.09c.1-.17.25-.3.43-.4.18-.1.39-.15.62-.15.37,0,.66.12.89.35.23.23.34.55.34.96,0,.42-.12.76-.36,1.02-.23.26-.52.39-.86.39-.28,0-.52-.09-.72-.27-.2-.18-.33-.45-.38-.82l-.74.06c.05.49.24.87.57,1.17m-1.6-.46h-.8v.81h.8v-.81Zm-4.58-3.98c.2-.27.45-.41.78-.41s.61.15.83.47c.22.31.33.94.33,1.89s-.11,1.57-.33,1.88-.49.47-.82.47-.6-.16-.82-.47c-.22-.31-.33-.94-.33-1.89s.12-1.59.36-1.94m-.52,4.28c.32.4.75.6,1.31.6.42,0,.77-.11,1.05-.34.28-.23.48-.55.62-.96.14-.42.21-.96.21-1.64,0-.57-.04-1.02-.13-1.36-.09-.34-.21-.62-.36-.86-.15-.24-.35-.41-.58-.54-.23-.12-.5-.19-.81-.19-.42,0-.77.11-1.04.34-.28.23-.48.55-.62.96-.14.41-.21.96-.21,1.64,0,1.08.19,1.86.57,2.34m-44.41.16c.33.29.76.44,1.28.44.64,0,1.14-.23,1.51-.7.3-.38.46-.83.46-1.35,0-.55-.17-.99-.52-1.34-.35-.35-.77-.52-1.27-.52-.38,0-.74.12-1.09.36l.31-1.55h2.3v-.67h-2.86l-.56,2.96.66.09c.11-.17.25-.3.43-.4.18-.1.39-.15.62-.15.37,0,.66.12.89.35.23.23.34.55.34.96,0,.42-.12.76-.35,1.02-.23.26-.52.39-.86.39-.28,0-.52-.09-.72-.27-.2-.18-.33-.45-.38-.82l-.74.06c.05.49.24.87.57,1.17m-4.57-1.68l1.8-2.6v2.6h-1.8Zm2.51,2.03v-1.38h.78v-.65h-.78v-3.73h-.58l-2.63,3.73v.65h2.5v1.38h.71Zm-4.01-.81h-.8v.81h.8v-.81Zm-4.58-3.98c.19-.27.46-.41.78-.41s.61.15.83.47c.22.31.33.94.33,1.89s-.11,1.57-.33,1.88c-.22.31-.49.47-.82.47s-.6-.16-.82-.47c-.22-.31-.33-.94-.33-1.89s.12-1.59.36-1.94m-.52,4.28c.32.4.75.6,1.31.6.42,0,.77-.11,1.05-.34.28-.23.48-.55.62-.96.14-.42.21-.96.21-1.64,0-.57-.04-1.02-.13-1.36-.09-.34-.21-.62-.36-.86-.15-.24-.34-.41-.58-.54-.23-.12-.5-.19-.81-.19-.42,0-.77.11-1.04.34-.28.23-.49.55-.62.96-.14.41-.21.96-.21,1.64,0,1.08.19,1.86.57,2.34m-43.89-4.28c.19-.27.45-.41.78-.41s.61.15.83.47c.22.31.33.94.33,1.89s-.11,1.57-.33,1.88c-.22.31-.49.47-.82.47s-.6-.16-.82-.47c-.22-.31-.33-.94-.33-1.89s.12-1.59.36-1.94m-.52,4.28c.32.4.75.6,1.31.6.42,0,.77-.11,1.05-.34.28-.23.48-.55.62-.96s.21-.96.21-1.64c0-.57-.04-1.02-.13-1.36-.09-.34-.21-.62-.36-.86-.15-.24-.34-.41-.58-.54-.23-.12-.5-.19-.81-.19-.42,0-.77.11-1.04.34-.28.23-.49.55-.62.96-.14.41-.21.96-.21,1.64,0,1.08.19,1.86.57,2.34m-4.58-1.53l1.8-2.6v2.6h-1.8Zm2.51,2.03v-1.38h.78v-.65h-.78v-3.73h-.58l-2.63,3.73v.65h2.5v1.38h.71Zm-4.01-.81h-.81v.81h.81v-.81Zm-4.58-3.98c.19-.27.45-.41.78-.41s.6.15.83.47c.22.31.33.94.33,1.89s-.11,1.57-.33,1.88c-.22.31-.49.47-.82.47s-.6-.16-.82-.47c-.22-.31-.33-.94-.33-1.89s.12-1.59.37-1.94m-.52,4.28c.32.4.75.6,1.31.6.42,0,.77-.11,1.05-.34.28-.23.48-.55.62-.96.14-.42.21-.96.21-1.64,0-.57-.04-1.02-.13-1.36-.09-.34-.21-.62-.36-.86-.15-.24-.35-.41-.58-.54-.23-.12-.5-.19-.81-.19-.42,0-.77.11-1.04.34-.28.23-.48.55-.62.96-.14.41-.21.96-.21,1.64,0,1.08.19,1.86.57,2.34" fill="#4e4e4e"/></g><g clip-path="url(#j)" fill="none"><path d="m99.93,230.79c.35.28.85.41,1.51.41.4,0,.76-.07,1.07-.21.32-.14.56-.34.73-.59.17-.25.25-.53.25-.81s-.07-.54-.21-.74c-.14-.2-.33-.35-.57-.45s-.67-.24-1.28-.4c-.42-.12-.68-.19-.76-.22-.15-.06-.26-.14-.33-.23-.07-.09-.11-.19-.11-.3,0-.18.09-.33.26-.46.17-.13.45-.2.85-.2.34,0,.6.07.78.22.18.15.3.35.33.62l.84-.12c-.05-.33-.15-.59-.3-.79-.15-.2-.37-.35-.67-.47-.3-.11-.65-.17-1.05-.17-.27,0-.51.04-.75.1-.23.07-.42.15-.55.25-.18.13-.32.29-.42.48-.11.19-.16.4-.16.63,0,.25.06.48.19.68.12.21.31.37.56.48.24.12.68.26,1.32.42.47.12.77.22.88.29.17.11.25.27.25.46,0,.22-.1.41-.29.57-.19.16-.48.24-.88.24s-.7-.09-.92-.27c-.22-.18-.35-.44-.4-.79l-.85.14c.1.54.32.95.66,1.22m-7.53.3v-5.99l2.03,5.99h.84l2.04-5.89v5.89h.9v-7.04h-1.25l-1.68,4.9c-.17.49-.29.87-.37,1.13-.07-.23-.18-.58-.34-1.04l-1.67-4.98h-1.4v7.04h.9Zm-8.19,0v-5.99l2.04,5.99h.84l2.05-5.89v5.89h.9v-7.04h-1.25l-1.68,4.9c-.17.49-.3.87-.38,1.13-.07-.23-.18-.58-.34-1.04l-1.67-4.98h-1.4v7.04h.9Zm-7.97-4.02c.28-.34.61-.52.98-.52s.69.16.96.49c.27.32.4.81.4,1.46s-.14,1.18-.41,1.51c-.27.33-.6.49-.99.49s-.7-.16-.96-.47c-.27-.31-.4-.8-.4-1.46s.14-1.16.42-1.5m-.34,5.97v-2.48c.15.18.33.34.56.46.23.12.49.18.77.18.39,0,.77-.11,1.12-.33.36-.22.63-.54.82-.96.19-.42.28-.89.28-1.41,0-.49-.08-.93-.25-1.34-.17-.41-.42-.72-.75-.95-.33-.22-.72-.34-1.15-.34-.33,0-.62.07-.85.2-.23.13-.44.33-.63.58v-.66h-.79v7.05h.86Zm-2.22-1.95v-5.1h-.86v2.73c0,.43-.05.77-.14.99-.09.23-.26.41-.48.54-.23.13-.47.2-.73.2s-.48-.06-.65-.19c-.18-.13-.29-.31-.35-.53-.04-.16-.05-.46-.05-.91v-2.83h-.86v3.16c0,.37.02.64.05.81.05.25.14.47.27.64.13.17.32.32.58.43.26.11.54.17.84.17.68,0,1.22-.29,1.62-.86v.75h.77Zm-8.58-4.01c.29-.32.64-.48,1.07-.48s.78.16,1.07.49c.29.32.43.8.43,1.43,0,.67-.14,1.16-.43,1.49-.29.33-.64.49-1.07.49s-.79-.16-1.07-.49c-.29-.32-.43-.81-.43-1.47s.14-1.14.43-1.46m-.66,3.44c.44.46,1.02.69,1.73.69.45,0,.85-.1,1.23-.31.38-.21.66-.5.86-.88.2-.38.3-.89.3-1.55,0-.81-.22-1.44-.67-1.9-.44-.46-1.02-.69-1.72-.69-.63,0-1.16.19-1.6.57-.52.46-.79,1.15-.79,2.1,0,.86.22,1.52.66,1.98m-2.76.57v-2.67c0-.36.05-.7.14-1.01.06-.2.17-.36.32-.47.15-.11.32-.17.51-.17.21,0,.42.06.63.19l.3-.8c-.3-.19-.6-.28-.89-.28-.2,0-.39.06-.56.17s-.35.35-.55.72v-.77h-.78v5.1h.86Zm-5.36-4.03c.27-.31.59-.47.98-.47s.72.16,1,.48c.28.32.41.79.41,1.41s-.13,1.13-.4,1.44c-.27.3-.6.46-1,.46s-.73-.15-1-.46c-.26-.31-.4-.8-.4-1.47,0-.61.13-1.08.4-1.39m-.58,5.69c.37.27.87.41,1.47.41.51,0,.94-.1,1.29-.29.35-.19.61-.45.77-.78.16-.33.24-.89.24-1.69v-4.41h-.8v.62c-.39-.49-.89-.73-1.49-.73-.45,0-.85.11-1.18.34-.33.23-.59.54-.76.95s-.26.86-.26,1.35c0,.71.19,1.31.57,1.82.38.51.93.76,1.63.76.56,0,1.03-.22,1.41-.67,0,.56-.02.93-.06,1.11-.08.29-.22.51-.44.67-.22.16-.53.24-.93.24-.37,0-.66-.08-.88-.24-.16-.12-.26-.31-.29-.57l-.84-.12c-.01.55.17.96.54,1.23m-4.65-5.67c.27-.33.6-.49.98-.49s.69.16.96.48c.26.32.4.81.4,1.47s-.14,1.14-.41,1.47-.6.49-.98.49c-.46,0-.83-.22-1.1-.67-.17-.27-.25-.71-.25-1.33s.14-1.1.41-1.42m-.4,3.37c.34.5.81.75,1.42.75s1.12-.24,1.55-.71c.43-.48.65-1.15.65-2.02,0-.37-.05-.71-.15-1.04-.1-.32-.24-.6-.43-.83-.18-.23-.41-.41-.69-.53-.28-.13-.58-.19-.89-.19-.57,0-1.03.23-1.4.69v-2.51h-.86v7.04h.8v-.64Zm-2.15.64v-5.1h-.86v2.73c0,.43-.05.77-.14.99-.09.23-.25.41-.48.54-.23.13-.47.2-.73.2s-.48-.06-.65-.19c-.18-.13-.29-.31-.35-.53-.04-.16-.05-.46-.05-.91v-2.83h-.86v3.16c0,.37.02.64.05.81.05.25.14.47.27.64.13.17.32.32.58.43s.54.17.84.17c.68,0,1.22-.29,1.62-.86v.75h.77Zm-10.49-1c.24.37.58.65,1.01.84.43.19.96.28,1.6.28.5,0,.95-.09,1.35-.28.4-.18.71-.44.92-.77.21-.33.32-.68.32-1.06s-.1-.71-.29-1c-.19-.29-.5-.53-.91-.72-.28-.13-.8-.28-1.56-.45-.76-.17-1.23-.34-1.4-.5-.18-.16-.27-.37-.27-.62,0-.29.13-.54.39-.75.26-.21.67-.31,1.23-.31s.95.11,1.23.34c.28.23.44.56.49,1.01l.89-.07c-.02-.41-.13-.78-.35-1.11-.21-.33-.52-.57-.92-.74-.4-.17-.86-.25-1.38-.25-.47,0-.9.08-1.29.24-.39.16-.68.4-.88.7-.2.31-.3.64-.3,1,0,.32.08.62.25.88.17.26.42.48.75.66.26.14.71.28,1.36.44.64.16,1.06.27,1.25.34.29.11.51.25.63.42.13.16.19.36.19.58s-.07.42-.2.6c-.13.18-.34.33-.61.43-.27.1-.59.16-.94.16-.4,0-.76-.07-1.08-.21-.32-.14-.56-.32-.71-.55-.15-.22-.25-.51-.29-.87l-.88.08c.01.47.14.89.39,1.27" fill="#010101"/></g></svg>